%TF.GenerationSoftware,KiCad,Pcbnew,9.0.6-1.fc43*%
%TF.CreationDate,2026-01-04T22:18:13+01:00*%
%TF.ProjectId,CARL-Air-Brake-Power-Supply-Hardware,4341524c-2d41-4697-922d-4272616b652d,1*%
%TF.SameCoordinates,PX8f0d180PY5f5e100*%
%TF.FileFunction,Legend,Top*%
%TF.FilePolarity,Positive*%
%FSLAX46Y46*%
G04 Gerber Fmt 4.6, Leading zero omitted, Abs format (unit mm)*
G04 Created by KiCad (PCBNEW 9.0.6-1.fc43) date 2026-01-04 22:18:13*
%MOMM*%
%LPD*%
G01*
G04 APERTURE LIST*
%ADD10C,0.100000*%
%ADD11C,0.150000*%
G04 APERTURE END LIST*
D10*
X-31500000Y-20000000D02*
X-31500000Y-21000000D01*
X-32000000Y-8000000D02*
X-31000000Y-8000000D01*
X-31500000Y-8500000D02*
X-31500000Y-7500000D01*
X-5946741Y-21207419D02*
X-5946741Y-20207419D01*
X-5946741Y-20207419D02*
X-5613408Y-20921704D01*
X-5613408Y-20921704D02*
X-5280075Y-20207419D01*
X-5280075Y-20207419D02*
X-5280075Y-21207419D01*
X-4803884Y-21207419D02*
X-4803884Y-20207419D01*
X-4375313Y-21159800D02*
X-4232456Y-21207419D01*
X-4232456Y-21207419D02*
X-3994361Y-21207419D01*
X-3994361Y-21207419D02*
X-3899123Y-21159800D01*
X-3899123Y-21159800D02*
X-3851504Y-21112180D01*
X-3851504Y-21112180D02*
X-3803885Y-21016942D01*
X-3803885Y-21016942D02*
X-3803885Y-20921704D01*
X-3803885Y-20921704D02*
X-3851504Y-20826466D01*
X-3851504Y-20826466D02*
X-3899123Y-20778847D01*
X-3899123Y-20778847D02*
X-3994361Y-20731228D01*
X-3994361Y-20731228D02*
X-4184837Y-20683609D01*
X-4184837Y-20683609D02*
X-4280075Y-20635990D01*
X-4280075Y-20635990D02*
X-4327694Y-20588371D01*
X-4327694Y-20588371D02*
X-4375313Y-20493133D01*
X-4375313Y-20493133D02*
X-4375313Y-20397895D01*
X-4375313Y-20397895D02*
X-4327694Y-20302657D01*
X-4327694Y-20302657D02*
X-4280075Y-20255038D01*
X-4280075Y-20255038D02*
X-4184837Y-20207419D01*
X-4184837Y-20207419D02*
X-3946742Y-20207419D01*
X-3946742Y-20207419D02*
X-3803885Y-20255038D01*
X-3184837Y-20207419D02*
X-2994361Y-20207419D01*
X-2994361Y-20207419D02*
X-2899123Y-20255038D01*
X-2899123Y-20255038D02*
X-2803885Y-20350276D01*
X-2803885Y-20350276D02*
X-2756266Y-20540752D01*
X-2756266Y-20540752D02*
X-2756266Y-20874085D01*
X-2756266Y-20874085D02*
X-2803885Y-21064561D01*
X-2803885Y-21064561D02*
X-2899123Y-21159800D01*
X-2899123Y-21159800D02*
X-2994361Y-21207419D01*
X-2994361Y-21207419D02*
X-3184837Y-21207419D01*
X-3184837Y-21207419D02*
X-3280075Y-21159800D01*
X-3280075Y-21159800D02*
X-3375313Y-21064561D01*
X-3375313Y-21064561D02*
X-3422932Y-20874085D01*
X-3422932Y-20874085D02*
X-3422932Y-20540752D01*
X-3422932Y-20540752D02*
X-3375313Y-20350276D01*
X-3375313Y-20350276D02*
X-3280075Y-20255038D01*
X-3280075Y-20255038D02*
X-3184837Y-20207419D01*
X4827693Y-25755038D02*
X4732455Y-25707419D01*
X4732455Y-25707419D02*
X4589598Y-25707419D01*
X4589598Y-25707419D02*
X4446741Y-25755038D01*
X4446741Y-25755038D02*
X4351503Y-25850276D01*
X4351503Y-25850276D02*
X4303884Y-25945514D01*
X4303884Y-25945514D02*
X4256265Y-26135990D01*
X4256265Y-26135990D02*
X4256265Y-26278847D01*
X4256265Y-26278847D02*
X4303884Y-26469323D01*
X4303884Y-26469323D02*
X4351503Y-26564561D01*
X4351503Y-26564561D02*
X4446741Y-26659800D01*
X4446741Y-26659800D02*
X4589598Y-26707419D01*
X4589598Y-26707419D02*
X4684836Y-26707419D01*
X4684836Y-26707419D02*
X4827693Y-26659800D01*
X4827693Y-26659800D02*
X4875312Y-26612180D01*
X4875312Y-26612180D02*
X4875312Y-26278847D01*
X4875312Y-26278847D02*
X4684836Y-26278847D01*
X5303884Y-26707419D02*
X5303884Y-25707419D01*
X5303884Y-25707419D02*
X5875312Y-26707419D01*
X5875312Y-26707419D02*
X5875312Y-25707419D01*
X6351503Y-26707419D02*
X6351503Y-25707419D01*
X6351503Y-25707419D02*
X6589598Y-25707419D01*
X6589598Y-25707419D02*
X6732455Y-25755038D01*
X6732455Y-25755038D02*
X6827693Y-25850276D01*
X6827693Y-25850276D02*
X6875312Y-25945514D01*
X6875312Y-25945514D02*
X6922931Y-26135990D01*
X6922931Y-26135990D02*
X6922931Y-26278847D01*
X6922931Y-26278847D02*
X6875312Y-26469323D01*
X6875312Y-26469323D02*
X6827693Y-26564561D01*
X6827693Y-26564561D02*
X6732455Y-26659800D01*
X6732455Y-26659800D02*
X6589598Y-26707419D01*
X6589598Y-26707419D02*
X6351503Y-26707419D01*
X23457419Y-14511904D02*
X23457419Y-13940476D01*
X24457419Y-14226190D02*
X23457419Y-14226190D01*
X23457419Y-13702380D02*
X24457419Y-13035714D01*
X23457419Y-13035714D02*
X24457419Y-13702380D01*
X24791353Y13042581D02*
X24600877Y13042581D01*
X24600877Y13042581D02*
X24505639Y12994962D01*
X24505639Y12994962D02*
X24458020Y12947343D01*
X24458020Y12947343D02*
X24362782Y12804486D01*
X24362782Y12804486D02*
X24315163Y12614010D01*
X24315163Y12614010D02*
X24315163Y12233058D01*
X24315163Y12233058D02*
X24362782Y12137820D01*
X24362782Y12137820D02*
X24410401Y12090200D01*
X24410401Y12090200D02*
X24505639Y12042581D01*
X24505639Y12042581D02*
X24696115Y12042581D01*
X24696115Y12042581D02*
X24791353Y12090200D01*
X24791353Y12090200D02*
X24838972Y12137820D01*
X24838972Y12137820D02*
X24886591Y12233058D01*
X24886591Y12233058D02*
X24886591Y12471153D01*
X24886591Y12471153D02*
X24838972Y12566391D01*
X24838972Y12566391D02*
X24791353Y12614010D01*
X24791353Y12614010D02*
X24696115Y12661629D01*
X24696115Y12661629D02*
X24505639Y12661629D01*
X24505639Y12661629D02*
X24410401Y12614010D01*
X24410401Y12614010D02*
X24362782Y12566391D01*
X24362782Y12566391D02*
X24315163Y12471153D01*
X25172306Y13042581D02*
X25505639Y12042581D01*
X25505639Y12042581D02*
X25838972Y13042581D01*
X21981830Y11042581D02*
X22315163Y10042581D01*
X22315163Y10042581D02*
X22648496Y11042581D01*
X22981830Y10042581D02*
X22981830Y11042581D01*
X22981830Y11042581D02*
X23315163Y10328296D01*
X23315163Y10328296D02*
X23648496Y11042581D01*
X23648496Y11042581D02*
X23648496Y10042581D01*
X24696115Y10137820D02*
X24648496Y10090200D01*
X24648496Y10090200D02*
X24505639Y10042581D01*
X24505639Y10042581D02*
X24410401Y10042581D01*
X24410401Y10042581D02*
X24267544Y10090200D01*
X24267544Y10090200D02*
X24172306Y10185439D01*
X24172306Y10185439D02*
X24124687Y10280677D01*
X24124687Y10280677D02*
X24077068Y10471153D01*
X24077068Y10471153D02*
X24077068Y10614010D01*
X24077068Y10614010D02*
X24124687Y10804486D01*
X24124687Y10804486D02*
X24172306Y10899724D01*
X24172306Y10899724D02*
X24267544Y10994962D01*
X24267544Y10994962D02*
X24410401Y11042581D01*
X24410401Y11042581D02*
X24505639Y11042581D01*
X24505639Y11042581D02*
X24648496Y10994962D01*
X24648496Y10994962D02*
X24696115Y10947343D01*
X25124687Y11042581D02*
X25124687Y10233058D01*
X25124687Y10233058D02*
X25172306Y10137820D01*
X25172306Y10137820D02*
X25219925Y10090200D01*
X25219925Y10090200D02*
X25315163Y10042581D01*
X25315163Y10042581D02*
X25505639Y10042581D01*
X25505639Y10042581D02*
X25600877Y10090200D01*
X25600877Y10090200D02*
X25648496Y10137820D01*
X25648496Y10137820D02*
X25696115Y10233058D01*
X25696115Y10233058D02*
X25696115Y11042581D01*
X-26541354Y-957419D02*
X-25922307Y-957419D01*
X-25922307Y-957419D02*
X-26255640Y-1338371D01*
X-26255640Y-1338371D02*
X-26112783Y-1338371D01*
X-26112783Y-1338371D02*
X-26017545Y-1385990D01*
X-26017545Y-1385990D02*
X-25969926Y-1433609D01*
X-25969926Y-1433609D02*
X-25922307Y-1528847D01*
X-25922307Y-1528847D02*
X-25922307Y-1766942D01*
X-25922307Y-1766942D02*
X-25969926Y-1862180D01*
X-25969926Y-1862180D02*
X-26017545Y-1909800D01*
X-26017545Y-1909800D02*
X-26112783Y-1957419D01*
X-26112783Y-1957419D02*
X-26398497Y-1957419D01*
X-26398497Y-1957419D02*
X-26493735Y-1909800D01*
X-26493735Y-1909800D02*
X-26541354Y-1862180D01*
X-25493735Y-1862180D02*
X-25446116Y-1909800D01*
X-25446116Y-1909800D02*
X-25493735Y-1957419D01*
X-25493735Y-1957419D02*
X-25541354Y-1909800D01*
X-25541354Y-1909800D02*
X-25493735Y-1862180D01*
X-25493735Y-1862180D02*
X-25493735Y-1957419D01*
X-25112783Y-957419D02*
X-24493736Y-957419D01*
X-24493736Y-957419D02*
X-24827069Y-1338371D01*
X-24827069Y-1338371D02*
X-24684212Y-1338371D01*
X-24684212Y-1338371D02*
X-24588974Y-1385990D01*
X-24588974Y-1385990D02*
X-24541355Y-1433609D01*
X-24541355Y-1433609D02*
X-24493736Y-1528847D01*
X-24493736Y-1528847D02*
X-24493736Y-1766942D01*
X-24493736Y-1766942D02*
X-24541355Y-1862180D01*
X-24541355Y-1862180D02*
X-24588974Y-1909800D01*
X-24588974Y-1909800D02*
X-24684212Y-1957419D01*
X-24684212Y-1957419D02*
X-24969926Y-1957419D01*
X-24969926Y-1957419D02*
X-25065164Y-1909800D01*
X-25065164Y-1909800D02*
X-25112783Y-1862180D01*
X-24208021Y-957419D02*
X-23874688Y-1957419D01*
X-23874688Y-1957419D02*
X-23541355Y-957419D01*
X24838972Y15042581D02*
X24362782Y15042581D01*
X24362782Y15042581D02*
X24315163Y14566391D01*
X24315163Y14566391D02*
X24362782Y14614010D01*
X24362782Y14614010D02*
X24458020Y14661629D01*
X24458020Y14661629D02*
X24696115Y14661629D01*
X24696115Y14661629D02*
X24791353Y14614010D01*
X24791353Y14614010D02*
X24838972Y14566391D01*
X24838972Y14566391D02*
X24886591Y14471153D01*
X24886591Y14471153D02*
X24886591Y14233058D01*
X24886591Y14233058D02*
X24838972Y14137820D01*
X24838972Y14137820D02*
X24791353Y14090200D01*
X24791353Y14090200D02*
X24696115Y14042581D01*
X24696115Y14042581D02*
X24458020Y14042581D01*
X24458020Y14042581D02*
X24362782Y14090200D01*
X24362782Y14090200D02*
X24315163Y14137820D01*
X25172306Y15042581D02*
X25505639Y14042581D01*
X25505639Y14042581D02*
X25838972Y15042581D01*
X-5327694Y-23909800D02*
X-5184837Y-23957419D01*
X-5184837Y-23957419D02*
X-4946742Y-23957419D01*
X-4946742Y-23957419D02*
X-4851504Y-23909800D01*
X-4851504Y-23909800D02*
X-4803885Y-23862180D01*
X-4803885Y-23862180D02*
X-4756266Y-23766942D01*
X-4756266Y-23766942D02*
X-4756266Y-23671704D01*
X-4756266Y-23671704D02*
X-4803885Y-23576466D01*
X-4803885Y-23576466D02*
X-4851504Y-23528847D01*
X-4851504Y-23528847D02*
X-4946742Y-23481228D01*
X-4946742Y-23481228D02*
X-5137218Y-23433609D01*
X-5137218Y-23433609D02*
X-5232456Y-23385990D01*
X-5232456Y-23385990D02*
X-5280075Y-23338371D01*
X-5280075Y-23338371D02*
X-5327694Y-23243133D01*
X-5327694Y-23243133D02*
X-5327694Y-23147895D01*
X-5327694Y-23147895D02*
X-5280075Y-23052657D01*
X-5280075Y-23052657D02*
X-5232456Y-23005038D01*
X-5232456Y-23005038D02*
X-5137218Y-22957419D01*
X-5137218Y-22957419D02*
X-4899123Y-22957419D01*
X-4899123Y-22957419D02*
X-4756266Y-23005038D01*
X-3756266Y-23862180D02*
X-3803885Y-23909800D01*
X-3803885Y-23909800D02*
X-3946742Y-23957419D01*
X-3946742Y-23957419D02*
X-4041980Y-23957419D01*
X-4041980Y-23957419D02*
X-4184837Y-23909800D01*
X-4184837Y-23909800D02*
X-4280075Y-23814561D01*
X-4280075Y-23814561D02*
X-4327694Y-23719323D01*
X-4327694Y-23719323D02*
X-4375313Y-23528847D01*
X-4375313Y-23528847D02*
X-4375313Y-23385990D01*
X-4375313Y-23385990D02*
X-4327694Y-23195514D01*
X-4327694Y-23195514D02*
X-4280075Y-23100276D01*
X-4280075Y-23100276D02*
X-4184837Y-23005038D01*
X-4184837Y-23005038D02*
X-4041980Y-22957419D01*
X-4041980Y-22957419D02*
X-3946742Y-22957419D01*
X-3946742Y-22957419D02*
X-3803885Y-23005038D01*
X-3803885Y-23005038D02*
X-3756266Y-23052657D01*
X-3327694Y-23957419D02*
X-3327694Y-22957419D01*
X-2756266Y-23957419D02*
X-3184837Y-23385990D01*
X-2756266Y-22957419D02*
X-3327694Y-23528847D01*
X-25922307Y-4505038D02*
X-26017545Y-4457419D01*
X-26017545Y-4457419D02*
X-26160402Y-4457419D01*
X-26160402Y-4457419D02*
X-26303259Y-4505038D01*
X-26303259Y-4505038D02*
X-26398497Y-4600276D01*
X-26398497Y-4600276D02*
X-26446116Y-4695514D01*
X-26446116Y-4695514D02*
X-26493735Y-4885990D01*
X-26493735Y-4885990D02*
X-26493735Y-5028847D01*
X-26493735Y-5028847D02*
X-26446116Y-5219323D01*
X-26446116Y-5219323D02*
X-26398497Y-5314561D01*
X-26398497Y-5314561D02*
X-26303259Y-5409800D01*
X-26303259Y-5409800D02*
X-26160402Y-5457419D01*
X-26160402Y-5457419D02*
X-26065164Y-5457419D01*
X-26065164Y-5457419D02*
X-25922307Y-5409800D01*
X-25922307Y-5409800D02*
X-25874688Y-5362180D01*
X-25874688Y-5362180D02*
X-25874688Y-5028847D01*
X-25874688Y-5028847D02*
X-26065164Y-5028847D01*
X-25446116Y-5457419D02*
X-25446116Y-4457419D01*
X-25446116Y-4457419D02*
X-24874688Y-5457419D01*
X-24874688Y-5457419D02*
X-24874688Y-4457419D01*
X-24398497Y-5457419D02*
X-24398497Y-4457419D01*
X-24398497Y-4457419D02*
X-24160402Y-4457419D01*
X-24160402Y-4457419D02*
X-24017545Y-4505038D01*
X-24017545Y-4505038D02*
X-23922307Y-4600276D01*
X-23922307Y-4600276D02*
X-23874688Y-4695514D01*
X-23874688Y-4695514D02*
X-23827069Y-4885990D01*
X-23827069Y-4885990D02*
X-23827069Y-5028847D01*
X-23827069Y-5028847D02*
X-23874688Y-5219323D01*
X-23874688Y-5219323D02*
X-23922307Y-5314561D01*
X-23922307Y-5314561D02*
X-24017545Y-5409800D01*
X-24017545Y-5409800D02*
X-24160402Y-5457419D01*
X-24160402Y-5457419D02*
X-24398497Y-5457419D01*
X-24982456Y-22957419D02*
X-24791980Y-22957419D01*
X-24791980Y-22957419D02*
X-24696742Y-23005038D01*
X-24696742Y-23005038D02*
X-24601504Y-23100276D01*
X-24601504Y-23100276D02*
X-24553885Y-23290752D01*
X-24553885Y-23290752D02*
X-24553885Y-23624085D01*
X-24553885Y-23624085D02*
X-24601504Y-23814561D01*
X-24601504Y-23814561D02*
X-24696742Y-23909800D01*
X-24696742Y-23909800D02*
X-24791980Y-23957419D01*
X-24791980Y-23957419D02*
X-24982456Y-23957419D01*
X-24982456Y-23957419D02*
X-25077694Y-23909800D01*
X-25077694Y-23909800D02*
X-25172932Y-23814561D01*
X-25172932Y-23814561D02*
X-25220551Y-23624085D01*
X-25220551Y-23624085D02*
X-25220551Y-23290752D01*
X-25220551Y-23290752D02*
X-25172932Y-23100276D01*
X-25172932Y-23100276D02*
X-25077694Y-23005038D01*
X-25077694Y-23005038D02*
X-24982456Y-22957419D01*
X-24125313Y-23957419D02*
X-24125313Y-22957419D01*
X-24125313Y-22957419D02*
X-23553885Y-23957419D01*
X-23553885Y-23957419D02*
X-23553885Y-22957419D01*
X24457419Y-17666666D02*
X23981228Y-17999999D01*
X24457419Y-18238094D02*
X23457419Y-18238094D01*
X23457419Y-18238094D02*
X23457419Y-17857142D01*
X23457419Y-17857142D02*
X23505038Y-17761904D01*
X23505038Y-17761904D02*
X23552657Y-17714285D01*
X23552657Y-17714285D02*
X23647895Y-17666666D01*
X23647895Y-17666666D02*
X23790752Y-17666666D01*
X23790752Y-17666666D02*
X23885990Y-17714285D01*
X23885990Y-17714285D02*
X23933609Y-17761904D01*
X23933609Y-17761904D02*
X23981228Y-17857142D01*
X23981228Y-17857142D02*
X23981228Y-18238094D01*
X23457419Y-17333332D02*
X24457419Y-16666666D01*
X23457419Y-16666666D02*
X24457419Y-17333332D01*
X-26588973Y9542581D02*
X-26255640Y8542581D01*
X-26255640Y8542581D02*
X-25922307Y9542581D01*
X-25588973Y8542581D02*
X-25588973Y9542581D01*
X-25588973Y9542581D02*
X-25255640Y8828296D01*
X-25255640Y8828296D02*
X-24922307Y9542581D01*
X-24922307Y9542581D02*
X-24922307Y8542581D01*
X-23874688Y8637820D02*
X-23922307Y8590200D01*
X-23922307Y8590200D02*
X-24065164Y8542581D01*
X-24065164Y8542581D02*
X-24160402Y8542581D01*
X-24160402Y8542581D02*
X-24303259Y8590200D01*
X-24303259Y8590200D02*
X-24398497Y8685439D01*
X-24398497Y8685439D02*
X-24446116Y8780677D01*
X-24446116Y8780677D02*
X-24493735Y8971153D01*
X-24493735Y8971153D02*
X-24493735Y9114010D01*
X-24493735Y9114010D02*
X-24446116Y9304486D01*
X-24446116Y9304486D02*
X-24398497Y9399724D01*
X-24398497Y9399724D02*
X-24303259Y9494962D01*
X-24303259Y9494962D02*
X-24160402Y9542581D01*
X-24160402Y9542581D02*
X-24065164Y9542581D01*
X-24065164Y9542581D02*
X-23922307Y9494962D01*
X-23922307Y9494962D02*
X-23874688Y9447343D01*
X-23446116Y9542581D02*
X-23446116Y8733058D01*
X-23446116Y8733058D02*
X-23398497Y8637820D01*
X-23398497Y8637820D02*
X-23350878Y8590200D01*
X-23350878Y8590200D02*
X-23255640Y8542581D01*
X-23255640Y8542581D02*
X-23065164Y8542581D01*
X-23065164Y8542581D02*
X-22969926Y8590200D01*
X-22969926Y8590200D02*
X-22922307Y8637820D01*
X-22922307Y8637820D02*
X-22874688Y8733058D01*
X-22874688Y8733058D02*
X-22874688Y9542581D01*
X-4470552Y-26707419D02*
X-4803885Y-26231228D01*
X-5041980Y-26707419D02*
X-5041980Y-25707419D01*
X-5041980Y-25707419D02*
X-4661028Y-25707419D01*
X-4661028Y-25707419D02*
X-4565790Y-25755038D01*
X-4565790Y-25755038D02*
X-4518171Y-25802657D01*
X-4518171Y-25802657D02*
X-4470552Y-25897895D01*
X-4470552Y-25897895D02*
X-4470552Y-26040752D01*
X-4470552Y-26040752D02*
X-4518171Y-26135990D01*
X-4518171Y-26135990D02*
X-4565790Y-26183609D01*
X-4565790Y-26183609D02*
X-4661028Y-26231228D01*
X-4661028Y-26231228D02*
X-5041980Y-26231228D01*
X-4089599Y-26659800D02*
X-3946742Y-26707419D01*
X-3946742Y-26707419D02*
X-3708647Y-26707419D01*
X-3708647Y-26707419D02*
X-3613409Y-26659800D01*
X-3613409Y-26659800D02*
X-3565790Y-26612180D01*
X-3565790Y-26612180D02*
X-3518171Y-26516942D01*
X-3518171Y-26516942D02*
X-3518171Y-26421704D01*
X-3518171Y-26421704D02*
X-3565790Y-26326466D01*
X-3565790Y-26326466D02*
X-3613409Y-26278847D01*
X-3613409Y-26278847D02*
X-3708647Y-26231228D01*
X-3708647Y-26231228D02*
X-3899123Y-26183609D01*
X-3899123Y-26183609D02*
X-3994361Y-26135990D01*
X-3994361Y-26135990D02*
X-4041980Y-26088371D01*
X-4041980Y-26088371D02*
X-4089599Y-25993133D01*
X-4089599Y-25993133D02*
X-4089599Y-25897895D01*
X-4089599Y-25897895D02*
X-4041980Y-25802657D01*
X-4041980Y-25802657D02*
X-3994361Y-25755038D01*
X-3994361Y-25755038D02*
X-3899123Y-25707419D01*
X-3899123Y-25707419D02*
X-3661028Y-25707419D01*
X-3661028Y-25707419D02*
X-3518171Y-25755038D01*
X-3232456Y-25707419D02*
X-2661028Y-25707419D01*
X-2946742Y-26707419D02*
X-2946742Y-25707419D01*
X-26017545Y6042581D02*
X-26208021Y6042581D01*
X-26208021Y6042581D02*
X-26303259Y5994962D01*
X-26303259Y5994962D02*
X-26350878Y5947343D01*
X-26350878Y5947343D02*
X-26446116Y5804486D01*
X-26446116Y5804486D02*
X-26493735Y5614010D01*
X-26493735Y5614010D02*
X-26493735Y5233058D01*
X-26493735Y5233058D02*
X-26446116Y5137820D01*
X-26446116Y5137820D02*
X-26398497Y5090200D01*
X-26398497Y5090200D02*
X-26303259Y5042581D01*
X-26303259Y5042581D02*
X-26112783Y5042581D01*
X-26112783Y5042581D02*
X-26017545Y5090200D01*
X-26017545Y5090200D02*
X-25969926Y5137820D01*
X-25969926Y5137820D02*
X-25922307Y5233058D01*
X-25922307Y5233058D02*
X-25922307Y5471153D01*
X-25922307Y5471153D02*
X-25969926Y5566391D01*
X-25969926Y5566391D02*
X-26017545Y5614010D01*
X-26017545Y5614010D02*
X-26112783Y5661629D01*
X-26112783Y5661629D02*
X-26303259Y5661629D01*
X-26303259Y5661629D02*
X-26398497Y5614010D01*
X-26398497Y5614010D02*
X-26446116Y5566391D01*
X-26446116Y5566391D02*
X-26493735Y5471153D01*
X-25636592Y6042581D02*
X-25303259Y5042581D01*
X-25303259Y5042581D02*
X-24969926Y6042581D01*
X-8755640Y-22957419D02*
X-8565164Y-22957419D01*
X-8565164Y-22957419D02*
X-8469926Y-23005038D01*
X-8469926Y-23005038D02*
X-8374688Y-23100276D01*
X-8374688Y-23100276D02*
X-8327069Y-23290752D01*
X-8327069Y-23290752D02*
X-8327069Y-23624085D01*
X-8327069Y-23624085D02*
X-8374688Y-23814561D01*
X-8374688Y-23814561D02*
X-8469926Y-23909800D01*
X-8469926Y-23909800D02*
X-8565164Y-23957419D01*
X-8565164Y-23957419D02*
X-8755640Y-23957419D01*
X-8755640Y-23957419D02*
X-8850878Y-23909800D01*
X-8850878Y-23909800D02*
X-8946116Y-23814561D01*
X-8946116Y-23814561D02*
X-8993735Y-23624085D01*
X-8993735Y-23624085D02*
X-8993735Y-23290752D01*
X-8993735Y-23290752D02*
X-8946116Y-23100276D01*
X-8946116Y-23100276D02*
X-8850878Y-23005038D01*
X-8850878Y-23005038D02*
X-8755640Y-22957419D01*
X-7565164Y-23433609D02*
X-7898497Y-23433609D01*
X-7898497Y-23957419D02*
X-7898497Y-22957419D01*
X-7898497Y-22957419D02*
X-7422307Y-22957419D01*
X-6708021Y-23433609D02*
X-7041354Y-23433609D01*
X-7041354Y-23957419D02*
X-7041354Y-22957419D01*
X-7041354Y-22957419D02*
X-6565164Y-22957419D01*
X4161027Y-20207419D02*
X4494360Y-21207419D01*
X4494360Y-21207419D02*
X4827693Y-20207419D01*
X5732455Y-21112180D02*
X5684836Y-21159800D01*
X5684836Y-21159800D02*
X5541979Y-21207419D01*
X5541979Y-21207419D02*
X5446741Y-21207419D01*
X5446741Y-21207419D02*
X5303884Y-21159800D01*
X5303884Y-21159800D02*
X5208646Y-21064561D01*
X5208646Y-21064561D02*
X5161027Y-20969323D01*
X5161027Y-20969323D02*
X5113408Y-20778847D01*
X5113408Y-20778847D02*
X5113408Y-20635990D01*
X5113408Y-20635990D02*
X5161027Y-20445514D01*
X5161027Y-20445514D02*
X5208646Y-20350276D01*
X5208646Y-20350276D02*
X5303884Y-20255038D01*
X5303884Y-20255038D02*
X5446741Y-20207419D01*
X5446741Y-20207419D02*
X5541979Y-20207419D01*
X5541979Y-20207419D02*
X5684836Y-20255038D01*
X5684836Y-20255038D02*
X5732455Y-20302657D01*
X6732455Y-21112180D02*
X6684836Y-21159800D01*
X6684836Y-21159800D02*
X6541979Y-21207419D01*
X6541979Y-21207419D02*
X6446741Y-21207419D01*
X6446741Y-21207419D02*
X6303884Y-21159800D01*
X6303884Y-21159800D02*
X6208646Y-21064561D01*
X6208646Y-21064561D02*
X6161027Y-20969323D01*
X6161027Y-20969323D02*
X6113408Y-20778847D01*
X6113408Y-20778847D02*
X6113408Y-20635990D01*
X6113408Y-20635990D02*
X6161027Y-20445514D01*
X6161027Y-20445514D02*
X6208646Y-20350276D01*
X6208646Y-20350276D02*
X6303884Y-20255038D01*
X6303884Y-20255038D02*
X6446741Y-20207419D01*
X6446741Y-20207419D02*
X6541979Y-20207419D01*
X6541979Y-20207419D02*
X6684836Y-20255038D01*
X6684836Y-20255038D02*
X6732455Y-20302657D01*
X-26588973Y13042581D02*
X-26255640Y12042581D01*
X-26255640Y12042581D02*
X-25922307Y13042581D01*
X-25255640Y12566391D02*
X-25112783Y12518772D01*
X-25112783Y12518772D02*
X-25065164Y12471153D01*
X-25065164Y12471153D02*
X-25017545Y12375915D01*
X-25017545Y12375915D02*
X-25017545Y12233058D01*
X-25017545Y12233058D02*
X-25065164Y12137820D01*
X-25065164Y12137820D02*
X-25112783Y12090200D01*
X-25112783Y12090200D02*
X-25208021Y12042581D01*
X-25208021Y12042581D02*
X-25588973Y12042581D01*
X-25588973Y12042581D02*
X-25588973Y13042581D01*
X-25588973Y13042581D02*
X-25255640Y13042581D01*
X-25255640Y13042581D02*
X-25160402Y12994962D01*
X-25160402Y12994962D02*
X-25112783Y12947343D01*
X-25112783Y12947343D02*
X-25065164Y12852105D01*
X-25065164Y12852105D02*
X-25065164Y12756867D01*
X-25065164Y12756867D02*
X-25112783Y12661629D01*
X-25112783Y12661629D02*
X-25160402Y12614010D01*
X-25160402Y12614010D02*
X-25255640Y12566391D01*
X-25255640Y12566391D02*
X-25588973Y12566391D01*
X-24636592Y12328296D02*
X-24160402Y12328296D01*
X-24731830Y12042581D02*
X-24398497Y13042581D01*
X-24398497Y13042581D02*
X-24065164Y12042581D01*
X-23874687Y13042581D02*
X-23303259Y13042581D01*
X-23588973Y12042581D02*
X-23588973Y13042581D01*
X4303884Y-23957419D02*
X4303884Y-22957419D01*
X4303884Y-22957419D02*
X4637217Y-23671704D01*
X4637217Y-23671704D02*
X4970550Y-22957419D01*
X4970550Y-22957419D02*
X4970550Y-23957419D01*
X5637217Y-22957419D02*
X5827693Y-22957419D01*
X5827693Y-22957419D02*
X5922931Y-23005038D01*
X5922931Y-23005038D02*
X6018169Y-23100276D01*
X6018169Y-23100276D02*
X6065788Y-23290752D01*
X6065788Y-23290752D02*
X6065788Y-23624085D01*
X6065788Y-23624085D02*
X6018169Y-23814561D01*
X6018169Y-23814561D02*
X5922931Y-23909800D01*
X5922931Y-23909800D02*
X5827693Y-23957419D01*
X5827693Y-23957419D02*
X5637217Y-23957419D01*
X5637217Y-23957419D02*
X5541979Y-23909800D01*
X5541979Y-23909800D02*
X5446741Y-23814561D01*
X5446741Y-23814561D02*
X5399122Y-23624085D01*
X5399122Y-23624085D02*
X5399122Y-23290752D01*
X5399122Y-23290752D02*
X5446741Y-23100276D01*
X5446741Y-23100276D02*
X5541979Y-23005038D01*
X5541979Y-23005038D02*
X5637217Y-22957419D01*
X6446741Y-23909800D02*
X6589598Y-23957419D01*
X6589598Y-23957419D02*
X6827693Y-23957419D01*
X6827693Y-23957419D02*
X6922931Y-23909800D01*
X6922931Y-23909800D02*
X6970550Y-23862180D01*
X6970550Y-23862180D02*
X7018169Y-23766942D01*
X7018169Y-23766942D02*
X7018169Y-23671704D01*
X7018169Y-23671704D02*
X6970550Y-23576466D01*
X6970550Y-23576466D02*
X6922931Y-23528847D01*
X6922931Y-23528847D02*
X6827693Y-23481228D01*
X6827693Y-23481228D02*
X6637217Y-23433609D01*
X6637217Y-23433609D02*
X6541979Y-23385990D01*
X6541979Y-23385990D02*
X6494360Y-23338371D01*
X6494360Y-23338371D02*
X6446741Y-23243133D01*
X6446741Y-23243133D02*
X6446741Y-23147895D01*
X6446741Y-23147895D02*
X6494360Y-23052657D01*
X6494360Y-23052657D02*
X6541979Y-23005038D01*
X6541979Y-23005038D02*
X6637217Y-22957419D01*
X6637217Y-22957419D02*
X6875312Y-22957419D01*
X6875312Y-22957419D02*
X7018169Y-23005038D01*
X7446741Y-23957419D02*
X7446741Y-22957419D01*
X22838973Y17042581D02*
X23458020Y17042581D01*
X23458020Y17042581D02*
X23124687Y16661629D01*
X23124687Y16661629D02*
X23267544Y16661629D01*
X23267544Y16661629D02*
X23362782Y16614010D01*
X23362782Y16614010D02*
X23410401Y16566391D01*
X23410401Y16566391D02*
X23458020Y16471153D01*
X23458020Y16471153D02*
X23458020Y16233058D01*
X23458020Y16233058D02*
X23410401Y16137820D01*
X23410401Y16137820D02*
X23362782Y16090200D01*
X23362782Y16090200D02*
X23267544Y16042581D01*
X23267544Y16042581D02*
X22981830Y16042581D01*
X22981830Y16042581D02*
X22886592Y16090200D01*
X22886592Y16090200D02*
X22838973Y16137820D01*
X23886592Y16137820D02*
X23934211Y16090200D01*
X23934211Y16090200D02*
X23886592Y16042581D01*
X23886592Y16042581D02*
X23838973Y16090200D01*
X23838973Y16090200D02*
X23886592Y16137820D01*
X23886592Y16137820D02*
X23886592Y16042581D01*
X24267544Y17042581D02*
X24886591Y17042581D01*
X24886591Y17042581D02*
X24553258Y16661629D01*
X24553258Y16661629D02*
X24696115Y16661629D01*
X24696115Y16661629D02*
X24791353Y16614010D01*
X24791353Y16614010D02*
X24838972Y16566391D01*
X24838972Y16566391D02*
X24886591Y16471153D01*
X24886591Y16471153D02*
X24886591Y16233058D01*
X24886591Y16233058D02*
X24838972Y16137820D01*
X24838972Y16137820D02*
X24791353Y16090200D01*
X24791353Y16090200D02*
X24696115Y16042581D01*
X24696115Y16042581D02*
X24410401Y16042581D01*
X24410401Y16042581D02*
X24315163Y16090200D01*
X24315163Y16090200D02*
X24267544Y16137820D01*
X25172306Y17042581D02*
X25505639Y16042581D01*
X25505639Y16042581D02*
X25838972Y17042581D01*
X-25969926Y2542581D02*
X-26446116Y2542581D01*
X-26446116Y2542581D02*
X-26493735Y2066391D01*
X-26493735Y2066391D02*
X-26446116Y2114010D01*
X-26446116Y2114010D02*
X-26350878Y2161629D01*
X-26350878Y2161629D02*
X-26112783Y2161629D01*
X-26112783Y2161629D02*
X-26017545Y2114010D01*
X-26017545Y2114010D02*
X-25969926Y2066391D01*
X-25969926Y2066391D02*
X-25922307Y1971153D01*
X-25922307Y1971153D02*
X-25922307Y1733058D01*
X-25922307Y1733058D02*
X-25969926Y1637820D01*
X-25969926Y1637820D02*
X-26017545Y1590200D01*
X-26017545Y1590200D02*
X-26112783Y1542581D01*
X-26112783Y1542581D02*
X-26350878Y1542581D01*
X-26350878Y1542581D02*
X-26446116Y1590200D01*
X-26446116Y1590200D02*
X-26493735Y1637820D01*
X-25636592Y2542581D02*
X-25303259Y1542581D01*
X-25303259Y1542581D02*
X-24969926Y2542581D01*
X-9083333Y-18909800D02*
X-8940476Y-18957419D01*
X-8940476Y-18957419D02*
X-8702381Y-18957419D01*
X-8702381Y-18957419D02*
X-8607143Y-18909800D01*
X-8607143Y-18909800D02*
X-8559524Y-18862180D01*
X-8559524Y-18862180D02*
X-8511905Y-18766942D01*
X-8511905Y-18766942D02*
X-8511905Y-18671704D01*
X-8511905Y-18671704D02*
X-8559524Y-18576466D01*
X-8559524Y-18576466D02*
X-8607143Y-18528847D01*
X-8607143Y-18528847D02*
X-8702381Y-18481228D01*
X-8702381Y-18481228D02*
X-8892857Y-18433609D01*
X-8892857Y-18433609D02*
X-8988095Y-18385990D01*
X-8988095Y-18385990D02*
X-9035714Y-18338371D01*
X-9035714Y-18338371D02*
X-9083333Y-18243133D01*
X-9083333Y-18243133D02*
X-9083333Y-18147895D01*
X-9083333Y-18147895D02*
X-9035714Y-18052657D01*
X-9035714Y-18052657D02*
X-8988095Y-18005038D01*
X-8988095Y-18005038D02*
X-8892857Y-17957419D01*
X-8892857Y-17957419D02*
X-8654762Y-17957419D01*
X-8654762Y-17957419D02*
X-8511905Y-18005038D01*
X-8178571Y-17957419D02*
X-7940476Y-18957419D01*
X-7940476Y-18957419D02*
X-7750000Y-18243133D01*
X-7750000Y-18243133D02*
X-7559524Y-18957419D01*
X-7559524Y-18957419D02*
X-7321428Y-17957419D01*
X-6416667Y-18957419D02*
X-6988095Y-18957419D01*
X-6702381Y-18957419D02*
X-6702381Y-17957419D01*
X-6702381Y-17957419D02*
X-6797619Y-18100276D01*
X-6797619Y-18100276D02*
X-6892857Y-18195514D01*
X-6892857Y-18195514D02*
X-6988095Y-18243133D01*
X4612180Y16357143D02*
X4659800Y16309524D01*
X4659800Y16309524D02*
X4707419Y16166667D01*
X4707419Y16166667D02*
X4707419Y16071429D01*
X4707419Y16071429D02*
X4659800Y15928572D01*
X4659800Y15928572D02*
X4564561Y15833334D01*
X4564561Y15833334D02*
X4469323Y15785715D01*
X4469323Y15785715D02*
X4278847Y15738096D01*
X4278847Y15738096D02*
X4135990Y15738096D01*
X4135990Y15738096D02*
X3945514Y15785715D01*
X3945514Y15785715D02*
X3850276Y15833334D01*
X3850276Y15833334D02*
X3755038Y15928572D01*
X3755038Y15928572D02*
X3707419Y16071429D01*
X3707419Y16071429D02*
X3707419Y16166667D01*
X3707419Y16166667D02*
X3755038Y16309524D01*
X3755038Y16309524D02*
X3802657Y16357143D01*
X4707419Y17309524D02*
X4707419Y16738096D01*
X4707419Y17023810D02*
X3707419Y17023810D01*
X3707419Y17023810D02*
X3850276Y16928572D01*
X3850276Y16928572D02*
X3945514Y16833334D01*
X3945514Y16833334D02*
X3993133Y16738096D01*
X3707419Y17642858D02*
X3707419Y18309524D01*
X3707419Y18309524D02*
X4707419Y17880953D01*
X29535714Y10042581D02*
X29535714Y11042581D01*
X29535714Y11042581D02*
X29773809Y11042581D01*
X29773809Y11042581D02*
X29916666Y10994962D01*
X29916666Y10994962D02*
X30011904Y10899724D01*
X30011904Y10899724D02*
X30059523Y10804486D01*
X30059523Y10804486D02*
X30107142Y10614010D01*
X30107142Y10614010D02*
X30107142Y10471153D01*
X30107142Y10471153D02*
X30059523Y10280677D01*
X30059523Y10280677D02*
X30011904Y10185439D01*
X30011904Y10185439D02*
X29916666Y10090200D01*
X29916666Y10090200D02*
X29773809Y10042581D01*
X29773809Y10042581D02*
X29535714Y10042581D01*
X31059523Y10042581D02*
X30488095Y10042581D01*
X30773809Y10042581D02*
X30773809Y11042581D01*
X30773809Y11042581D02*
X30678571Y10899724D01*
X30678571Y10899724D02*
X30583333Y10804486D01*
X30583333Y10804486D02*
X30488095Y10756867D01*
X31916666Y10709248D02*
X31916666Y10042581D01*
X31678571Y11090200D02*
X31440476Y10375915D01*
X31440476Y10375915D02*
X32059523Y10375915D01*
X-21137820Y4333334D02*
X-21090200Y4285715D01*
X-21090200Y4285715D02*
X-21042581Y4142858D01*
X-21042581Y4142858D02*
X-21042581Y4047620D01*
X-21042581Y4047620D02*
X-21090200Y3904763D01*
X-21090200Y3904763D02*
X-21185439Y3809525D01*
X-21185439Y3809525D02*
X-21280677Y3761906D01*
X-21280677Y3761906D02*
X-21471153Y3714287D01*
X-21471153Y3714287D02*
X-21614010Y3714287D01*
X-21614010Y3714287D02*
X-21804486Y3761906D01*
X-21804486Y3761906D02*
X-21899724Y3809525D01*
X-21899724Y3809525D02*
X-21994962Y3904763D01*
X-21994962Y3904763D02*
X-22042581Y4047620D01*
X-22042581Y4047620D02*
X-22042581Y4142858D01*
X-22042581Y4142858D02*
X-21994962Y4285715D01*
X-21994962Y4285715D02*
X-21947343Y4333334D01*
X-21709248Y5190477D02*
X-21042581Y5190477D01*
X-22090200Y4952382D02*
X-21375915Y4714287D01*
X-21375915Y4714287D02*
X-21375915Y5333334D01*
X4333333Y19542581D02*
X3857143Y19542581D01*
X3857143Y19542581D02*
X3857143Y20542581D01*
X4619048Y20447343D02*
X4666667Y20494962D01*
X4666667Y20494962D02*
X4761905Y20542581D01*
X4761905Y20542581D02*
X5000000Y20542581D01*
X5000000Y20542581D02*
X5095238Y20494962D01*
X5095238Y20494962D02*
X5142857Y20447343D01*
X5142857Y20447343D02*
X5190476Y20352105D01*
X5190476Y20352105D02*
X5190476Y20256867D01*
X5190476Y20256867D02*
X5142857Y20114010D01*
X5142857Y20114010D02*
X4571429Y19542581D01*
X4571429Y19542581D02*
X5190476Y19542581D01*
X612180Y10357143D02*
X659800Y10309524D01*
X659800Y10309524D02*
X707419Y10166667D01*
X707419Y10166667D02*
X707419Y10071429D01*
X707419Y10071429D02*
X659800Y9928572D01*
X659800Y9928572D02*
X564561Y9833334D01*
X564561Y9833334D02*
X469323Y9785715D01*
X469323Y9785715D02*
X278847Y9738096D01*
X278847Y9738096D02*
X135990Y9738096D01*
X135990Y9738096D02*
X-54486Y9785715D01*
X-54486Y9785715D02*
X-149724Y9833334D01*
X-149724Y9833334D02*
X-244962Y9928572D01*
X-244962Y9928572D02*
X-292581Y10071429D01*
X-292581Y10071429D02*
X-292581Y10166667D01*
X-292581Y10166667D02*
X-244962Y10309524D01*
X-244962Y10309524D02*
X-197343Y10357143D01*
X707419Y11309524D02*
X707419Y10738096D01*
X707419Y11023810D02*
X-292581Y11023810D01*
X-292581Y11023810D02*
X-149724Y10928572D01*
X-149724Y10928572D02*
X-54486Y10833334D01*
X-54486Y10833334D02*
X-6867Y10738096D01*
X-292581Y12166667D02*
X-292581Y11976191D01*
X-292581Y11976191D02*
X-244962Y11880953D01*
X-244962Y11880953D02*
X-197343Y11833334D01*
X-197343Y11833334D02*
X-54486Y11738096D01*
X-54486Y11738096D02*
X135990Y11690477D01*
X135990Y11690477D02*
X516942Y11690477D01*
X516942Y11690477D02*
X612180Y11738096D01*
X612180Y11738096D02*
X659800Y11785715D01*
X659800Y11785715D02*
X707419Y11880953D01*
X707419Y11880953D02*
X707419Y12071429D01*
X707419Y12071429D02*
X659800Y12166667D01*
X659800Y12166667D02*
X612180Y12214286D01*
X612180Y12214286D02*
X516942Y12261905D01*
X516942Y12261905D02*
X278847Y12261905D01*
X278847Y12261905D02*
X183609Y12214286D01*
X183609Y12214286D02*
X135990Y12166667D01*
X135990Y12166667D02*
X88371Y12071429D01*
X88371Y12071429D02*
X88371Y11880953D01*
X88371Y11880953D02*
X135990Y11785715D01*
X135990Y11785715D02*
X183609Y11738096D01*
X183609Y11738096D02*
X278847Y11690477D01*
X-1833334Y-17957419D02*
X-1833334Y-18671704D01*
X-1833334Y-18671704D02*
X-1880953Y-18814561D01*
X-1880953Y-18814561D02*
X-1976191Y-18909800D01*
X-1976191Y-18909800D02*
X-2119048Y-18957419D01*
X-2119048Y-18957419D02*
X-2214286Y-18957419D01*
X-1404762Y-18052657D02*
X-1357143Y-18005038D01*
X-1357143Y-18005038D02*
X-1261905Y-17957419D01*
X-1261905Y-17957419D02*
X-1023810Y-17957419D01*
X-1023810Y-17957419D02*
X-928572Y-18005038D01*
X-928572Y-18005038D02*
X-880953Y-18052657D01*
X-880953Y-18052657D02*
X-833334Y-18147895D01*
X-833334Y-18147895D02*
X-833334Y-18243133D01*
X-833334Y-18243133D02*
X-880953Y-18385990D01*
X-880953Y-18385990D02*
X-1452381Y-18957419D01*
X-1452381Y-18957419D02*
X-833334Y-18957419D01*
X-19137820Y4333334D02*
X-19090200Y4285715D01*
X-19090200Y4285715D02*
X-19042581Y4142858D01*
X-19042581Y4142858D02*
X-19042581Y4047620D01*
X-19042581Y4047620D02*
X-19090200Y3904763D01*
X-19090200Y3904763D02*
X-19185439Y3809525D01*
X-19185439Y3809525D02*
X-19280677Y3761906D01*
X-19280677Y3761906D02*
X-19471153Y3714287D01*
X-19471153Y3714287D02*
X-19614010Y3714287D01*
X-19614010Y3714287D02*
X-19804486Y3761906D01*
X-19804486Y3761906D02*
X-19899724Y3809525D01*
X-19899724Y3809525D02*
X-19994962Y3904763D01*
X-19994962Y3904763D02*
X-20042581Y4047620D01*
X-20042581Y4047620D02*
X-20042581Y4142858D01*
X-20042581Y4142858D02*
X-19994962Y4285715D01*
X-19994962Y4285715D02*
X-19947343Y4333334D01*
X-20042581Y4666668D02*
X-20042581Y5285715D01*
X-20042581Y5285715D02*
X-19661629Y4952382D01*
X-19661629Y4952382D02*
X-19661629Y5095239D01*
X-19661629Y5095239D02*
X-19614010Y5190477D01*
X-19614010Y5190477D02*
X-19566391Y5238096D01*
X-19566391Y5238096D02*
X-19471153Y5285715D01*
X-19471153Y5285715D02*
X-19233058Y5285715D01*
X-19233058Y5285715D02*
X-19137820Y5238096D01*
X-19137820Y5238096D02*
X-19090200Y5190477D01*
X-19090200Y5190477D02*
X-19042581Y5095239D01*
X-19042581Y5095239D02*
X-19042581Y4809525D01*
X-19042581Y4809525D02*
X-19090200Y4714287D01*
X-19090200Y4714287D02*
X-19137820Y4666668D01*
X2612180Y4357143D02*
X2659800Y4309524D01*
X2659800Y4309524D02*
X2707419Y4166667D01*
X2707419Y4166667D02*
X2707419Y4071429D01*
X2707419Y4071429D02*
X2659800Y3928572D01*
X2659800Y3928572D02*
X2564561Y3833334D01*
X2564561Y3833334D02*
X2469323Y3785715D01*
X2469323Y3785715D02*
X2278847Y3738096D01*
X2278847Y3738096D02*
X2135990Y3738096D01*
X2135990Y3738096D02*
X1945514Y3785715D01*
X1945514Y3785715D02*
X1850276Y3833334D01*
X1850276Y3833334D02*
X1755038Y3928572D01*
X1755038Y3928572D02*
X1707419Y4071429D01*
X1707419Y4071429D02*
X1707419Y4166667D01*
X1707419Y4166667D02*
X1755038Y4309524D01*
X1755038Y4309524D02*
X1802657Y4357143D01*
X2707419Y5309524D02*
X2707419Y4738096D01*
X2707419Y5023810D02*
X1707419Y5023810D01*
X1707419Y5023810D02*
X1850276Y4928572D01*
X1850276Y4928572D02*
X1945514Y4833334D01*
X1945514Y4833334D02*
X1993133Y4738096D01*
X2707419Y6261905D02*
X2707419Y5690477D01*
X2707419Y5976191D02*
X1707419Y5976191D01*
X1707419Y5976191D02*
X1850276Y5880953D01*
X1850276Y5880953D02*
X1945514Y5785715D01*
X1945514Y5785715D02*
X1993133Y5690477D01*
X-4792581Y5333334D02*
X-5268772Y5000001D01*
X-4792581Y4761906D02*
X-5792581Y4761906D01*
X-5792581Y4761906D02*
X-5792581Y5142858D01*
X-5792581Y5142858D02*
X-5744962Y5238096D01*
X-5744962Y5238096D02*
X-5697343Y5285715D01*
X-5697343Y5285715D02*
X-5602105Y5333334D01*
X-5602105Y5333334D02*
X-5459248Y5333334D01*
X-5459248Y5333334D02*
X-5364010Y5285715D01*
X-5364010Y5285715D02*
X-5316391Y5238096D01*
X-5316391Y5238096D02*
X-5268772Y5142858D01*
X-5268772Y5142858D02*
X-5268772Y4761906D01*
X-5459248Y6190477D02*
X-4792581Y6190477D01*
X-5840200Y5952382D02*
X-5125915Y5714287D01*
X-5125915Y5714287D02*
X-5125915Y6333334D01*
X15488095Y-9157419D02*
X15488095Y-9966942D01*
X15488095Y-9966942D02*
X15535714Y-10062180D01*
X15535714Y-10062180D02*
X15583333Y-10109800D01*
X15583333Y-10109800D02*
X15678571Y-10157419D01*
X15678571Y-10157419D02*
X15869047Y-10157419D01*
X15869047Y-10157419D02*
X15964285Y-10109800D01*
X15964285Y-10109800D02*
X16011904Y-10062180D01*
X16011904Y-10062180D02*
X16059523Y-9966942D01*
X16059523Y-9966942D02*
X16059523Y-9157419D01*
X16440476Y-9157419D02*
X17059523Y-9157419D01*
X17059523Y-9157419D02*
X16726190Y-9538371D01*
X16726190Y-9538371D02*
X16869047Y-9538371D01*
X16869047Y-9538371D02*
X16964285Y-9585990D01*
X16964285Y-9585990D02*
X17011904Y-9633609D01*
X17011904Y-9633609D02*
X17059523Y-9728847D01*
X17059523Y-9728847D02*
X17059523Y-9966942D01*
X17059523Y-9966942D02*
X17011904Y-10062180D01*
X17011904Y-10062180D02*
X16964285Y-10109800D01*
X16964285Y-10109800D02*
X16869047Y-10157419D01*
X16869047Y-10157419D02*
X16583333Y-10157419D01*
X16583333Y-10157419D02*
X16488095Y-10109800D01*
X16488095Y-10109800D02*
X16440476Y-10062180D01*
X24666666Y-19457419D02*
X24666666Y-20171704D01*
X24666666Y-20171704D02*
X24619047Y-20314561D01*
X24619047Y-20314561D02*
X24523809Y-20409800D01*
X24523809Y-20409800D02*
X24380952Y-20457419D01*
X24380952Y-20457419D02*
X24285714Y-20457419D01*
X25619047Y-19457419D02*
X25142857Y-19457419D01*
X25142857Y-19457419D02*
X25095238Y-19933609D01*
X25095238Y-19933609D02*
X25142857Y-19885990D01*
X25142857Y-19885990D02*
X25238095Y-19838371D01*
X25238095Y-19838371D02*
X25476190Y-19838371D01*
X25476190Y-19838371D02*
X25571428Y-19885990D01*
X25571428Y-19885990D02*
X25619047Y-19933609D01*
X25619047Y-19933609D02*
X25666666Y-20028847D01*
X25666666Y-20028847D02*
X25666666Y-20266942D01*
X25666666Y-20266942D02*
X25619047Y-20362180D01*
X25619047Y-20362180D02*
X25571428Y-20409800D01*
X25571428Y-20409800D02*
X25476190Y-20457419D01*
X25476190Y-20457419D02*
X25238095Y-20457419D01*
X25238095Y-20457419D02*
X25142857Y-20409800D01*
X25142857Y-20409800D02*
X25095238Y-20362180D01*
X-4792581Y1833334D02*
X-5268772Y1500001D01*
X-4792581Y1261906D02*
X-5792581Y1261906D01*
X-5792581Y1261906D02*
X-5792581Y1642858D01*
X-5792581Y1642858D02*
X-5744962Y1738096D01*
X-5744962Y1738096D02*
X-5697343Y1785715D01*
X-5697343Y1785715D02*
X-5602105Y1833334D01*
X-5602105Y1833334D02*
X-5459248Y1833334D01*
X-5459248Y1833334D02*
X-5364010Y1785715D01*
X-5364010Y1785715D02*
X-5316391Y1738096D01*
X-5316391Y1738096D02*
X-5268772Y1642858D01*
X-5268772Y1642858D02*
X-5268772Y1261906D01*
X-5792581Y2166668D02*
X-5792581Y2785715D01*
X-5792581Y2785715D02*
X-5411629Y2452382D01*
X-5411629Y2452382D02*
X-5411629Y2595239D01*
X-5411629Y2595239D02*
X-5364010Y2690477D01*
X-5364010Y2690477D02*
X-5316391Y2738096D01*
X-5316391Y2738096D02*
X-5221153Y2785715D01*
X-5221153Y2785715D02*
X-4983058Y2785715D01*
X-4983058Y2785715D02*
X-4887820Y2738096D01*
X-4887820Y2738096D02*
X-4840200Y2690477D01*
X-4840200Y2690477D02*
X-4792581Y2595239D01*
X-4792581Y2595239D02*
X-4792581Y2309525D01*
X-4792581Y2309525D02*
X-4840200Y2214287D01*
X-4840200Y2214287D02*
X-4887820Y2166668D01*
X-31934837Y6042581D02*
X-31363409Y6042581D01*
X-31649123Y5042581D02*
X-31649123Y6042581D01*
X-31030075Y5042581D02*
X-31030075Y6042581D01*
X-31030075Y6042581D02*
X-30649123Y6042581D01*
X-30649123Y6042581D02*
X-30553885Y5994962D01*
X-30553885Y5994962D02*
X-30506266Y5947343D01*
X-30506266Y5947343D02*
X-30458647Y5852105D01*
X-30458647Y5852105D02*
X-30458647Y5709248D01*
X-30458647Y5709248D02*
X-30506266Y5614010D01*
X-30506266Y5614010D02*
X-30553885Y5566391D01*
X-30553885Y5566391D02*
X-30649123Y5518772D01*
X-30649123Y5518772D02*
X-31030075Y5518772D01*
X-29601504Y5709248D02*
X-29601504Y5042581D01*
X-29839599Y6090200D02*
X-30077694Y5375915D01*
X-30077694Y5375915D02*
X-29458647Y5375915D01*
X24261905Y-3457419D02*
X24261905Y-2457419D01*
X24261905Y-2457419D02*
X24500000Y-2457419D01*
X24500000Y-2457419D02*
X24642857Y-2505038D01*
X24642857Y-2505038D02*
X24738095Y-2600276D01*
X24738095Y-2600276D02*
X24785714Y-2695514D01*
X24785714Y-2695514D02*
X24833333Y-2885990D01*
X24833333Y-2885990D02*
X24833333Y-3028847D01*
X24833333Y-3028847D02*
X24785714Y-3219323D01*
X24785714Y-3219323D02*
X24738095Y-3314561D01*
X24738095Y-3314561D02*
X24642857Y-3409800D01*
X24642857Y-3409800D02*
X24500000Y-3457419D01*
X24500000Y-3457419D02*
X24261905Y-3457419D01*
X25404762Y-2885990D02*
X25309524Y-2838371D01*
X25309524Y-2838371D02*
X25261905Y-2790752D01*
X25261905Y-2790752D02*
X25214286Y-2695514D01*
X25214286Y-2695514D02*
X25214286Y-2647895D01*
X25214286Y-2647895D02*
X25261905Y-2552657D01*
X25261905Y-2552657D02*
X25309524Y-2505038D01*
X25309524Y-2505038D02*
X25404762Y-2457419D01*
X25404762Y-2457419D02*
X25595238Y-2457419D01*
X25595238Y-2457419D02*
X25690476Y-2505038D01*
X25690476Y-2505038D02*
X25738095Y-2552657D01*
X25738095Y-2552657D02*
X25785714Y-2647895D01*
X25785714Y-2647895D02*
X25785714Y-2695514D01*
X25785714Y-2695514D02*
X25738095Y-2790752D01*
X25738095Y-2790752D02*
X25690476Y-2838371D01*
X25690476Y-2838371D02*
X25595238Y-2885990D01*
X25595238Y-2885990D02*
X25404762Y-2885990D01*
X25404762Y-2885990D02*
X25309524Y-2933609D01*
X25309524Y-2933609D02*
X25261905Y-2981228D01*
X25261905Y-2981228D02*
X25214286Y-3076466D01*
X25214286Y-3076466D02*
X25214286Y-3266942D01*
X25214286Y-3266942D02*
X25261905Y-3362180D01*
X25261905Y-3362180D02*
X25309524Y-3409800D01*
X25309524Y-3409800D02*
X25404762Y-3457419D01*
X25404762Y-3457419D02*
X25595238Y-3457419D01*
X25595238Y-3457419D02*
X25690476Y-3409800D01*
X25690476Y-3409800D02*
X25738095Y-3362180D01*
X25738095Y-3362180D02*
X25785714Y-3266942D01*
X25785714Y-3266942D02*
X25785714Y-3076466D01*
X25785714Y-3076466D02*
X25738095Y-2981228D01*
X25738095Y-2981228D02*
X25690476Y-2933609D01*
X25690476Y-2933609D02*
X25595238Y-2885990D01*
X-31934837Y-957419D02*
X-31363409Y-957419D01*
X-31649123Y-1957419D02*
X-31649123Y-957419D01*
X-31030075Y-1957419D02*
X-31030075Y-957419D01*
X-31030075Y-957419D02*
X-30649123Y-957419D01*
X-30649123Y-957419D02*
X-30553885Y-1005038D01*
X-30553885Y-1005038D02*
X-30506266Y-1052657D01*
X-30506266Y-1052657D02*
X-30458647Y-1147895D01*
X-30458647Y-1147895D02*
X-30458647Y-1290752D01*
X-30458647Y-1290752D02*
X-30506266Y-1385990D01*
X-30506266Y-1385990D02*
X-30553885Y-1433609D01*
X-30553885Y-1433609D02*
X-30649123Y-1481228D01*
X-30649123Y-1481228D02*
X-31030075Y-1481228D01*
X-30077694Y-1052657D02*
X-30030075Y-1005038D01*
X-30030075Y-1005038D02*
X-29934837Y-957419D01*
X-29934837Y-957419D02*
X-29696742Y-957419D01*
X-29696742Y-957419D02*
X-29601504Y-1005038D01*
X-29601504Y-1005038D02*
X-29553885Y-1052657D01*
X-29553885Y-1052657D02*
X-29506266Y-1147895D01*
X-29506266Y-1147895D02*
X-29506266Y-1243133D01*
X-29506266Y-1243133D02*
X-29553885Y-1385990D01*
X-29553885Y-1385990D02*
X-30125313Y-1957419D01*
X-30125313Y-1957419D02*
X-29506266Y-1957419D01*
X-19042581Y16333334D02*
X-19518772Y16000001D01*
X-19042581Y15761906D02*
X-20042581Y15761906D01*
X-20042581Y15761906D02*
X-20042581Y16142858D01*
X-20042581Y16142858D02*
X-19994962Y16238096D01*
X-19994962Y16238096D02*
X-19947343Y16285715D01*
X-19947343Y16285715D02*
X-19852105Y16333334D01*
X-19852105Y16333334D02*
X-19709248Y16333334D01*
X-19709248Y16333334D02*
X-19614010Y16285715D01*
X-19614010Y16285715D02*
X-19566391Y16238096D01*
X-19566391Y16238096D02*
X-19518772Y16142858D01*
X-19518772Y16142858D02*
X-19518772Y15761906D01*
X-20042581Y17238096D02*
X-20042581Y16761906D01*
X-20042581Y16761906D02*
X-19566391Y16714287D01*
X-19566391Y16714287D02*
X-19614010Y16761906D01*
X-19614010Y16761906D02*
X-19661629Y16857144D01*
X-19661629Y16857144D02*
X-19661629Y17095239D01*
X-19661629Y17095239D02*
X-19614010Y17190477D01*
X-19614010Y17190477D02*
X-19566391Y17238096D01*
X-19566391Y17238096D02*
X-19471153Y17285715D01*
X-19471153Y17285715D02*
X-19233058Y17285715D01*
X-19233058Y17285715D02*
X-19137820Y17238096D01*
X-19137820Y17238096D02*
X-19090200Y17190477D01*
X-19090200Y17190477D02*
X-19042581Y17095239D01*
X-19042581Y17095239D02*
X-19042581Y16857144D01*
X-19042581Y16857144D02*
X-19090200Y16761906D01*
X-19090200Y16761906D02*
X-19137820Y16714287D01*
X22707419Y-20938094D02*
X21707419Y-20938094D01*
X21707419Y-20938094D02*
X21707419Y-20699999D01*
X21707419Y-20699999D02*
X21755038Y-20557142D01*
X21755038Y-20557142D02*
X21850276Y-20461904D01*
X21850276Y-20461904D02*
X21945514Y-20414285D01*
X21945514Y-20414285D02*
X22135990Y-20366666D01*
X22135990Y-20366666D02*
X22278847Y-20366666D01*
X22278847Y-20366666D02*
X22469323Y-20414285D01*
X22469323Y-20414285D02*
X22564561Y-20461904D01*
X22564561Y-20461904D02*
X22659800Y-20557142D01*
X22659800Y-20557142D02*
X22707419Y-20699999D01*
X22707419Y-20699999D02*
X22707419Y-20938094D01*
X21707419Y-19461904D02*
X21707419Y-19938094D01*
X21707419Y-19938094D02*
X22183609Y-19985713D01*
X22183609Y-19985713D02*
X22135990Y-19938094D01*
X22135990Y-19938094D02*
X22088371Y-19842856D01*
X22088371Y-19842856D02*
X22088371Y-19604761D01*
X22088371Y-19604761D02*
X22135990Y-19509523D01*
X22135990Y-19509523D02*
X22183609Y-19461904D01*
X22183609Y-19461904D02*
X22278847Y-19414285D01*
X22278847Y-19414285D02*
X22516942Y-19414285D01*
X22516942Y-19414285D02*
X22612180Y-19461904D01*
X22612180Y-19461904D02*
X22659800Y-19509523D01*
X22659800Y-19509523D02*
X22707419Y-19604761D01*
X22707419Y-19604761D02*
X22707419Y-19842856D01*
X22707419Y-19842856D02*
X22659800Y-19938094D01*
X22659800Y-19938094D02*
X22612180Y-19985713D01*
X23285714Y4542581D02*
X23285714Y5542581D01*
X23285714Y5542581D02*
X23523809Y5542581D01*
X23523809Y5542581D02*
X23666666Y5494962D01*
X23666666Y5494962D02*
X23761904Y5399724D01*
X23761904Y5399724D02*
X23809523Y5304486D01*
X23809523Y5304486D02*
X23857142Y5114010D01*
X23857142Y5114010D02*
X23857142Y4971153D01*
X23857142Y4971153D02*
X23809523Y4780677D01*
X23809523Y4780677D02*
X23761904Y4685439D01*
X23761904Y4685439D02*
X23666666Y4590200D01*
X23666666Y4590200D02*
X23523809Y4542581D01*
X23523809Y4542581D02*
X23285714Y4542581D01*
X24809523Y4542581D02*
X24238095Y4542581D01*
X24523809Y4542581D02*
X24523809Y5542581D01*
X24523809Y5542581D02*
X24428571Y5399724D01*
X24428571Y5399724D02*
X24333333Y5304486D01*
X24333333Y5304486D02*
X24238095Y5256867D01*
X25428571Y5542581D02*
X25523809Y5542581D01*
X25523809Y5542581D02*
X25619047Y5494962D01*
X25619047Y5494962D02*
X25666666Y5447343D01*
X25666666Y5447343D02*
X25714285Y5352105D01*
X25714285Y5352105D02*
X25761904Y5161629D01*
X25761904Y5161629D02*
X25761904Y4923534D01*
X25761904Y4923534D02*
X25714285Y4733058D01*
X25714285Y4733058D02*
X25666666Y4637820D01*
X25666666Y4637820D02*
X25619047Y4590200D01*
X25619047Y4590200D02*
X25523809Y4542581D01*
X25523809Y4542581D02*
X25428571Y4542581D01*
X25428571Y4542581D02*
X25333333Y4590200D01*
X25333333Y4590200D02*
X25285714Y4637820D01*
X25285714Y4637820D02*
X25238095Y4733058D01*
X25238095Y4733058D02*
X25190476Y4923534D01*
X25190476Y4923534D02*
X25190476Y5161629D01*
X25190476Y5161629D02*
X25238095Y5352105D01*
X25238095Y5352105D02*
X25285714Y5447343D01*
X25285714Y5447343D02*
X25333333Y5494962D01*
X25333333Y5494962D02*
X25428571Y5542581D01*
X-31934837Y2542581D02*
X-31363409Y2542581D01*
X-31649123Y1542581D02*
X-31649123Y2542581D01*
X-31030075Y1542581D02*
X-31030075Y2542581D01*
X-31030075Y2542581D02*
X-30649123Y2542581D01*
X-30649123Y2542581D02*
X-30553885Y2494962D01*
X-30553885Y2494962D02*
X-30506266Y2447343D01*
X-30506266Y2447343D02*
X-30458647Y2352105D01*
X-30458647Y2352105D02*
X-30458647Y2209248D01*
X-30458647Y2209248D02*
X-30506266Y2114010D01*
X-30506266Y2114010D02*
X-30553885Y2066391D01*
X-30553885Y2066391D02*
X-30649123Y2018772D01*
X-30649123Y2018772D02*
X-31030075Y2018772D01*
X-30125313Y2542581D02*
X-29506266Y2542581D01*
X-29506266Y2542581D02*
X-29839599Y2161629D01*
X-29839599Y2161629D02*
X-29696742Y2161629D01*
X-29696742Y2161629D02*
X-29601504Y2114010D01*
X-29601504Y2114010D02*
X-29553885Y2066391D01*
X-29553885Y2066391D02*
X-29506266Y1971153D01*
X-29506266Y1971153D02*
X-29506266Y1733058D01*
X-29506266Y1733058D02*
X-29553885Y1637820D01*
X-29553885Y1637820D02*
X-29601504Y1590200D01*
X-29601504Y1590200D02*
X-29696742Y1542581D01*
X-29696742Y1542581D02*
X-29982456Y1542581D01*
X-29982456Y1542581D02*
X-30077694Y1590200D01*
X-30077694Y1590200D02*
X-30125313Y1637820D01*
X-1261905Y-7957419D02*
X-1261905Y-8766942D01*
X-1261905Y-8766942D02*
X-1214286Y-8862180D01*
X-1214286Y-8862180D02*
X-1166667Y-8909800D01*
X-1166667Y-8909800D02*
X-1071429Y-8957419D01*
X-1071429Y-8957419D02*
X-880953Y-8957419D01*
X-880953Y-8957419D02*
X-785715Y-8909800D01*
X-785715Y-8909800D02*
X-738096Y-8862180D01*
X-738096Y-8862180D02*
X-690477Y-8766942D01*
X-690477Y-8766942D02*
X-690477Y-7957419D01*
X214285Y-8290752D02*
X214285Y-8957419D01*
X-23810Y-7909800D02*
X-261905Y-8624085D01*
X-261905Y-8624085D02*
X357142Y-8624085D01*
X16957419Y1833334D02*
X16481228Y1500001D01*
X16957419Y1261906D02*
X15957419Y1261906D01*
X15957419Y1261906D02*
X15957419Y1642858D01*
X15957419Y1642858D02*
X16005038Y1738096D01*
X16005038Y1738096D02*
X16052657Y1785715D01*
X16052657Y1785715D02*
X16147895Y1833334D01*
X16147895Y1833334D02*
X16290752Y1833334D01*
X16290752Y1833334D02*
X16385990Y1785715D01*
X16385990Y1785715D02*
X16433609Y1738096D01*
X16433609Y1738096D02*
X16481228Y1642858D01*
X16481228Y1642858D02*
X16481228Y1261906D01*
X15957419Y2166668D02*
X15957419Y2833334D01*
X15957419Y2833334D02*
X16957419Y2404763D01*
X-28333334Y-19957419D02*
X-28333334Y-20671704D01*
X-28333334Y-20671704D02*
X-28380953Y-20814561D01*
X-28380953Y-20814561D02*
X-28476191Y-20909800D01*
X-28476191Y-20909800D02*
X-28619048Y-20957419D01*
X-28619048Y-20957419D02*
X-28714286Y-20957419D01*
X-27333334Y-20957419D02*
X-27904762Y-20957419D01*
X-27619048Y-20957419D02*
X-27619048Y-19957419D01*
X-27619048Y-19957419D02*
X-27714286Y-20100276D01*
X-27714286Y-20100276D02*
X-27809524Y-20195514D01*
X-27809524Y-20195514D02*
X-27904762Y-20243133D01*
X-16261905Y1042581D02*
X-16261905Y233058D01*
X-16261905Y233058D02*
X-16214286Y137820D01*
X-16214286Y137820D02*
X-16166667Y90200D01*
X-16166667Y90200D02*
X-16071429Y42581D01*
X-16071429Y42581D02*
X-15880953Y42581D01*
X-15880953Y42581D02*
X-15785715Y90200D01*
X-15785715Y90200D02*
X-15738096Y137820D01*
X-15738096Y137820D02*
X-15690477Y233058D01*
X-15690477Y233058D02*
X-15690477Y1042581D01*
X-14690477Y42581D02*
X-15261905Y42581D01*
X-14976191Y42581D02*
X-14976191Y1042581D01*
X-14976191Y1042581D02*
X-15071429Y899724D01*
X-15071429Y899724D02*
X-15166667Y804486D01*
X-15166667Y804486D02*
X-15261905Y756867D01*
X22707419Y-11688094D02*
X21707419Y-11688094D01*
X21707419Y-11688094D02*
X21707419Y-11449999D01*
X21707419Y-11449999D02*
X21755038Y-11307142D01*
X21755038Y-11307142D02*
X21850276Y-11211904D01*
X21850276Y-11211904D02*
X21945514Y-11164285D01*
X21945514Y-11164285D02*
X22135990Y-11116666D01*
X22135990Y-11116666D02*
X22278847Y-11116666D01*
X22278847Y-11116666D02*
X22469323Y-11164285D01*
X22469323Y-11164285D02*
X22564561Y-11211904D01*
X22564561Y-11211904D02*
X22659800Y-11307142D01*
X22659800Y-11307142D02*
X22707419Y-11449999D01*
X22707419Y-11449999D02*
X22707419Y-11688094D01*
X22040752Y-10259523D02*
X22707419Y-10259523D01*
X21659800Y-10497618D02*
X22374085Y-10735713D01*
X22374085Y-10735713D02*
X22374085Y-10116666D01*
X612180Y4357143D02*
X659800Y4309524D01*
X659800Y4309524D02*
X707419Y4166667D01*
X707419Y4166667D02*
X707419Y4071429D01*
X707419Y4071429D02*
X659800Y3928572D01*
X659800Y3928572D02*
X564561Y3833334D01*
X564561Y3833334D02*
X469323Y3785715D01*
X469323Y3785715D02*
X278847Y3738096D01*
X278847Y3738096D02*
X135990Y3738096D01*
X135990Y3738096D02*
X-54486Y3785715D01*
X-54486Y3785715D02*
X-149724Y3833334D01*
X-149724Y3833334D02*
X-244962Y3928572D01*
X-244962Y3928572D02*
X-292581Y4071429D01*
X-292581Y4071429D02*
X-292581Y4166667D01*
X-292581Y4166667D02*
X-244962Y4309524D01*
X-244962Y4309524D02*
X-197343Y4357143D01*
X707419Y5309524D02*
X707419Y4738096D01*
X707419Y5023810D02*
X-292581Y5023810D01*
X-292581Y5023810D02*
X-149724Y4928572D01*
X-149724Y4928572D02*
X-54486Y4833334D01*
X-54486Y4833334D02*
X-6867Y4738096D01*
X-197343Y5690477D02*
X-244962Y5738096D01*
X-244962Y5738096D02*
X-292581Y5833334D01*
X-292581Y5833334D02*
X-292581Y6071429D01*
X-292581Y6071429D02*
X-244962Y6166667D01*
X-244962Y6166667D02*
X-197343Y6214286D01*
X-197343Y6214286D02*
X-102105Y6261905D01*
X-102105Y6261905D02*
X-6867Y6261905D01*
X-6867Y6261905D02*
X135990Y6214286D01*
X135990Y6214286D02*
X707419Y5642858D01*
X707419Y5642858D02*
X707419Y6261905D01*
X-17137820Y4333334D02*
X-17090200Y4285715D01*
X-17090200Y4285715D02*
X-17042581Y4142858D01*
X-17042581Y4142858D02*
X-17042581Y4047620D01*
X-17042581Y4047620D02*
X-17090200Y3904763D01*
X-17090200Y3904763D02*
X-17185439Y3809525D01*
X-17185439Y3809525D02*
X-17280677Y3761906D01*
X-17280677Y3761906D02*
X-17471153Y3714287D01*
X-17471153Y3714287D02*
X-17614010Y3714287D01*
X-17614010Y3714287D02*
X-17804486Y3761906D01*
X-17804486Y3761906D02*
X-17899724Y3809525D01*
X-17899724Y3809525D02*
X-17994962Y3904763D01*
X-17994962Y3904763D02*
X-18042581Y4047620D01*
X-18042581Y4047620D02*
X-18042581Y4142858D01*
X-18042581Y4142858D02*
X-17994962Y4285715D01*
X-17994962Y4285715D02*
X-17947343Y4333334D01*
X-17947343Y4714287D02*
X-17994962Y4761906D01*
X-17994962Y4761906D02*
X-18042581Y4857144D01*
X-18042581Y4857144D02*
X-18042581Y5095239D01*
X-18042581Y5095239D02*
X-17994962Y5190477D01*
X-17994962Y5190477D02*
X-17947343Y5238096D01*
X-17947343Y5238096D02*
X-17852105Y5285715D01*
X-17852105Y5285715D02*
X-17756867Y5285715D01*
X-17756867Y5285715D02*
X-17614010Y5238096D01*
X-17614010Y5238096D02*
X-17042581Y4666668D01*
X-17042581Y4666668D02*
X-17042581Y5285715D01*
X5488095Y1042581D02*
X5488095Y233058D01*
X5488095Y233058D02*
X5535714Y137820D01*
X5535714Y137820D02*
X5583333Y90200D01*
X5583333Y90200D02*
X5678571Y42581D01*
X5678571Y42581D02*
X5869047Y42581D01*
X5869047Y42581D02*
X5964285Y90200D01*
X5964285Y90200D02*
X6011904Y137820D01*
X6011904Y137820D02*
X6059523Y233058D01*
X6059523Y233058D02*
X6059523Y1042581D01*
X6488095Y947343D02*
X6535714Y994962D01*
X6535714Y994962D02*
X6630952Y1042581D01*
X6630952Y1042581D02*
X6869047Y1042581D01*
X6869047Y1042581D02*
X6964285Y994962D01*
X6964285Y994962D02*
X7011904Y947343D01*
X7011904Y947343D02*
X7059523Y852105D01*
X7059523Y852105D02*
X7059523Y756867D01*
X7059523Y756867D02*
X7011904Y614010D01*
X7011904Y614010D02*
X6440476Y42581D01*
X6440476Y42581D02*
X7059523Y42581D01*
X-21042581Y16333334D02*
X-21518772Y16000001D01*
X-21042581Y15761906D02*
X-22042581Y15761906D01*
X-22042581Y15761906D02*
X-22042581Y16142858D01*
X-22042581Y16142858D02*
X-21994962Y16238096D01*
X-21994962Y16238096D02*
X-21947343Y16285715D01*
X-21947343Y16285715D02*
X-21852105Y16333334D01*
X-21852105Y16333334D02*
X-21709248Y16333334D01*
X-21709248Y16333334D02*
X-21614010Y16285715D01*
X-21614010Y16285715D02*
X-21566391Y16238096D01*
X-21566391Y16238096D02*
X-21518772Y16142858D01*
X-21518772Y16142858D02*
X-21518772Y15761906D01*
X-22042581Y17190477D02*
X-22042581Y17000001D01*
X-22042581Y17000001D02*
X-21994962Y16904763D01*
X-21994962Y16904763D02*
X-21947343Y16857144D01*
X-21947343Y16857144D02*
X-21804486Y16761906D01*
X-21804486Y16761906D02*
X-21614010Y16714287D01*
X-21614010Y16714287D02*
X-21233058Y16714287D01*
X-21233058Y16714287D02*
X-21137820Y16761906D01*
X-21137820Y16761906D02*
X-21090200Y16809525D01*
X-21090200Y16809525D02*
X-21042581Y16904763D01*
X-21042581Y16904763D02*
X-21042581Y17095239D01*
X-21042581Y17095239D02*
X-21090200Y17190477D01*
X-21090200Y17190477D02*
X-21137820Y17238096D01*
X-21137820Y17238096D02*
X-21233058Y17285715D01*
X-21233058Y17285715D02*
X-21471153Y17285715D01*
X-21471153Y17285715D02*
X-21566391Y17238096D01*
X-21566391Y17238096D02*
X-21614010Y17190477D01*
X-21614010Y17190477D02*
X-21661629Y17095239D01*
X-21661629Y17095239D02*
X-21661629Y16904763D01*
X-21661629Y16904763D02*
X-21614010Y16809525D01*
X-21614010Y16809525D02*
X-21566391Y16761906D01*
X-21566391Y16761906D02*
X-21471153Y16714287D01*
X20362180Y4857143D02*
X20409800Y4809524D01*
X20409800Y4809524D02*
X20457419Y4666667D01*
X20457419Y4666667D02*
X20457419Y4571429D01*
X20457419Y4571429D02*
X20409800Y4428572D01*
X20409800Y4428572D02*
X20314561Y4333334D01*
X20314561Y4333334D02*
X20219323Y4285715D01*
X20219323Y4285715D02*
X20028847Y4238096D01*
X20028847Y4238096D02*
X19885990Y4238096D01*
X19885990Y4238096D02*
X19695514Y4285715D01*
X19695514Y4285715D02*
X19600276Y4333334D01*
X19600276Y4333334D02*
X19505038Y4428572D01*
X19505038Y4428572D02*
X19457419Y4571429D01*
X19457419Y4571429D02*
X19457419Y4666667D01*
X19457419Y4666667D02*
X19505038Y4809524D01*
X19505038Y4809524D02*
X19552657Y4857143D01*
X20457419Y5809524D02*
X20457419Y5238096D01*
X20457419Y5523810D02*
X19457419Y5523810D01*
X19457419Y5523810D02*
X19600276Y5428572D01*
X19600276Y5428572D02*
X19695514Y5333334D01*
X19695514Y5333334D02*
X19743133Y5238096D01*
X19457419Y6142858D02*
X19457419Y6761905D01*
X19457419Y6761905D02*
X19838371Y6428572D01*
X19838371Y6428572D02*
X19838371Y6571429D01*
X19838371Y6571429D02*
X19885990Y6666667D01*
X19885990Y6666667D02*
X19933609Y6714286D01*
X19933609Y6714286D02*
X20028847Y6761905D01*
X20028847Y6761905D02*
X20266942Y6761905D01*
X20266942Y6761905D02*
X20362180Y6714286D01*
X20362180Y6714286D02*
X20409800Y6666667D01*
X20409800Y6666667D02*
X20457419Y6571429D01*
X20457419Y6571429D02*
X20457419Y6285715D01*
X20457419Y6285715D02*
X20409800Y6190477D01*
X20409800Y6190477D02*
X20362180Y6142858D01*
X24261905Y-11457419D02*
X24261905Y-10457419D01*
X24261905Y-10457419D02*
X24500000Y-10457419D01*
X24500000Y-10457419D02*
X24642857Y-10505038D01*
X24642857Y-10505038D02*
X24738095Y-10600276D01*
X24738095Y-10600276D02*
X24785714Y-10695514D01*
X24785714Y-10695514D02*
X24833333Y-10885990D01*
X24833333Y-10885990D02*
X24833333Y-11028847D01*
X24833333Y-11028847D02*
X24785714Y-11219323D01*
X24785714Y-11219323D02*
X24738095Y-11314561D01*
X24738095Y-11314561D02*
X24642857Y-11409800D01*
X24642857Y-11409800D02*
X24500000Y-11457419D01*
X24500000Y-11457419D02*
X24261905Y-11457419D01*
X25690476Y-10457419D02*
X25500000Y-10457419D01*
X25500000Y-10457419D02*
X25404762Y-10505038D01*
X25404762Y-10505038D02*
X25357143Y-10552657D01*
X25357143Y-10552657D02*
X25261905Y-10695514D01*
X25261905Y-10695514D02*
X25214286Y-10885990D01*
X25214286Y-10885990D02*
X25214286Y-11266942D01*
X25214286Y-11266942D02*
X25261905Y-11362180D01*
X25261905Y-11362180D02*
X25309524Y-11409800D01*
X25309524Y-11409800D02*
X25404762Y-11457419D01*
X25404762Y-11457419D02*
X25595238Y-11457419D01*
X25595238Y-11457419D02*
X25690476Y-11409800D01*
X25690476Y-11409800D02*
X25738095Y-11362180D01*
X25738095Y-11362180D02*
X25785714Y-11266942D01*
X25785714Y-11266942D02*
X25785714Y-11028847D01*
X25785714Y-11028847D02*
X25738095Y-10933609D01*
X25738095Y-10933609D02*
X25690476Y-10885990D01*
X25690476Y-10885990D02*
X25595238Y-10838371D01*
X25595238Y-10838371D02*
X25404762Y-10838371D01*
X25404762Y-10838371D02*
X25309524Y-10885990D01*
X25309524Y-10885990D02*
X25261905Y-10933609D01*
X25261905Y-10933609D02*
X25214286Y-11028847D01*
X24261905Y542581D02*
X24261905Y1542581D01*
X24261905Y1542581D02*
X24500000Y1542581D01*
X24500000Y1542581D02*
X24642857Y1494962D01*
X24642857Y1494962D02*
X24738095Y1399724D01*
X24738095Y1399724D02*
X24785714Y1304486D01*
X24785714Y1304486D02*
X24833333Y1114010D01*
X24833333Y1114010D02*
X24833333Y971153D01*
X24833333Y971153D02*
X24785714Y780677D01*
X24785714Y780677D02*
X24738095Y685439D01*
X24738095Y685439D02*
X24642857Y590200D01*
X24642857Y590200D02*
X24500000Y542581D01*
X24500000Y542581D02*
X24261905Y542581D01*
X25309524Y542581D02*
X25500000Y542581D01*
X25500000Y542581D02*
X25595238Y590200D01*
X25595238Y590200D02*
X25642857Y637820D01*
X25642857Y637820D02*
X25738095Y780677D01*
X25738095Y780677D02*
X25785714Y971153D01*
X25785714Y971153D02*
X25785714Y1352105D01*
X25785714Y1352105D02*
X25738095Y1447343D01*
X25738095Y1447343D02*
X25690476Y1494962D01*
X25690476Y1494962D02*
X25595238Y1542581D01*
X25595238Y1542581D02*
X25404762Y1542581D01*
X25404762Y1542581D02*
X25309524Y1494962D01*
X25309524Y1494962D02*
X25261905Y1447343D01*
X25261905Y1447343D02*
X25214286Y1352105D01*
X25214286Y1352105D02*
X25214286Y1114010D01*
X25214286Y1114010D02*
X25261905Y1018772D01*
X25261905Y1018772D02*
X25309524Y971153D01*
X25309524Y971153D02*
X25404762Y923534D01*
X25404762Y923534D02*
X25595238Y923534D01*
X25595238Y923534D02*
X25690476Y971153D01*
X25690476Y971153D02*
X25738095Y1018772D01*
X25738095Y1018772D02*
X25785714Y1114010D01*
X-17416667Y19542581D02*
X-17892857Y19542581D01*
X-17892857Y19542581D02*
X-17892857Y20542581D01*
X-16559524Y19542581D02*
X-17130952Y19542581D01*
X-16845238Y19542581D02*
X-16845238Y20542581D01*
X-16845238Y20542581D02*
X-16940476Y20399724D01*
X-16940476Y20399724D02*
X-17035714Y20304486D01*
X-17035714Y20304486D02*
X-17130952Y20256867D01*
X-1387820Y5333334D02*
X-1340200Y5285715D01*
X-1340200Y5285715D02*
X-1292581Y5142858D01*
X-1292581Y5142858D02*
X-1292581Y5047620D01*
X-1292581Y5047620D02*
X-1340200Y4904763D01*
X-1340200Y4904763D02*
X-1435439Y4809525D01*
X-1435439Y4809525D02*
X-1530677Y4761906D01*
X-1530677Y4761906D02*
X-1721153Y4714287D01*
X-1721153Y4714287D02*
X-1864010Y4714287D01*
X-1864010Y4714287D02*
X-2054486Y4761906D01*
X-2054486Y4761906D02*
X-2149724Y4809525D01*
X-2149724Y4809525D02*
X-2244962Y4904763D01*
X-2244962Y4904763D02*
X-2292581Y5047620D01*
X-2292581Y5047620D02*
X-2292581Y5142858D01*
X-2292581Y5142858D02*
X-2244962Y5285715D01*
X-2244962Y5285715D02*
X-2197343Y5333334D01*
X-2292581Y6238096D02*
X-2292581Y5761906D01*
X-2292581Y5761906D02*
X-1816391Y5714287D01*
X-1816391Y5714287D02*
X-1864010Y5761906D01*
X-1864010Y5761906D02*
X-1911629Y5857144D01*
X-1911629Y5857144D02*
X-1911629Y6095239D01*
X-1911629Y6095239D02*
X-1864010Y6190477D01*
X-1864010Y6190477D02*
X-1816391Y6238096D01*
X-1816391Y6238096D02*
X-1721153Y6285715D01*
X-1721153Y6285715D02*
X-1483058Y6285715D01*
X-1483058Y6285715D02*
X-1387820Y6238096D01*
X-1387820Y6238096D02*
X-1340200Y6190477D01*
X-1340200Y6190477D02*
X-1292581Y6095239D01*
X-1292581Y6095239D02*
X-1292581Y5857144D01*
X-1292581Y5857144D02*
X-1340200Y5761906D01*
X-1340200Y5761906D02*
X-1387820Y5714287D01*
X29535714Y14042581D02*
X29535714Y15042581D01*
X29535714Y15042581D02*
X29773809Y15042581D01*
X29773809Y15042581D02*
X29916666Y14994962D01*
X29916666Y14994962D02*
X30011904Y14899724D01*
X30011904Y14899724D02*
X30059523Y14804486D01*
X30059523Y14804486D02*
X30107142Y14614010D01*
X30107142Y14614010D02*
X30107142Y14471153D01*
X30107142Y14471153D02*
X30059523Y14280677D01*
X30059523Y14280677D02*
X30011904Y14185439D01*
X30011904Y14185439D02*
X29916666Y14090200D01*
X29916666Y14090200D02*
X29773809Y14042581D01*
X29773809Y14042581D02*
X29535714Y14042581D01*
X31059523Y14042581D02*
X30488095Y14042581D01*
X30773809Y14042581D02*
X30773809Y15042581D01*
X30773809Y15042581D02*
X30678571Y14899724D01*
X30678571Y14899724D02*
X30583333Y14804486D01*
X30583333Y14804486D02*
X30488095Y14756867D01*
X31440476Y14947343D02*
X31488095Y14994962D01*
X31488095Y14994962D02*
X31583333Y15042581D01*
X31583333Y15042581D02*
X31821428Y15042581D01*
X31821428Y15042581D02*
X31916666Y14994962D01*
X31916666Y14994962D02*
X31964285Y14947343D01*
X31964285Y14947343D02*
X32011904Y14852105D01*
X32011904Y14852105D02*
X32011904Y14756867D01*
X32011904Y14756867D02*
X31964285Y14614010D01*
X31964285Y14614010D02*
X31392857Y14042581D01*
X31392857Y14042581D02*
X32011904Y14042581D01*
X4612180Y4357143D02*
X4659800Y4309524D01*
X4659800Y4309524D02*
X4707419Y4166667D01*
X4707419Y4166667D02*
X4707419Y4071429D01*
X4707419Y4071429D02*
X4659800Y3928572D01*
X4659800Y3928572D02*
X4564561Y3833334D01*
X4564561Y3833334D02*
X4469323Y3785715D01*
X4469323Y3785715D02*
X4278847Y3738096D01*
X4278847Y3738096D02*
X4135990Y3738096D01*
X4135990Y3738096D02*
X3945514Y3785715D01*
X3945514Y3785715D02*
X3850276Y3833334D01*
X3850276Y3833334D02*
X3755038Y3928572D01*
X3755038Y3928572D02*
X3707419Y4071429D01*
X3707419Y4071429D02*
X3707419Y4166667D01*
X3707419Y4166667D02*
X3755038Y4309524D01*
X3755038Y4309524D02*
X3802657Y4357143D01*
X4707419Y5309524D02*
X4707419Y4738096D01*
X4707419Y5023810D02*
X3707419Y5023810D01*
X3707419Y5023810D02*
X3850276Y4928572D01*
X3850276Y4928572D02*
X3945514Y4833334D01*
X3945514Y4833334D02*
X3993133Y4738096D01*
X3707419Y5928572D02*
X3707419Y6023810D01*
X3707419Y6023810D02*
X3755038Y6119048D01*
X3755038Y6119048D02*
X3802657Y6166667D01*
X3802657Y6166667D02*
X3897895Y6214286D01*
X3897895Y6214286D02*
X4088371Y6261905D01*
X4088371Y6261905D02*
X4326466Y6261905D01*
X4326466Y6261905D02*
X4516942Y6214286D01*
X4516942Y6214286D02*
X4612180Y6166667D01*
X4612180Y6166667D02*
X4659800Y6119048D01*
X4659800Y6119048D02*
X4707419Y6023810D01*
X4707419Y6023810D02*
X4707419Y5928572D01*
X4707419Y5928572D02*
X4659800Y5833334D01*
X4659800Y5833334D02*
X4612180Y5785715D01*
X4612180Y5785715D02*
X4516942Y5738096D01*
X4516942Y5738096D02*
X4326466Y5690477D01*
X4326466Y5690477D02*
X4088371Y5690477D01*
X4088371Y5690477D02*
X3897895Y5738096D01*
X3897895Y5738096D02*
X3802657Y5785715D01*
X3802657Y5785715D02*
X3755038Y5833334D01*
X3755038Y5833334D02*
X3707419Y5928572D01*
X-5988095Y-3457419D02*
X-5988095Y-2457419D01*
X-5988095Y-2457419D02*
X-5750000Y-2457419D01*
X-5750000Y-2457419D02*
X-5607143Y-2505038D01*
X-5607143Y-2505038D02*
X-5511905Y-2600276D01*
X-5511905Y-2600276D02*
X-5464286Y-2695514D01*
X-5464286Y-2695514D02*
X-5416667Y-2885990D01*
X-5416667Y-2885990D02*
X-5416667Y-3028847D01*
X-5416667Y-3028847D02*
X-5464286Y-3219323D01*
X-5464286Y-3219323D02*
X-5511905Y-3314561D01*
X-5511905Y-3314561D02*
X-5607143Y-3409800D01*
X-5607143Y-3409800D02*
X-5750000Y-3457419D01*
X-5750000Y-3457419D02*
X-5988095Y-3457419D01*
X-5083333Y-2457419D02*
X-4464286Y-2457419D01*
X-4464286Y-2457419D02*
X-4797619Y-2838371D01*
X-4797619Y-2838371D02*
X-4654762Y-2838371D01*
X-4654762Y-2838371D02*
X-4559524Y-2885990D01*
X-4559524Y-2885990D02*
X-4511905Y-2933609D01*
X-4511905Y-2933609D02*
X-4464286Y-3028847D01*
X-4464286Y-3028847D02*
X-4464286Y-3266942D01*
X-4464286Y-3266942D02*
X-4511905Y-3362180D01*
X-4511905Y-3362180D02*
X-4559524Y-3409800D01*
X-4559524Y-3409800D02*
X-4654762Y-3457419D01*
X-4654762Y-3457419D02*
X-4940476Y-3457419D01*
X-4940476Y-3457419D02*
X-5035714Y-3409800D01*
X-5035714Y-3409800D02*
X-5083333Y-3362180D01*
X707419Y16357143D02*
X231228Y16023810D01*
X707419Y15785715D02*
X-292581Y15785715D01*
X-292581Y15785715D02*
X-292581Y16166667D01*
X-292581Y16166667D02*
X-244962Y16261905D01*
X-244962Y16261905D02*
X-197343Y16309524D01*
X-197343Y16309524D02*
X-102105Y16357143D01*
X-102105Y16357143D02*
X40752Y16357143D01*
X40752Y16357143D02*
X135990Y16309524D01*
X135990Y16309524D02*
X183609Y16261905D01*
X183609Y16261905D02*
X231228Y16166667D01*
X231228Y16166667D02*
X231228Y15785715D01*
X707419Y17309524D02*
X707419Y16738096D01*
X707419Y17023810D02*
X-292581Y17023810D01*
X-292581Y17023810D02*
X-149724Y16928572D01*
X-149724Y16928572D02*
X-54486Y16833334D01*
X-54486Y16833334D02*
X-6867Y16738096D01*
X-292581Y17928572D02*
X-292581Y18023810D01*
X-292581Y18023810D02*
X-244962Y18119048D01*
X-244962Y18119048D02*
X-197343Y18166667D01*
X-197343Y18166667D02*
X-102105Y18214286D01*
X-102105Y18214286D02*
X88371Y18261905D01*
X88371Y18261905D02*
X326466Y18261905D01*
X326466Y18261905D02*
X516942Y18214286D01*
X516942Y18214286D02*
X612180Y18166667D01*
X612180Y18166667D02*
X659800Y18119048D01*
X659800Y18119048D02*
X707419Y18023810D01*
X707419Y18023810D02*
X707419Y17928572D01*
X707419Y17928572D02*
X659800Y17833334D01*
X659800Y17833334D02*
X612180Y17785715D01*
X612180Y17785715D02*
X516942Y17738096D01*
X516942Y17738096D02*
X326466Y17690477D01*
X326466Y17690477D02*
X88371Y17690477D01*
X88371Y17690477D02*
X-102105Y17738096D01*
X-102105Y17738096D02*
X-197343Y17785715D01*
X-197343Y17785715D02*
X-244962Y17833334D01*
X-244962Y17833334D02*
X-292581Y17928572D01*
X-19137820Y10333334D02*
X-19090200Y10285715D01*
X-19090200Y10285715D02*
X-19042581Y10142858D01*
X-19042581Y10142858D02*
X-19042581Y10047620D01*
X-19042581Y10047620D02*
X-19090200Y9904763D01*
X-19090200Y9904763D02*
X-19185439Y9809525D01*
X-19185439Y9809525D02*
X-19280677Y9761906D01*
X-19280677Y9761906D02*
X-19471153Y9714287D01*
X-19471153Y9714287D02*
X-19614010Y9714287D01*
X-19614010Y9714287D02*
X-19804486Y9761906D01*
X-19804486Y9761906D02*
X-19899724Y9809525D01*
X-19899724Y9809525D02*
X-19994962Y9904763D01*
X-19994962Y9904763D02*
X-20042581Y10047620D01*
X-20042581Y10047620D02*
X-20042581Y10142858D01*
X-20042581Y10142858D02*
X-19994962Y10285715D01*
X-19994962Y10285715D02*
X-19947343Y10333334D01*
X-20042581Y10666668D02*
X-20042581Y11333334D01*
X-20042581Y11333334D02*
X-19042581Y10904763D01*
X29535714Y12042581D02*
X29535714Y13042581D01*
X29535714Y13042581D02*
X29773809Y13042581D01*
X29773809Y13042581D02*
X29916666Y12994962D01*
X29916666Y12994962D02*
X30011904Y12899724D01*
X30011904Y12899724D02*
X30059523Y12804486D01*
X30059523Y12804486D02*
X30107142Y12614010D01*
X30107142Y12614010D02*
X30107142Y12471153D01*
X30107142Y12471153D02*
X30059523Y12280677D01*
X30059523Y12280677D02*
X30011904Y12185439D01*
X30011904Y12185439D02*
X29916666Y12090200D01*
X29916666Y12090200D02*
X29773809Y12042581D01*
X29773809Y12042581D02*
X29535714Y12042581D01*
X31059523Y12042581D02*
X30488095Y12042581D01*
X30773809Y12042581D02*
X30773809Y13042581D01*
X30773809Y13042581D02*
X30678571Y12899724D01*
X30678571Y12899724D02*
X30583333Y12804486D01*
X30583333Y12804486D02*
X30488095Y12756867D01*
X31392857Y13042581D02*
X32011904Y13042581D01*
X32011904Y13042581D02*
X31678571Y12661629D01*
X31678571Y12661629D02*
X31821428Y12661629D01*
X31821428Y12661629D02*
X31916666Y12614010D01*
X31916666Y12614010D02*
X31964285Y12566391D01*
X31964285Y12566391D02*
X32011904Y12471153D01*
X32011904Y12471153D02*
X32011904Y12233058D01*
X32011904Y12233058D02*
X31964285Y12137820D01*
X31964285Y12137820D02*
X31916666Y12090200D01*
X31916666Y12090200D02*
X31821428Y12042581D01*
X31821428Y12042581D02*
X31535714Y12042581D01*
X31535714Y12042581D02*
X31440476Y12090200D01*
X31440476Y12090200D02*
X31392857Y12137820D01*
X18166666Y-25957419D02*
X18166666Y-26671704D01*
X18166666Y-26671704D02*
X18119047Y-26814561D01*
X18119047Y-26814561D02*
X18023809Y-26909800D01*
X18023809Y-26909800D02*
X17880952Y-26957419D01*
X17880952Y-26957419D02*
X17785714Y-26957419D01*
X18547619Y-25957419D02*
X19166666Y-25957419D01*
X19166666Y-25957419D02*
X18833333Y-26338371D01*
X18833333Y-26338371D02*
X18976190Y-26338371D01*
X18976190Y-26338371D02*
X19071428Y-26385990D01*
X19071428Y-26385990D02*
X19119047Y-26433609D01*
X19119047Y-26433609D02*
X19166666Y-26528847D01*
X19166666Y-26528847D02*
X19166666Y-26766942D01*
X19166666Y-26766942D02*
X19119047Y-26862180D01*
X19119047Y-26862180D02*
X19071428Y-26909800D01*
X19071428Y-26909800D02*
X18976190Y-26957419D01*
X18976190Y-26957419D02*
X18690476Y-26957419D01*
X18690476Y-26957419D02*
X18595238Y-26909800D01*
X18595238Y-26909800D02*
X18547619Y-26862180D01*
X29535714Y16042581D02*
X29535714Y17042581D01*
X29535714Y17042581D02*
X29773809Y17042581D01*
X29773809Y17042581D02*
X29916666Y16994962D01*
X29916666Y16994962D02*
X30011904Y16899724D01*
X30011904Y16899724D02*
X30059523Y16804486D01*
X30059523Y16804486D02*
X30107142Y16614010D01*
X30107142Y16614010D02*
X30107142Y16471153D01*
X30107142Y16471153D02*
X30059523Y16280677D01*
X30059523Y16280677D02*
X30011904Y16185439D01*
X30011904Y16185439D02*
X29916666Y16090200D01*
X29916666Y16090200D02*
X29773809Y16042581D01*
X29773809Y16042581D02*
X29535714Y16042581D01*
X31059523Y16042581D02*
X30488095Y16042581D01*
X30773809Y16042581D02*
X30773809Y17042581D01*
X30773809Y17042581D02*
X30678571Y16899724D01*
X30678571Y16899724D02*
X30583333Y16804486D01*
X30583333Y16804486D02*
X30488095Y16756867D01*
X32011904Y16042581D02*
X31440476Y16042581D01*
X31726190Y16042581D02*
X31726190Y17042581D01*
X31726190Y17042581D02*
X31630952Y16899724D01*
X31630952Y16899724D02*
X31535714Y16804486D01*
X31535714Y16804486D02*
X31440476Y16756867D01*
X-20488095Y-3457419D02*
X-20488095Y-2457419D01*
X-20488095Y-2457419D02*
X-20250000Y-2457419D01*
X-20250000Y-2457419D02*
X-20107143Y-2505038D01*
X-20107143Y-2505038D02*
X-20011905Y-2600276D01*
X-20011905Y-2600276D02*
X-19964286Y-2695514D01*
X-19964286Y-2695514D02*
X-19916667Y-2885990D01*
X-19916667Y-2885990D02*
X-19916667Y-3028847D01*
X-19916667Y-3028847D02*
X-19964286Y-3219323D01*
X-19964286Y-3219323D02*
X-20011905Y-3314561D01*
X-20011905Y-3314561D02*
X-20107143Y-3409800D01*
X-20107143Y-3409800D02*
X-20250000Y-3457419D01*
X-20250000Y-3457419D02*
X-20488095Y-3457419D01*
X-18964286Y-3457419D02*
X-19535714Y-3457419D01*
X-19250000Y-3457419D02*
X-19250000Y-2457419D01*
X-19250000Y-2457419D02*
X-19345238Y-2600276D01*
X-19345238Y-2600276D02*
X-19440476Y-2695514D01*
X-19440476Y-2695514D02*
X-19535714Y-2743133D01*
X-21137820Y10333334D02*
X-21090200Y10285715D01*
X-21090200Y10285715D02*
X-21042581Y10142858D01*
X-21042581Y10142858D02*
X-21042581Y10047620D01*
X-21042581Y10047620D02*
X-21090200Y9904763D01*
X-21090200Y9904763D02*
X-21185439Y9809525D01*
X-21185439Y9809525D02*
X-21280677Y9761906D01*
X-21280677Y9761906D02*
X-21471153Y9714287D01*
X-21471153Y9714287D02*
X-21614010Y9714287D01*
X-21614010Y9714287D02*
X-21804486Y9761906D01*
X-21804486Y9761906D02*
X-21899724Y9809525D01*
X-21899724Y9809525D02*
X-21994962Y9904763D01*
X-21994962Y9904763D02*
X-22042581Y10047620D01*
X-22042581Y10047620D02*
X-22042581Y10142858D01*
X-22042581Y10142858D02*
X-21994962Y10285715D01*
X-21994962Y10285715D02*
X-21947343Y10333334D01*
X-21614010Y10904763D02*
X-21661629Y10809525D01*
X-21661629Y10809525D02*
X-21709248Y10761906D01*
X-21709248Y10761906D02*
X-21804486Y10714287D01*
X-21804486Y10714287D02*
X-21852105Y10714287D01*
X-21852105Y10714287D02*
X-21947343Y10761906D01*
X-21947343Y10761906D02*
X-21994962Y10809525D01*
X-21994962Y10809525D02*
X-22042581Y10904763D01*
X-22042581Y10904763D02*
X-22042581Y11095239D01*
X-22042581Y11095239D02*
X-21994962Y11190477D01*
X-21994962Y11190477D02*
X-21947343Y11238096D01*
X-21947343Y11238096D02*
X-21852105Y11285715D01*
X-21852105Y11285715D02*
X-21804486Y11285715D01*
X-21804486Y11285715D02*
X-21709248Y11238096D01*
X-21709248Y11238096D02*
X-21661629Y11190477D01*
X-21661629Y11190477D02*
X-21614010Y11095239D01*
X-21614010Y11095239D02*
X-21614010Y10904763D01*
X-21614010Y10904763D02*
X-21566391Y10809525D01*
X-21566391Y10809525D02*
X-21518772Y10761906D01*
X-21518772Y10761906D02*
X-21423534Y10714287D01*
X-21423534Y10714287D02*
X-21233058Y10714287D01*
X-21233058Y10714287D02*
X-21137820Y10761906D01*
X-21137820Y10761906D02*
X-21090200Y10809525D01*
X-21090200Y10809525D02*
X-21042581Y10904763D01*
X-21042581Y10904763D02*
X-21042581Y11095239D01*
X-21042581Y11095239D02*
X-21090200Y11190477D01*
X-21090200Y11190477D02*
X-21137820Y11238096D01*
X-21137820Y11238096D02*
X-21233058Y11285715D01*
X-21233058Y11285715D02*
X-21423534Y11285715D01*
X-21423534Y11285715D02*
X-21518772Y11238096D01*
X-21518772Y11238096D02*
X-21566391Y11190477D01*
X-21566391Y11190477D02*
X-21614010Y11095239D01*
X2612180Y10357143D02*
X2659800Y10309524D01*
X2659800Y10309524D02*
X2707419Y10166667D01*
X2707419Y10166667D02*
X2707419Y10071429D01*
X2707419Y10071429D02*
X2659800Y9928572D01*
X2659800Y9928572D02*
X2564561Y9833334D01*
X2564561Y9833334D02*
X2469323Y9785715D01*
X2469323Y9785715D02*
X2278847Y9738096D01*
X2278847Y9738096D02*
X2135990Y9738096D01*
X2135990Y9738096D02*
X1945514Y9785715D01*
X1945514Y9785715D02*
X1850276Y9833334D01*
X1850276Y9833334D02*
X1755038Y9928572D01*
X1755038Y9928572D02*
X1707419Y10071429D01*
X1707419Y10071429D02*
X1707419Y10166667D01*
X1707419Y10166667D02*
X1755038Y10309524D01*
X1755038Y10309524D02*
X1802657Y10357143D01*
X2707419Y11309524D02*
X2707419Y10738096D01*
X2707419Y11023810D02*
X1707419Y11023810D01*
X1707419Y11023810D02*
X1850276Y10928572D01*
X1850276Y10928572D02*
X1945514Y10833334D01*
X1945514Y10833334D02*
X1993133Y10738096D01*
X1707419Y12214286D02*
X1707419Y11738096D01*
X1707419Y11738096D02*
X2183609Y11690477D01*
X2183609Y11690477D02*
X2135990Y11738096D01*
X2135990Y11738096D02*
X2088371Y11833334D01*
X2088371Y11833334D02*
X2088371Y12071429D01*
X2088371Y12071429D02*
X2135990Y12166667D01*
X2135990Y12166667D02*
X2183609Y12214286D01*
X2183609Y12214286D02*
X2278847Y12261905D01*
X2278847Y12261905D02*
X2516942Y12261905D01*
X2516942Y12261905D02*
X2612180Y12214286D01*
X2612180Y12214286D02*
X2659800Y12166667D01*
X2659800Y12166667D02*
X2707419Y12071429D01*
X2707419Y12071429D02*
X2707419Y11833334D01*
X2707419Y11833334D02*
X2659800Y11738096D01*
X2659800Y11738096D02*
X2612180Y11690477D01*
X2707419Y16333334D02*
X2231228Y16000001D01*
X2707419Y15761906D02*
X1707419Y15761906D01*
X1707419Y15761906D02*
X1707419Y16142858D01*
X1707419Y16142858D02*
X1755038Y16238096D01*
X1755038Y16238096D02*
X1802657Y16285715D01*
X1802657Y16285715D02*
X1897895Y16333334D01*
X1897895Y16333334D02*
X2040752Y16333334D01*
X2040752Y16333334D02*
X2135990Y16285715D01*
X2135990Y16285715D02*
X2183609Y16238096D01*
X2183609Y16238096D02*
X2231228Y16142858D01*
X2231228Y16142858D02*
X2231228Y15761906D01*
X2707419Y16809525D02*
X2707419Y17000001D01*
X2707419Y17000001D02*
X2659800Y17095239D01*
X2659800Y17095239D02*
X2612180Y17142858D01*
X2612180Y17142858D02*
X2469323Y17238096D01*
X2469323Y17238096D02*
X2278847Y17285715D01*
X2278847Y17285715D02*
X1897895Y17285715D01*
X1897895Y17285715D02*
X1802657Y17238096D01*
X1802657Y17238096D02*
X1755038Y17190477D01*
X1755038Y17190477D02*
X1707419Y17095239D01*
X1707419Y17095239D02*
X1707419Y16904763D01*
X1707419Y16904763D02*
X1755038Y16809525D01*
X1755038Y16809525D02*
X1802657Y16761906D01*
X1802657Y16761906D02*
X1897895Y16714287D01*
X1897895Y16714287D02*
X2135990Y16714287D01*
X2135990Y16714287D02*
X2231228Y16761906D01*
X2231228Y16761906D02*
X2278847Y16809525D01*
X2278847Y16809525D02*
X2326466Y16904763D01*
X2326466Y16904763D02*
X2326466Y17095239D01*
X2326466Y17095239D02*
X2278847Y17190477D01*
X2278847Y17190477D02*
X2231228Y17238096D01*
X2231228Y17238096D02*
X2135990Y17285715D01*
X16957419Y5333334D02*
X16481228Y5000001D01*
X16957419Y4761906D02*
X15957419Y4761906D01*
X15957419Y4761906D02*
X15957419Y5142858D01*
X15957419Y5142858D02*
X16005038Y5238096D01*
X16005038Y5238096D02*
X16052657Y5285715D01*
X16052657Y5285715D02*
X16147895Y5333334D01*
X16147895Y5333334D02*
X16290752Y5333334D01*
X16290752Y5333334D02*
X16385990Y5285715D01*
X16385990Y5285715D02*
X16433609Y5238096D01*
X16433609Y5238096D02*
X16481228Y5142858D01*
X16481228Y5142858D02*
X16481228Y4761906D01*
X16385990Y5904763D02*
X16338371Y5809525D01*
X16338371Y5809525D02*
X16290752Y5761906D01*
X16290752Y5761906D02*
X16195514Y5714287D01*
X16195514Y5714287D02*
X16147895Y5714287D01*
X16147895Y5714287D02*
X16052657Y5761906D01*
X16052657Y5761906D02*
X16005038Y5809525D01*
X16005038Y5809525D02*
X15957419Y5904763D01*
X15957419Y5904763D02*
X15957419Y6095239D01*
X15957419Y6095239D02*
X16005038Y6190477D01*
X16005038Y6190477D02*
X16052657Y6238096D01*
X16052657Y6238096D02*
X16147895Y6285715D01*
X16147895Y6285715D02*
X16195514Y6285715D01*
X16195514Y6285715D02*
X16290752Y6238096D01*
X16290752Y6238096D02*
X16338371Y6190477D01*
X16338371Y6190477D02*
X16385990Y6095239D01*
X16385990Y6095239D02*
X16385990Y5904763D01*
X16385990Y5904763D02*
X16433609Y5809525D01*
X16433609Y5809525D02*
X16481228Y5761906D01*
X16481228Y5761906D02*
X16576466Y5714287D01*
X16576466Y5714287D02*
X16766942Y5714287D01*
X16766942Y5714287D02*
X16862180Y5761906D01*
X16862180Y5761906D02*
X16909800Y5809525D01*
X16909800Y5809525D02*
X16957419Y5904763D01*
X16957419Y5904763D02*
X16957419Y6095239D01*
X16957419Y6095239D02*
X16909800Y6190477D01*
X16909800Y6190477D02*
X16862180Y6238096D01*
X16862180Y6238096D02*
X16766942Y6285715D01*
X16766942Y6285715D02*
X16576466Y6285715D01*
X16576466Y6285715D02*
X16481228Y6238096D01*
X16481228Y6238096D02*
X16433609Y6190477D01*
X16433609Y6190477D02*
X16385990Y6095239D01*
X-22833334Y18816391D02*
X-23166667Y18816391D01*
X-23166667Y18292581D02*
X-23166667Y19292581D01*
X-23166667Y19292581D02*
X-22690477Y19292581D01*
X-21785715Y18292581D02*
X-22357143Y18292581D01*
X-22071429Y18292581D02*
X-22071429Y19292581D01*
X-22071429Y19292581D02*
X-22166667Y19149724D01*
X-22166667Y19149724D02*
X-22261905Y19054486D01*
X-22261905Y19054486D02*
X-22357143Y19006867D01*
X-31934837Y9542581D02*
X-31363409Y9542581D01*
X-31649123Y8542581D02*
X-31649123Y9542581D01*
X-31030075Y8542581D02*
X-31030075Y9542581D01*
X-31030075Y9542581D02*
X-30649123Y9542581D01*
X-30649123Y9542581D02*
X-30553885Y9494962D01*
X-30553885Y9494962D02*
X-30506266Y9447343D01*
X-30506266Y9447343D02*
X-30458647Y9352105D01*
X-30458647Y9352105D02*
X-30458647Y9209248D01*
X-30458647Y9209248D02*
X-30506266Y9114010D01*
X-30506266Y9114010D02*
X-30553885Y9066391D01*
X-30553885Y9066391D02*
X-30649123Y9018772D01*
X-30649123Y9018772D02*
X-31030075Y9018772D01*
X-29553885Y9542581D02*
X-30030075Y9542581D01*
X-30030075Y9542581D02*
X-30077694Y9066391D01*
X-30077694Y9066391D02*
X-30030075Y9114010D01*
X-30030075Y9114010D02*
X-29934837Y9161629D01*
X-29934837Y9161629D02*
X-29696742Y9161629D01*
X-29696742Y9161629D02*
X-29601504Y9114010D01*
X-29601504Y9114010D02*
X-29553885Y9066391D01*
X-29553885Y9066391D02*
X-29506266Y8971153D01*
X-29506266Y8971153D02*
X-29506266Y8733058D01*
X-29506266Y8733058D02*
X-29553885Y8637820D01*
X-29553885Y8637820D02*
X-29601504Y8590200D01*
X-29601504Y8590200D02*
X-29696742Y8542581D01*
X-29696742Y8542581D02*
X-29934837Y8542581D01*
X-29934837Y8542581D02*
X-30030075Y8590200D01*
X-30030075Y8590200D02*
X-30077694Y8637820D01*
X24261905Y-7457419D02*
X24261905Y-6457419D01*
X24261905Y-6457419D02*
X24500000Y-6457419D01*
X24500000Y-6457419D02*
X24642857Y-6505038D01*
X24642857Y-6505038D02*
X24738095Y-6600276D01*
X24738095Y-6600276D02*
X24785714Y-6695514D01*
X24785714Y-6695514D02*
X24833333Y-6885990D01*
X24833333Y-6885990D02*
X24833333Y-7028847D01*
X24833333Y-7028847D02*
X24785714Y-7219323D01*
X24785714Y-7219323D02*
X24738095Y-7314561D01*
X24738095Y-7314561D02*
X24642857Y-7409800D01*
X24642857Y-7409800D02*
X24500000Y-7457419D01*
X24500000Y-7457419D02*
X24261905Y-7457419D01*
X25166667Y-6457419D02*
X25833333Y-6457419D01*
X25833333Y-6457419D02*
X25404762Y-7457419D01*
X-17137820Y16333334D02*
X-17090200Y16285715D01*
X-17090200Y16285715D02*
X-17042581Y16142858D01*
X-17042581Y16142858D02*
X-17042581Y16047620D01*
X-17042581Y16047620D02*
X-17090200Y15904763D01*
X-17090200Y15904763D02*
X-17185439Y15809525D01*
X-17185439Y15809525D02*
X-17280677Y15761906D01*
X-17280677Y15761906D02*
X-17471153Y15714287D01*
X-17471153Y15714287D02*
X-17614010Y15714287D01*
X-17614010Y15714287D02*
X-17804486Y15761906D01*
X-17804486Y15761906D02*
X-17899724Y15809525D01*
X-17899724Y15809525D02*
X-17994962Y15904763D01*
X-17994962Y15904763D02*
X-18042581Y16047620D01*
X-18042581Y16047620D02*
X-18042581Y16142858D01*
X-18042581Y16142858D02*
X-17994962Y16285715D01*
X-17994962Y16285715D02*
X-17947343Y16333334D01*
X-17042581Y16809525D02*
X-17042581Y17000001D01*
X-17042581Y17000001D02*
X-17090200Y17095239D01*
X-17090200Y17095239D02*
X-17137820Y17142858D01*
X-17137820Y17142858D02*
X-17280677Y17238096D01*
X-17280677Y17238096D02*
X-17471153Y17285715D01*
X-17471153Y17285715D02*
X-17852105Y17285715D01*
X-17852105Y17285715D02*
X-17947343Y17238096D01*
X-17947343Y17238096D02*
X-17994962Y17190477D01*
X-17994962Y17190477D02*
X-18042581Y17095239D01*
X-18042581Y17095239D02*
X-18042581Y16904763D01*
X-18042581Y16904763D02*
X-17994962Y16809525D01*
X-17994962Y16809525D02*
X-17947343Y16761906D01*
X-17947343Y16761906D02*
X-17852105Y16714287D01*
X-17852105Y16714287D02*
X-17614010Y16714287D01*
X-17614010Y16714287D02*
X-17518772Y16761906D01*
X-17518772Y16761906D02*
X-17471153Y16809525D01*
X-17471153Y16809525D02*
X-17423534Y16904763D01*
X-17423534Y16904763D02*
X-17423534Y17095239D01*
X-17423534Y17095239D02*
X-17471153Y17190477D01*
X-17471153Y17190477D02*
X-17518772Y17238096D01*
X-17518772Y17238096D02*
X-17614010Y17285715D01*
X-976191Y-1231228D02*
X-976191Y-1707419D01*
X-1309524Y-707419D02*
X-976191Y-1231228D01*
X-976191Y-1231228D02*
X-642858Y-707419D01*
X214285Y-1707419D02*
X-357143Y-1707419D01*
X-71429Y-1707419D02*
X-71429Y-707419D01*
X-71429Y-707419D02*
X-166667Y-850276D01*
X-166667Y-850276D02*
X-261905Y-945514D01*
X-261905Y-945514D02*
X-357143Y-993133D01*
X-31934837Y13042581D02*
X-31363409Y13042581D01*
X-31649123Y12042581D02*
X-31649123Y13042581D01*
X-31030075Y12042581D02*
X-31030075Y13042581D01*
X-31030075Y13042581D02*
X-30649123Y13042581D01*
X-30649123Y13042581D02*
X-30553885Y12994962D01*
X-30553885Y12994962D02*
X-30506266Y12947343D01*
X-30506266Y12947343D02*
X-30458647Y12852105D01*
X-30458647Y12852105D02*
X-30458647Y12709248D01*
X-30458647Y12709248D02*
X-30506266Y12614010D01*
X-30506266Y12614010D02*
X-30553885Y12566391D01*
X-30553885Y12566391D02*
X-30649123Y12518772D01*
X-30649123Y12518772D02*
X-31030075Y12518772D01*
X-29601504Y13042581D02*
X-29791980Y13042581D01*
X-29791980Y13042581D02*
X-29887218Y12994962D01*
X-29887218Y12994962D02*
X-29934837Y12947343D01*
X-29934837Y12947343D02*
X-30030075Y12804486D01*
X-30030075Y12804486D02*
X-30077694Y12614010D01*
X-30077694Y12614010D02*
X-30077694Y12233058D01*
X-30077694Y12233058D02*
X-30030075Y12137820D01*
X-30030075Y12137820D02*
X-29982456Y12090200D01*
X-29982456Y12090200D02*
X-29887218Y12042581D01*
X-29887218Y12042581D02*
X-29696742Y12042581D01*
X-29696742Y12042581D02*
X-29601504Y12090200D01*
X-29601504Y12090200D02*
X-29553885Y12137820D01*
X-29553885Y12137820D02*
X-29506266Y12233058D01*
X-29506266Y12233058D02*
X-29506266Y12471153D01*
X-29506266Y12471153D02*
X-29553885Y12566391D01*
X-29553885Y12566391D02*
X-29601504Y12614010D01*
X-29601504Y12614010D02*
X-29696742Y12661629D01*
X-29696742Y12661629D02*
X-29887218Y12661629D01*
X-29887218Y12661629D02*
X-29982456Y12614010D01*
X-29982456Y12614010D02*
X-30030075Y12566391D01*
X-30030075Y12566391D02*
X-30077694Y12471153D01*
X-17137820Y10333334D02*
X-17090200Y10285715D01*
X-17090200Y10285715D02*
X-17042581Y10142858D01*
X-17042581Y10142858D02*
X-17042581Y10047620D01*
X-17042581Y10047620D02*
X-17090200Y9904763D01*
X-17090200Y9904763D02*
X-17185439Y9809525D01*
X-17185439Y9809525D02*
X-17280677Y9761906D01*
X-17280677Y9761906D02*
X-17471153Y9714287D01*
X-17471153Y9714287D02*
X-17614010Y9714287D01*
X-17614010Y9714287D02*
X-17804486Y9761906D01*
X-17804486Y9761906D02*
X-17899724Y9809525D01*
X-17899724Y9809525D02*
X-17994962Y9904763D01*
X-17994962Y9904763D02*
X-18042581Y10047620D01*
X-18042581Y10047620D02*
X-18042581Y10142858D01*
X-18042581Y10142858D02*
X-17994962Y10285715D01*
X-17994962Y10285715D02*
X-17947343Y10333334D01*
X-18042581Y11190477D02*
X-18042581Y11000001D01*
X-18042581Y11000001D02*
X-17994962Y10904763D01*
X-17994962Y10904763D02*
X-17947343Y10857144D01*
X-17947343Y10857144D02*
X-17804486Y10761906D01*
X-17804486Y10761906D02*
X-17614010Y10714287D01*
X-17614010Y10714287D02*
X-17233058Y10714287D01*
X-17233058Y10714287D02*
X-17137820Y10761906D01*
X-17137820Y10761906D02*
X-17090200Y10809525D01*
X-17090200Y10809525D02*
X-17042581Y10904763D01*
X-17042581Y10904763D02*
X-17042581Y11095239D01*
X-17042581Y11095239D02*
X-17090200Y11190477D01*
X-17090200Y11190477D02*
X-17137820Y11238096D01*
X-17137820Y11238096D02*
X-17233058Y11285715D01*
X-17233058Y11285715D02*
X-17471153Y11285715D01*
X-17471153Y11285715D02*
X-17566391Y11238096D01*
X-17566391Y11238096D02*
X-17614010Y11190477D01*
X-17614010Y11190477D02*
X-17661629Y11095239D01*
X-17661629Y11095239D02*
X-17661629Y10904763D01*
X-17661629Y10904763D02*
X-17614010Y10809525D01*
X-17614010Y10809525D02*
X-17566391Y10761906D01*
X-17566391Y10761906D02*
X-17471153Y10714287D01*
X4612180Y10357143D02*
X4659800Y10309524D01*
X4659800Y10309524D02*
X4707419Y10166667D01*
X4707419Y10166667D02*
X4707419Y10071429D01*
X4707419Y10071429D02*
X4659800Y9928572D01*
X4659800Y9928572D02*
X4564561Y9833334D01*
X4564561Y9833334D02*
X4469323Y9785715D01*
X4469323Y9785715D02*
X4278847Y9738096D01*
X4278847Y9738096D02*
X4135990Y9738096D01*
X4135990Y9738096D02*
X3945514Y9785715D01*
X3945514Y9785715D02*
X3850276Y9833334D01*
X3850276Y9833334D02*
X3755038Y9928572D01*
X3755038Y9928572D02*
X3707419Y10071429D01*
X3707419Y10071429D02*
X3707419Y10166667D01*
X3707419Y10166667D02*
X3755038Y10309524D01*
X3755038Y10309524D02*
X3802657Y10357143D01*
X4707419Y11309524D02*
X4707419Y10738096D01*
X4707419Y11023810D02*
X3707419Y11023810D01*
X3707419Y11023810D02*
X3850276Y10928572D01*
X3850276Y10928572D02*
X3945514Y10833334D01*
X3945514Y10833334D02*
X3993133Y10738096D01*
X4040752Y12166667D02*
X4707419Y12166667D01*
X3659800Y11928572D02*
X4374085Y11690477D01*
X4374085Y11690477D02*
X4374085Y12309524D01*
X-31934837Y-4457419D02*
X-31363409Y-4457419D01*
X-31649123Y-5457419D02*
X-31649123Y-4457419D01*
X-31030075Y-5457419D02*
X-31030075Y-4457419D01*
X-31030075Y-4457419D02*
X-30649123Y-4457419D01*
X-30649123Y-4457419D02*
X-30553885Y-4505038D01*
X-30553885Y-4505038D02*
X-30506266Y-4552657D01*
X-30506266Y-4552657D02*
X-30458647Y-4647895D01*
X-30458647Y-4647895D02*
X-30458647Y-4790752D01*
X-30458647Y-4790752D02*
X-30506266Y-4885990D01*
X-30506266Y-4885990D02*
X-30553885Y-4933609D01*
X-30553885Y-4933609D02*
X-30649123Y-4981228D01*
X-30649123Y-4981228D02*
X-31030075Y-4981228D01*
X-29506266Y-5457419D02*
X-30077694Y-5457419D01*
X-29791980Y-5457419D02*
X-29791980Y-4457419D01*
X-29791980Y-4457419D02*
X-29887218Y-4600276D01*
X-29887218Y-4600276D02*
X-29982456Y-4695514D01*
X-29982456Y-4695514D02*
X-30077694Y-4743133D01*
X-13238095Y-3457419D02*
X-13238095Y-2457419D01*
X-13238095Y-2457419D02*
X-13000000Y-2457419D01*
X-13000000Y-2457419D02*
X-12857143Y-2505038D01*
X-12857143Y-2505038D02*
X-12761905Y-2600276D01*
X-12761905Y-2600276D02*
X-12714286Y-2695514D01*
X-12714286Y-2695514D02*
X-12666667Y-2885990D01*
X-12666667Y-2885990D02*
X-12666667Y-3028847D01*
X-12666667Y-3028847D02*
X-12714286Y-3219323D01*
X-12714286Y-3219323D02*
X-12761905Y-3314561D01*
X-12761905Y-3314561D02*
X-12857143Y-3409800D01*
X-12857143Y-3409800D02*
X-13000000Y-3457419D01*
X-13000000Y-3457419D02*
X-13238095Y-3457419D01*
X-12285714Y-2552657D02*
X-12238095Y-2505038D01*
X-12238095Y-2505038D02*
X-12142857Y-2457419D01*
X-12142857Y-2457419D02*
X-11904762Y-2457419D01*
X-11904762Y-2457419D02*
X-11809524Y-2505038D01*
X-11809524Y-2505038D02*
X-11761905Y-2552657D01*
X-11761905Y-2552657D02*
X-11714286Y-2647895D01*
X-11714286Y-2647895D02*
X-11714286Y-2743133D01*
X-11714286Y-2743133D02*
X-11761905Y-2885990D01*
X-11761905Y-2885990D02*
X-12333333Y-3457419D01*
X-12333333Y-3457419D02*
X-11714286Y-3457419D01*
%TO.C,SW1*%
X-23050000Y-19300000D02*
X-9450000Y-19300000D01*
X-23050000Y-24200000D02*
X-23050000Y-19300000D01*
X-21050000Y-27200000D02*
X-11450000Y-27200000D01*
X-20950000Y-18200000D02*
X-20950000Y-19300000D01*
X-16250000Y-18200000D02*
X-16250000Y-19300000D01*
X-11550000Y-18200000D02*
X-11550000Y-19300000D01*
X-9450000Y-19300000D02*
X-9450000Y-24200000D01*
%TO.C,C17*%
X4950000Y14800000D02*
X4950000Y13200000D01*
X3550000Y14800000D02*
X3550000Y13200000D01*
%TO.C,D14*%
X26250000Y11200000D02*
X29250000Y11200000D01*
X29250000Y11200000D02*
X29250000Y9800000D01*
X29250000Y9800000D02*
X26250000Y9800000D01*
%TO.C,C4*%
X-20800000Y2800000D02*
X-20800000Y1200000D01*
X-22200000Y2800000D02*
X-22200000Y1200000D01*
%TO.C,L2*%
X19000000Y7500000D02*
X6000000Y7500000D01*
X19000000Y11000000D02*
X19000000Y7500000D01*
X19000000Y17000000D02*
X19000000Y20500000D01*
X19000000Y20500000D02*
X6000000Y20500000D01*
X6000000Y7500000D02*
X6000000Y11000000D01*
X6000000Y20500000D02*
X6000000Y17000000D01*
%TO.C,C16*%
X-450000Y7200000D02*
X-450000Y8800000D01*
X950000Y7200000D02*
X950000Y8800000D01*
%TO.C,J2*%
X-450000Y-19300000D02*
X-2150000Y-19300000D01*
X-2150000Y-19300000D02*
X-2150000Y-21000000D01*
X3450000Y-19500000D02*
X-1950000Y-19500000D01*
X-1950000Y-27500000D01*
X3450000Y-27500000D01*
X3450000Y-19500000D01*
%TO.C,C3*%
X-18800000Y2800000D02*
X-18800000Y1200000D01*
X-20200000Y2800000D02*
X-20200000Y1200000D01*
%TO.C,C11*%
X2950000Y2800000D02*
X2950000Y1200000D01*
X1550000Y2800000D02*
X1550000Y1200000D01*
%TO.C,R4*%
X-6300000Y6300000D02*
X-6300000Y4700000D01*
X-7700000Y6300000D02*
X-7700000Y4700000D01*
%TO.C,U3*%
X13250000Y-10700000D02*
X13250000Y-11500000D01*
X13250000Y-20900000D02*
X13250000Y-21700000D01*
X13250000Y-21700000D02*
X19250000Y-21700000D01*
X19250000Y-10700000D02*
X13250000Y-10700000D01*
X19250000Y-11500000D02*
X19250000Y-10700000D01*
X19250000Y-21700000D02*
X19250000Y-20900000D01*
D11*
X13125000Y-10500000D02*
G75*
G02*
X12975000Y-10500000I-75000J0D01*
G01*
X12975000Y-10500000D02*
G75*
G02*
X13125000Y-10500000I75000J0D01*
G01*
D10*
%TO.C,J5*%
X26100000Y-19200000D02*
X26100000Y-20900000D01*
X26100000Y-20900000D02*
X27800000Y-20900000D01*
X26300000Y-15300000D02*
X31700000Y-15300000D01*
X31700000Y-20700000D01*
X26300000Y-20700000D01*
X26300000Y-15300000D01*
%TO.C,R3*%
X-6300000Y2800000D02*
X-6300000Y1200000D01*
X-7700000Y2800000D02*
X-7700000Y1200000D01*
%TO.C,D8*%
X31350000Y-4600000D02*
X31350000Y-1400000D01*
X31350000Y-4600000D02*
X26150000Y-4600000D01*
X31350000Y-1400000D02*
X26150000Y-1400000D01*
%TO.C,R5*%
X-18800000Y14800000D02*
X-18800000Y13200000D01*
X-20200000Y14800000D02*
X-20200000Y13200000D01*
%TO.C,D5*%
X21550000Y-18950000D02*
X21550000Y-15950000D01*
X21550000Y-15950000D02*
X22950000Y-15950000D01*
X22950000Y-15950000D02*
X22950000Y-18950000D01*
%TO.C,D10*%
X31350000Y3400000D02*
X31350000Y6600000D01*
X31350000Y3400000D02*
X26150000Y3400000D01*
X31350000Y6600000D02*
X26150000Y6600000D01*
%TO.C,U4*%
X7950000Y-9550000D02*
X7550000Y-9550000D01*
X950000Y-9550000D02*
X550000Y-9550000D01*
X550000Y-9550000D02*
X550000Y-9950000D01*
X7950000Y-9950000D02*
X7950000Y-9550000D01*
X7950000Y-16550000D02*
X7950000Y-16950000D01*
X550000Y-16550000D02*
X550000Y-16950000D01*
X7950000Y-16950000D02*
X7550000Y-16950000D01*
X550000Y-16950000D02*
X950000Y-16950000D01*
D11*
X8225000Y-9350000D02*
G75*
G02*
X8075000Y-9350000I-75000J0D01*
G01*
X8075000Y-9350000D02*
G75*
G02*
X8225000Y-9350000I75000J0D01*
G01*
D10*
%TO.C,R7*%
X15450000Y2800000D02*
X15450000Y1200000D01*
X14050000Y2800000D02*
X14050000Y1200000D01*
%TO.C,J1*%
X-29500000Y-11750000D02*
X-32200000Y-11750000D01*
X-29500000Y-16750000D02*
X-32200000Y-16750000D01*
X-24000000Y-9050000D02*
X-32200000Y-9050000D01*
X-32200000Y-19450000D01*
X-24000000Y-19450000D01*
X-24000000Y-9050000D01*
%TO.C,U1*%
X-10050000Y1050000D02*
X-10050000Y1350000D01*
X-10050000Y6150000D02*
X-10050000Y6450000D01*
X-10050000Y6450000D02*
X-14450000Y6450000D01*
X-14450000Y1050000D02*
X-10050000Y1050000D01*
X-14450000Y1350000D02*
X-14450000Y1050000D01*
X-14450000Y6450000D02*
X-14450000Y6150000D01*
D11*
X-9775000Y850000D02*
G75*
G02*
X-9925000Y850000I-75000J0D01*
G01*
X-9925000Y850000D02*
G75*
G02*
X-9775000Y850000I75000J0D01*
G01*
D10*
%TO.C,D4*%
X22950000Y-12200000D02*
X22950000Y-15200000D01*
X22950000Y-15200000D02*
X21550000Y-15200000D01*
X21550000Y-15200000D02*
X21550000Y-12200000D01*
%TO.C,C12*%
X950000Y2800000D02*
X950000Y1200000D01*
X-450000Y2800000D02*
X-450000Y1200000D01*
%TO.C,C2*%
X-16800000Y2800000D02*
X-16800000Y1200000D01*
X-18200000Y2800000D02*
X-18200000Y1200000D01*
%TO.C,U2*%
X11700000Y1050000D02*
X11700000Y1350000D01*
X11700000Y6150000D02*
X11700000Y6450000D01*
X11700000Y6450000D02*
X7300000Y6450000D01*
X7300000Y1050000D02*
X11700000Y1050000D01*
X7300000Y1350000D02*
X7300000Y1050000D01*
X7300000Y6450000D02*
X7300000Y6150000D01*
D11*
X11975000Y850000D02*
G75*
G02*
X11825000Y850000I-75000J0D01*
G01*
X11825000Y850000D02*
G75*
G02*
X11975000Y850000I75000J0D01*
G01*
D10*
%TO.C,R6*%
X-22200000Y13200000D02*
X-22200000Y14800000D01*
X-20800000Y13200000D02*
X-20800000Y14800000D01*
%TO.C,C13*%
X18950000Y6300000D02*
X18950000Y4700000D01*
X17550000Y6300000D02*
X17550000Y4700000D01*
%TO.C,D6*%
X31350000Y-12600000D02*
X31350000Y-9400000D01*
X31350000Y-12600000D02*
X26150000Y-12600000D01*
X31350000Y-9400000D02*
X26150000Y-9400000D01*
%TO.C,D9*%
X31350000Y-600000D02*
X31350000Y2600000D01*
X31350000Y-600000D02*
X26150000Y-600000D01*
X31350000Y2600000D02*
X26150000Y2600000D01*
%TO.C,L1*%
X-2750000Y7500000D02*
X-15750000Y7500000D01*
X-2750000Y11000000D02*
X-2750000Y7500000D01*
X-2750000Y17000000D02*
X-2750000Y20500000D01*
X-2750000Y20500000D02*
X-15750000Y20500000D01*
X-15750000Y7500000D02*
X-15750000Y11000000D01*
X-15750000Y20500000D02*
X-15750000Y17000000D01*
%TO.C,C5*%
X-2800000Y6300000D02*
X-2800000Y4700000D01*
X-4200000Y6300000D02*
X-4200000Y4700000D01*
%TO.C,D12*%
X26250000Y15200000D02*
X29250000Y15200000D01*
X29250000Y15200000D02*
X29250000Y13800000D01*
X29250000Y13800000D02*
X26250000Y13800000D01*
%TO.C,C10*%
X4950000Y2800000D02*
X4950000Y1200000D01*
X3550000Y2800000D02*
X3550000Y1200000D01*
%TO.C,D3*%
X-8550000Y-13650000D02*
X-8550000Y-3850000D01*
X-8550000Y-3850000D02*
X-1950000Y-3850000D01*
X-1950000Y-3850000D02*
X-1950000Y-13650000D01*
%TO.C,R10*%
X-450000Y13200000D02*
X-450000Y14800000D01*
X950000Y13200000D02*
X950000Y14800000D01*
%TO.C,C7*%
X-20200000Y7200000D02*
X-20200000Y8800000D01*
X-18800000Y7200000D02*
X-18800000Y8800000D01*
%TO.C,D13*%
X26250000Y13200000D02*
X29250000Y13200000D01*
X29250000Y13200000D02*
X29250000Y11800000D01*
X29250000Y11800000D02*
X26250000Y11800000D01*
%TO.C,J3*%
X8600000Y-23400000D02*
X8600000Y-25300000D01*
X10700000Y-23400000D02*
X8600000Y-23400000D01*
X14300000Y-23400000D02*
X16400000Y-23400000D01*
X16400000Y-23400000D02*
X16400000Y-25300000D01*
%TO.C,D11*%
X26250000Y17200000D02*
X29250000Y17200000D01*
X29250000Y17200000D02*
X29250000Y15800000D01*
X29250000Y15800000D02*
X26250000Y15800000D01*
%TO.C,D1*%
X-23050000Y-13650000D02*
X-23050000Y-3850000D01*
X-23050000Y-3850000D02*
X-16450000Y-3850000D01*
X-16450000Y-3850000D02*
X-16450000Y-13650000D01*
%TO.C,C8*%
X-22200000Y7200000D02*
X-22200000Y8800000D01*
X-20800000Y7200000D02*
X-20800000Y8800000D01*
%TO.C,C15*%
X1550000Y7200000D02*
X1550000Y8800000D01*
X2950000Y7200000D02*
X2950000Y8800000D01*
%TO.C,R9*%
X2950000Y14800000D02*
X2950000Y13200000D01*
X1550000Y14800000D02*
X1550000Y13200000D01*
%TO.C,R8*%
X15450000Y6300000D02*
X15450000Y4700000D01*
X14050000Y6300000D02*
X14050000Y4700000D01*
%TO.C,F1*%
X-29800000Y20650000D02*
X-25200000Y20650000D01*
X-29800000Y16850000D02*
X-25200000Y16850000D01*
%TO.C,D7*%
X31350000Y-8600000D02*
X31350000Y-5400000D01*
X31350000Y-8600000D02*
X26150000Y-8600000D01*
X31350000Y-5400000D02*
X26150000Y-5400000D01*
%TO.C,C9*%
X-16800000Y14800000D02*
X-16800000Y13200000D01*
X-18200000Y14800000D02*
X-18200000Y13200000D01*
%TO.C,Y1*%
X750000Y-900000D02*
X12750000Y-900000D01*
X750000Y-2400000D02*
X750000Y-900000D01*
X750000Y-4600000D02*
X750000Y-6100000D01*
X750000Y-6100000D02*
X12750000Y-6100000D01*
X12750000Y-900000D02*
X12750000Y-2400000D01*
X12750000Y-6100000D02*
X12750000Y-4600000D01*
%TO.C,C6*%
X-18200000Y7200000D02*
X-18200000Y8800000D01*
X-16800000Y7200000D02*
X-16800000Y8800000D01*
%TO.C,C14*%
X3550000Y7200000D02*
X3550000Y8800000D01*
X4950000Y7200000D02*
X4950000Y8800000D01*
%TO.C,D2*%
X-15800000Y-13650000D02*
X-15800000Y-3850000D01*
X-15800000Y-3850000D02*
X-9200000Y-3850000D01*
X-9200000Y-3850000D02*
X-9200000Y-13650000D01*
%TD*%
M02*
