%TF.GenerationSoftware,KiCad,Pcbnew,9.0.6-1.fc43*%
%TF.CreationDate,2026-01-04T22:18:13+01:00*%
%TF.ProjectId,CARL-Air-Brake-Power-Supply-Hardware,4341524c-2d41-4697-922d-4272616b652d,1*%
%TF.SameCoordinates,PX8f0d180PY5f5e100*%
%TF.FileFunction,Soldermask,Bot*%
%TF.FilePolarity,Negative*%
%FSLAX46Y46*%
G04 Gerber Fmt 4.6, Leading zero omitted, Abs format (unit mm)*
G04 Created by KiCad (PCBNEW 9.0.6-1.fc43) date 2026-01-04 22:18:13*
%MOMM*%
%LPD*%
G01*
G04 APERTURE LIST*
G04 Aperture macros list*
%AMRoundRect*
0 Rectangle with rounded corners*
0 $1 Rounding radius*
0 $2 $3 $4 $5 $6 $7 $8 $9 X,Y pos of 4 corners*
0 Add a 4 corners polygon primitive as box body*
4,1,4,$2,$3,$4,$5,$6,$7,$8,$9,$2,$3,0*
0 Add four circle primitives for the rounded corners*
1,1,$1+$1,$2,$3*
1,1,$1+$1,$4,$5*
1,1,$1+$1,$6,$7*
1,1,$1+$1,$8,$9*
0 Add four rect primitives between the rounded corners*
20,1,$1+$1,$2,$3,$4,$5,0*
20,1,$1+$1,$4,$5,$6,$7,0*
20,1,$1+$1,$6,$7,$8,$9,0*
20,1,$1+$1,$8,$9,$2,$3,0*%
G04 Aperture macros list end*
%ADD10C,3.000000*%
%ADD11RoundRect,0.170000X-0.680000X0.680000X-0.680000X-0.680000X0.680000X-0.680000X0.680000X0.680000X0*%
%ADD12C,1.700000*%
%ADD13RoundRect,0.170000X-0.680000X-0.680000X0.680000X-0.680000X0.680000X0.680000X-0.680000X0.680000X0*%
%ADD14C,6.000000*%
%ADD15C,2.500000*%
%ADD16C,0.700000*%
%ADD17RoundRect,0.090000X0.360000X0.360000X-0.360000X0.360000X-0.360000X-0.360000X0.360000X-0.360000X0*%
%ADD18RoundRect,0.090000X0.360000X-0.360000X0.360000X0.360000X-0.360000X0.360000X-0.360000X-0.360000X0*%
%ADD19RoundRect,0.090000X-0.360000X0.360000X-0.360000X-0.360000X0.360000X-0.360000X0.360000X0.360000X0*%
%ADD20RoundRect,0.090000X-0.360000X-0.360000X0.360000X-0.360000X0.360000X0.360000X-0.360000X0.360000X0*%
G04 APERTURE END LIST*
D10*
%TO.C,SW1*%
X-22855000Y-26000000D03*
X-9645000Y-26000000D03*
X-20950000Y-16470000D03*
X-16250000Y-16470000D03*
X-11550000Y-16470000D03*
%TD*%
D11*
%TO.C,J2*%
X-520000Y-20960000D03*
D12*
X2020000Y-20960000D03*
X-520000Y-23500000D03*
X2020000Y-23500000D03*
X-520000Y-26040000D03*
X2020000Y-26040000D03*
%TD*%
D13*
%TO.C,J5*%
X27730000Y-19270000D03*
D12*
X27730000Y-16730000D03*
X30270000Y-19270000D03*
X30270000Y-16730000D03*
%TD*%
D14*
%TO.C,*%
X29000000Y24500000D03*
%TD*%
D15*
%TO.C,J1*%
X-28000000Y-11750000D03*
X-28000000Y-16750000D03*
%TD*%
D14*
%TO.C,*%
X-29000000Y-24500000D03*
%TD*%
D16*
%TO.C,J3*%
X10425000Y-24050000D03*
X14575000Y-24050000D03*
%TD*%
D14*
%TO.C,*%
X-29000000Y24500000D03*
%TD*%
%TO.C,*%
X29000000Y-24500000D03*
%TD*%
D17*
%TO.C,R16*%
X29550000Y-8000000D03*
X27950000Y-8000000D03*
%TD*%
D18*
%TO.C,R1*%
X-18000000Y-23300000D03*
X-18000000Y-21700000D03*
%TD*%
D19*
%TO.C,R2*%
X-15500000Y-21700000D03*
X-15500000Y-23300000D03*
%TD*%
D17*
%TO.C,C21*%
X5050000Y-14250000D03*
X3450000Y-14250000D03*
%TD*%
D20*
%TO.C,C23*%
X3450000Y-10250000D03*
X5050000Y-10250000D03*
%TD*%
%TO.C,R27*%
X26950000Y10500000D03*
X28550000Y10500000D03*
%TD*%
%TO.C,R25*%
X26950000Y14500000D03*
X28550000Y14500000D03*
%TD*%
D17*
%TO.C,R23*%
X29550000Y6000000D03*
X27950000Y6000000D03*
%TD*%
D19*
%TO.C,C1*%
X-13000000Y-21700000D03*
X-13000000Y-23300000D03*
%TD*%
D17*
%TO.C,R18*%
X29550000Y-4000000D03*
X27950000Y-4000000D03*
%TD*%
%TO.C,C22*%
X5050000Y-12250000D03*
X3450000Y-12250000D03*
%TD*%
D19*
%TO.C,C18*%
X15250000Y-13650000D03*
X15250000Y-15250000D03*
%TD*%
D20*
%TO.C,R24*%
X26950000Y16500000D03*
X28550000Y16500000D03*
%TD*%
D17*
%TO.C,R19*%
X29550000Y-2000000D03*
X27950000Y-2000000D03*
%TD*%
%TO.C,R13*%
X5050000Y-16250000D03*
X3450000Y-16250000D03*
%TD*%
D20*
%TO.C,C25*%
X7700000Y-3500000D03*
X9300000Y-3500000D03*
%TD*%
D17*
%TO.C,R22*%
X29550000Y4000000D03*
X27950000Y4000000D03*
%TD*%
%TO.C,R14*%
X29550000Y-12000000D03*
X27950000Y-12000000D03*
%TD*%
D20*
%TO.C,R26*%
X26950000Y12500000D03*
X28550000Y12500000D03*
%TD*%
D17*
%TO.C,R15*%
X29550000Y-10000000D03*
X27950000Y-10000000D03*
%TD*%
D19*
%TO.C,R11*%
X22250000Y-12900000D03*
X22250000Y-14500000D03*
%TD*%
D17*
%TO.C,R20*%
X29550000Y0D03*
X27950000Y0D03*
%TD*%
D18*
%TO.C,R12*%
X22250000Y-18250000D03*
X22250000Y-16650000D03*
%TD*%
D13*
%TO.C,J4*%
X-24130000Y25770000D03*
D12*
X-24130000Y23230000D03*
X-21590000Y25770000D03*
X-21590000Y23230000D03*
X-19050000Y25770000D03*
X-19050000Y23230000D03*
X-16510000Y25770000D03*
X-16510000Y23230000D03*
X-13970000Y25770000D03*
X-13970000Y23230000D03*
X-11430000Y25770000D03*
X-11430000Y23230000D03*
X-8890000Y25770000D03*
X-8890000Y23230000D03*
X-6350000Y25770000D03*
X-6350000Y23230000D03*
X-3810000Y25770000D03*
X-3810000Y23230000D03*
X-1270000Y25770000D03*
X-1270000Y23230000D03*
X1270000Y25770000D03*
X1270000Y23230000D03*
X3810000Y25770000D03*
X3810000Y23230000D03*
X6350000Y25770000D03*
X6350000Y23230000D03*
X8890000Y25770000D03*
X8890000Y23230000D03*
X11430000Y25770000D03*
X11430000Y23230000D03*
X13970000Y25770000D03*
X13970000Y23230000D03*
X16510000Y25770000D03*
X16510000Y23230000D03*
X19050000Y25770000D03*
X19050000Y23230000D03*
X21590000Y25770000D03*
X21590000Y23230000D03*
X24130000Y25770000D03*
X24130000Y23230000D03*
%TD*%
D17*
%TO.C,R21*%
X29550000Y2000000D03*
X27950000Y2000000D03*
%TD*%
D19*
%TO.C,C19*%
X17250000Y-13650000D03*
X17250000Y-15250000D03*
%TD*%
D17*
%TO.C,R17*%
X29550000Y-6000000D03*
X27950000Y-6000000D03*
%TD*%
%TO.C,C24*%
X5800000Y-3500000D03*
X4200000Y-3500000D03*
%TD*%
D18*
%TO.C,C20*%
X16250000Y-18750000D03*
X16250000Y-17150000D03*
%TD*%
M02*
