M48
; DRILL file {KiCad 7.0.9-7.0.9~ubuntu22.04.1} date Thu 21 Dec 2023 16:39:25 IST
; FORMAT={-:-/ absolute / inch / decimal}
; #@! TF.CreationDate,2023-12-21T16:39:25+05:30
; #@! TF.GenerationSoftware,Kicad,Pcbnew,7.0.9-7.0.9~ubuntu22.04.1
; #@! TF.FileFunction,Plated,1,2,PTH
FMAT,2
INCH
; #@! TA.AperFunction,Plated,PTH,ViaDrill
T1C0.0118
; #@! TA.AperFunction,Plated,PTH,ComponentDrill
T2C0.0138
; #@! TA.AperFunction,Plated,PTH,ComponentDrill
T3C0.0394
; #@! TA.AperFunction,Plated,PTH,ComponentDrill
T4C0.0551
; #@! TA.AperFunction,Plated,PTH,ComponentDrill
T5C0.0728
%
G90
G05
T1
X-1.1713Y0.0098
X-1.1024Y-0.2756
X-1.0827Y0.7382
X-1.0335Y0.2854
X-1.0138Y0.6398
X-0.9055Y0.5413
X-0.9055Y0.2657
X-0.7677Y0.7087
X-0.6791Y-0.2264
X-0.6594Y-0.7972
X-0.5906Y0.3937
X-0.5906Y-0.2264
X-0.3937Y-0.2264
X-0.3937Y-0.4823
X-0.374Y0.3937
X-0.3051Y-0.2264
X-0.2756Y0.3445
X-0.2559Y0.4331
X-0.2362Y-0.9843
X-0.2067Y0.1476
X-0.1378Y0.315
X-0.1378Y-0.3839
X-0.1181Y-0.876
X-0.1083Y-0.3642
X-0.0591Y0.3937
X-0.0492Y0.5413
X-0.0492Y0.2657
X0.0689Y-0.4429
X0.0689Y-0.6004
X0.0886Y0.7087
X0.0886Y-0.2559
X0.1083Y-0.0689
X0.1181Y-0.2854
X0.1673Y-0.7579
X0.1673Y-0.876
X0.2264Y-1.063
X0.2461Y-0.7579
X0.2559Y-0.4035
X0.2559Y-0.4724
X0.2756Y-0.6201
X0.3445Y-0.7874
X0.4035Y-0.5118
X0.4035Y-0.5512
X0.4035Y-0.5906
X0.4035Y-0.6496
X0.4035Y-0.689
X0.4035Y-0.7283
X0.4232Y-0.0689
X0.5512Y-0.2067
X0.5512Y-0.2461
X0.5512Y-0.2854
X0.5512Y-0.3248
X0.5512Y-0.3642
X0.5512Y-0.561
X0.561Y-0.6496
X0.6496Y0.1476
X0.7185Y0.315
X0.7185Y-0.4921
X0.7185Y-0.689
X0.7185Y-0.748
X0.7283Y-0.6201
X0.7874Y-1.0433
X0.9252Y-0.2067
X0.9252Y-0.2461
X0.9252Y-0.2854
X0.9252Y-0.3248
X0.9252Y-0.3642
X0.9449Y-0.4921
X0.9449Y-0.7382
X1.0138Y0.2756
X1.0138Y0.1181
X1.0138Y-0.0394
X1.0138Y-0.1969
X1.0138Y-0.3543
X1.1319Y-0.5512
X1.1909Y0.6102
X1.1909Y0.5315
X1.1909Y0.4528
X1.1909Y0.374
X1.25Y0.2461
X1.25Y0.1476
X1.25Y0.0886
X1.25Y-0.0098
X1.25Y-0.0689
X1.25Y-0.1673
X1.25Y-0.2264
X1.25Y-0.3248
X1.25Y-0.3839
X1.25Y-0.4823
T2
X-0.5079Y0.1988
X-0.5079Y0.1476
X-0.5079Y0.0965
X-0.4567Y0.1988
X-0.4567Y0.1476
X-0.4567Y0.0965
X0.3484Y0.1988
X0.3484Y0.1476
X0.3484Y0.0965
X0.3996Y0.1988
X0.3996Y0.1476
X0.3996Y0.0965
T3
X-0.95Y1.0146
X-0.95Y0.9146
X-0.85Y1.0146
X-0.85Y0.9146
X-0.75Y1.0146
X-0.75Y0.9146
X-0.65Y1.0146
X-0.65Y0.9146
X-0.55Y1.0146
X-0.55Y0.9146
X-0.45Y1.0146
X-0.45Y0.9146
X-0.35Y1.0146
X-0.35Y0.9146
X-0.25Y1.0146
X-0.25Y0.9146
X-0.15Y1.0146
X-0.15Y0.9146
X-0.05Y1.0146
X-0.05Y0.9146
X-0.0205Y-0.8252
X-0.0205Y-0.9252
X-0.0205Y-1.0252
X0.05Y1.0146
X0.05Y0.9146
X0.0795Y-0.8252
X0.0795Y-0.9252
X0.0795Y-1.0252
X0.15Y1.0146
X0.15Y0.9146
X0.25Y1.0146
X0.25Y0.9146
X0.35Y1.0146
X0.35Y0.9146
X0.45Y1.0146
X0.45Y0.9146
X0.55Y1.0146
X0.55Y0.9146
X0.65Y1.0146
X0.65Y0.9146
X0.75Y1.0146
X0.75Y0.9146
X0.85Y1.0146
X0.85Y0.9146
X0.95Y1.0146
X0.95Y0.9146
X1.0917Y-0.6587
X1.0917Y-0.7587
X1.1917Y-0.6587
X1.1917Y-0.7587
T4
X-1.1024Y-0.4626
X-1.1024Y-0.6594
T5
X-0.8998Y-1.0236
X-0.8248Y-0.6484
X-0.6398Y-0.6484
X-0.4547Y-0.6484
X-0.3797Y-1.0236
T0
M30
