%TF.GenerationSoftware,KiCad,Pcbnew,9.0.6-1.fc43*%
%TF.CreationDate,2026-01-04T22:18:13+01:00*%
%TF.ProjectId,CARL-Air-Brake-Power-Supply-Hardware,4341524c-2d41-4697-922d-4272616b652d,1*%
%TF.SameCoordinates,PX8f0d180PY5f5e100*%
%TF.FileFunction,Legend,Bot*%
%TF.FilePolarity,Positive*%
%FSLAX46Y46*%
G04 Gerber Fmt 4.6, Leading zero omitted, Abs format (unit mm)*
G04 Created by KiCad (PCBNEW 9.0.6-1.fc43) date 2026-01-04 22:18:13*
%MOMM*%
%LPD*%
G01*
G04 APERTURE LIST*
%ADD10C,0.100000*%
G04 APERTURE END LIST*
D10*
X26392857Y-8457419D02*
X26726190Y-7981228D01*
X26964285Y-8457419D02*
X26964285Y-7457419D01*
X26964285Y-7457419D02*
X26583333Y-7457419D01*
X26583333Y-7457419D02*
X26488095Y-7505038D01*
X26488095Y-7505038D02*
X26440476Y-7552657D01*
X26440476Y-7552657D02*
X26392857Y-7647895D01*
X26392857Y-7647895D02*
X26392857Y-7790752D01*
X26392857Y-7790752D02*
X26440476Y-7885990D01*
X26440476Y-7885990D02*
X26488095Y-7933609D01*
X26488095Y-7933609D02*
X26583333Y-7981228D01*
X26583333Y-7981228D02*
X26964285Y-7981228D01*
X25440476Y-8457419D02*
X26011904Y-8457419D01*
X25726190Y-8457419D02*
X25726190Y-7457419D01*
X25726190Y-7457419D02*
X25821428Y-7600276D01*
X25821428Y-7600276D02*
X25916666Y-7695514D01*
X25916666Y-7695514D02*
X26011904Y-7743133D01*
X24583333Y-7457419D02*
X24773809Y-7457419D01*
X24773809Y-7457419D02*
X24869047Y-7505038D01*
X24869047Y-7505038D02*
X24916666Y-7552657D01*
X24916666Y-7552657D02*
X25011904Y-7695514D01*
X25011904Y-7695514D02*
X25059523Y-7885990D01*
X25059523Y-7885990D02*
X25059523Y-8266942D01*
X25059523Y-8266942D02*
X25011904Y-8362180D01*
X25011904Y-8362180D02*
X24964285Y-8409800D01*
X24964285Y-8409800D02*
X24869047Y-8457419D01*
X24869047Y-8457419D02*
X24678571Y-8457419D01*
X24678571Y-8457419D02*
X24583333Y-8409800D01*
X24583333Y-8409800D02*
X24535714Y-8362180D01*
X24535714Y-8362180D02*
X24488095Y-8266942D01*
X24488095Y-8266942D02*
X24488095Y-8028847D01*
X24488095Y-8028847D02*
X24535714Y-7933609D01*
X24535714Y-7933609D02*
X24583333Y-7885990D01*
X24583333Y-7885990D02*
X24678571Y-7838371D01*
X24678571Y-7838371D02*
X24869047Y-7838371D01*
X24869047Y-7838371D02*
X24964285Y-7885990D01*
X24964285Y-7885990D02*
X25011904Y-7933609D01*
X25011904Y-7933609D02*
X25059523Y-8028847D01*
X-17542581Y-24833333D02*
X-18018772Y-24500000D01*
X-17542581Y-24261905D02*
X-18542581Y-24261905D01*
X-18542581Y-24261905D02*
X-18542581Y-24642857D01*
X-18542581Y-24642857D02*
X-18494962Y-24738095D01*
X-18494962Y-24738095D02*
X-18447343Y-24785714D01*
X-18447343Y-24785714D02*
X-18352105Y-24833333D01*
X-18352105Y-24833333D02*
X-18209248Y-24833333D01*
X-18209248Y-24833333D02*
X-18114010Y-24785714D01*
X-18114010Y-24785714D02*
X-18066391Y-24738095D01*
X-18066391Y-24738095D02*
X-18018772Y-24642857D01*
X-18018772Y-24642857D02*
X-18018772Y-24261905D01*
X-17542581Y-25785714D02*
X-17542581Y-25214286D01*
X-17542581Y-25500000D02*
X-18542581Y-25500000D01*
X-18542581Y-25500000D02*
X-18399724Y-25404762D01*
X-18399724Y-25404762D02*
X-18304486Y-25309524D01*
X-18304486Y-25309524D02*
X-18256867Y-25214286D01*
X-15042581Y-24833333D02*
X-15518772Y-24500000D01*
X-15042581Y-24261905D02*
X-16042581Y-24261905D01*
X-16042581Y-24261905D02*
X-16042581Y-24642857D01*
X-16042581Y-24642857D02*
X-15994962Y-24738095D01*
X-15994962Y-24738095D02*
X-15947343Y-24785714D01*
X-15947343Y-24785714D02*
X-15852105Y-24833333D01*
X-15852105Y-24833333D02*
X-15709248Y-24833333D01*
X-15709248Y-24833333D02*
X-15614010Y-24785714D01*
X-15614010Y-24785714D02*
X-15566391Y-24738095D01*
X-15566391Y-24738095D02*
X-15518772Y-24642857D01*
X-15518772Y-24642857D02*
X-15518772Y-24261905D01*
X-15947343Y-25214286D02*
X-15994962Y-25261905D01*
X-15994962Y-25261905D02*
X-16042581Y-25357143D01*
X-16042581Y-25357143D02*
X-16042581Y-25595238D01*
X-16042581Y-25595238D02*
X-15994962Y-25690476D01*
X-15994962Y-25690476D02*
X-15947343Y-25738095D01*
X-15947343Y-25738095D02*
X-15852105Y-25785714D01*
X-15852105Y-25785714D02*
X-15756867Y-25785714D01*
X-15756867Y-25785714D02*
X-15614010Y-25738095D01*
X-15614010Y-25738095D02*
X-15042581Y-25166667D01*
X-15042581Y-25166667D02*
X-15042581Y-25785714D01*
X1892857Y-14612180D02*
X1940476Y-14659800D01*
X1940476Y-14659800D02*
X2083333Y-14707419D01*
X2083333Y-14707419D02*
X2178571Y-14707419D01*
X2178571Y-14707419D02*
X2321428Y-14659800D01*
X2321428Y-14659800D02*
X2416666Y-14564561D01*
X2416666Y-14564561D02*
X2464285Y-14469323D01*
X2464285Y-14469323D02*
X2511904Y-14278847D01*
X2511904Y-14278847D02*
X2511904Y-14135990D01*
X2511904Y-14135990D02*
X2464285Y-13945514D01*
X2464285Y-13945514D02*
X2416666Y-13850276D01*
X2416666Y-13850276D02*
X2321428Y-13755038D01*
X2321428Y-13755038D02*
X2178571Y-13707419D01*
X2178571Y-13707419D02*
X2083333Y-13707419D01*
X2083333Y-13707419D02*
X1940476Y-13755038D01*
X1940476Y-13755038D02*
X1892857Y-13802657D01*
X1511904Y-13802657D02*
X1464285Y-13755038D01*
X1464285Y-13755038D02*
X1369047Y-13707419D01*
X1369047Y-13707419D02*
X1130952Y-13707419D01*
X1130952Y-13707419D02*
X1035714Y-13755038D01*
X1035714Y-13755038D02*
X988095Y-13802657D01*
X988095Y-13802657D02*
X940476Y-13897895D01*
X940476Y-13897895D02*
X940476Y-13993133D01*
X940476Y-13993133D02*
X988095Y-14135990D01*
X988095Y-14135990D02*
X1559523Y-14707419D01*
X1559523Y-14707419D02*
X940476Y-14707419D01*
X-11905Y-14707419D02*
X559523Y-14707419D01*
X273809Y-14707419D02*
X273809Y-13707419D01*
X273809Y-13707419D02*
X369047Y-13850276D01*
X369047Y-13850276D02*
X464285Y-13945514D01*
X464285Y-13945514D02*
X559523Y-13993133D01*
X1892857Y-10612180D02*
X1940476Y-10659800D01*
X1940476Y-10659800D02*
X2083333Y-10707419D01*
X2083333Y-10707419D02*
X2178571Y-10707419D01*
X2178571Y-10707419D02*
X2321428Y-10659800D01*
X2321428Y-10659800D02*
X2416666Y-10564561D01*
X2416666Y-10564561D02*
X2464285Y-10469323D01*
X2464285Y-10469323D02*
X2511904Y-10278847D01*
X2511904Y-10278847D02*
X2511904Y-10135990D01*
X2511904Y-10135990D02*
X2464285Y-9945514D01*
X2464285Y-9945514D02*
X2416666Y-9850276D01*
X2416666Y-9850276D02*
X2321428Y-9755038D01*
X2321428Y-9755038D02*
X2178571Y-9707419D01*
X2178571Y-9707419D02*
X2083333Y-9707419D01*
X2083333Y-9707419D02*
X1940476Y-9755038D01*
X1940476Y-9755038D02*
X1892857Y-9802657D01*
X1511904Y-9802657D02*
X1464285Y-9755038D01*
X1464285Y-9755038D02*
X1369047Y-9707419D01*
X1369047Y-9707419D02*
X1130952Y-9707419D01*
X1130952Y-9707419D02*
X1035714Y-9755038D01*
X1035714Y-9755038D02*
X988095Y-9802657D01*
X988095Y-9802657D02*
X940476Y-9897895D01*
X940476Y-9897895D02*
X940476Y-9993133D01*
X940476Y-9993133D02*
X988095Y-10135990D01*
X988095Y-10135990D02*
X1559523Y-10707419D01*
X1559523Y-10707419D02*
X940476Y-10707419D01*
X607142Y-9707419D02*
X-11905Y-9707419D01*
X-11905Y-9707419D02*
X321428Y-10088371D01*
X321428Y-10088371D02*
X178571Y-10088371D01*
X178571Y-10088371D02*
X83333Y-10135990D01*
X83333Y-10135990D02*
X35714Y-10183609D01*
X35714Y-10183609D02*
X-11905Y-10278847D01*
X-11905Y-10278847D02*
X-11905Y-10516942D01*
X-11905Y-10516942D02*
X35714Y-10612180D01*
X35714Y-10612180D02*
X83333Y-10659800D01*
X83333Y-10659800D02*
X178571Y-10707419D01*
X178571Y-10707419D02*
X464285Y-10707419D01*
X464285Y-10707419D02*
X559523Y-10659800D01*
X559523Y-10659800D02*
X607142Y-10612180D01*
X25392857Y10042581D02*
X25726190Y10518772D01*
X25964285Y10042581D02*
X25964285Y11042581D01*
X25964285Y11042581D02*
X25583333Y11042581D01*
X25583333Y11042581D02*
X25488095Y10994962D01*
X25488095Y10994962D02*
X25440476Y10947343D01*
X25440476Y10947343D02*
X25392857Y10852105D01*
X25392857Y10852105D02*
X25392857Y10709248D01*
X25392857Y10709248D02*
X25440476Y10614010D01*
X25440476Y10614010D02*
X25488095Y10566391D01*
X25488095Y10566391D02*
X25583333Y10518772D01*
X25583333Y10518772D02*
X25964285Y10518772D01*
X25011904Y10947343D02*
X24964285Y10994962D01*
X24964285Y10994962D02*
X24869047Y11042581D01*
X24869047Y11042581D02*
X24630952Y11042581D01*
X24630952Y11042581D02*
X24535714Y10994962D01*
X24535714Y10994962D02*
X24488095Y10947343D01*
X24488095Y10947343D02*
X24440476Y10852105D01*
X24440476Y10852105D02*
X24440476Y10756867D01*
X24440476Y10756867D02*
X24488095Y10614010D01*
X24488095Y10614010D02*
X25059523Y10042581D01*
X25059523Y10042581D02*
X24440476Y10042581D01*
X24107142Y11042581D02*
X23440476Y11042581D01*
X23440476Y11042581D02*
X23869047Y10042581D01*
X25392857Y14042581D02*
X25726190Y14518772D01*
X25964285Y14042581D02*
X25964285Y15042581D01*
X25964285Y15042581D02*
X25583333Y15042581D01*
X25583333Y15042581D02*
X25488095Y14994962D01*
X25488095Y14994962D02*
X25440476Y14947343D01*
X25440476Y14947343D02*
X25392857Y14852105D01*
X25392857Y14852105D02*
X25392857Y14709248D01*
X25392857Y14709248D02*
X25440476Y14614010D01*
X25440476Y14614010D02*
X25488095Y14566391D01*
X25488095Y14566391D02*
X25583333Y14518772D01*
X25583333Y14518772D02*
X25964285Y14518772D01*
X25011904Y14947343D02*
X24964285Y14994962D01*
X24964285Y14994962D02*
X24869047Y15042581D01*
X24869047Y15042581D02*
X24630952Y15042581D01*
X24630952Y15042581D02*
X24535714Y14994962D01*
X24535714Y14994962D02*
X24488095Y14947343D01*
X24488095Y14947343D02*
X24440476Y14852105D01*
X24440476Y14852105D02*
X24440476Y14756867D01*
X24440476Y14756867D02*
X24488095Y14614010D01*
X24488095Y14614010D02*
X25059523Y14042581D01*
X25059523Y14042581D02*
X24440476Y14042581D01*
X23535714Y15042581D02*
X24011904Y15042581D01*
X24011904Y15042581D02*
X24059523Y14566391D01*
X24059523Y14566391D02*
X24011904Y14614010D01*
X24011904Y14614010D02*
X23916666Y14661629D01*
X23916666Y14661629D02*
X23678571Y14661629D01*
X23678571Y14661629D02*
X23583333Y14614010D01*
X23583333Y14614010D02*
X23535714Y14566391D01*
X23535714Y14566391D02*
X23488095Y14471153D01*
X23488095Y14471153D02*
X23488095Y14233058D01*
X23488095Y14233058D02*
X23535714Y14137820D01*
X23535714Y14137820D02*
X23583333Y14090200D01*
X23583333Y14090200D02*
X23678571Y14042581D01*
X23678571Y14042581D02*
X23916666Y14042581D01*
X23916666Y14042581D02*
X24011904Y14090200D01*
X24011904Y14090200D02*
X24059523Y14137820D01*
X26392857Y5542581D02*
X26726190Y6018772D01*
X26964285Y5542581D02*
X26964285Y6542581D01*
X26964285Y6542581D02*
X26583333Y6542581D01*
X26583333Y6542581D02*
X26488095Y6494962D01*
X26488095Y6494962D02*
X26440476Y6447343D01*
X26440476Y6447343D02*
X26392857Y6352105D01*
X26392857Y6352105D02*
X26392857Y6209248D01*
X26392857Y6209248D02*
X26440476Y6114010D01*
X26440476Y6114010D02*
X26488095Y6066391D01*
X26488095Y6066391D02*
X26583333Y6018772D01*
X26583333Y6018772D02*
X26964285Y6018772D01*
X26011904Y6447343D02*
X25964285Y6494962D01*
X25964285Y6494962D02*
X25869047Y6542581D01*
X25869047Y6542581D02*
X25630952Y6542581D01*
X25630952Y6542581D02*
X25535714Y6494962D01*
X25535714Y6494962D02*
X25488095Y6447343D01*
X25488095Y6447343D02*
X25440476Y6352105D01*
X25440476Y6352105D02*
X25440476Y6256867D01*
X25440476Y6256867D02*
X25488095Y6114010D01*
X25488095Y6114010D02*
X26059523Y5542581D01*
X26059523Y5542581D02*
X25440476Y5542581D01*
X25107142Y6542581D02*
X24488095Y6542581D01*
X24488095Y6542581D02*
X24821428Y6161629D01*
X24821428Y6161629D02*
X24678571Y6161629D01*
X24678571Y6161629D02*
X24583333Y6114010D01*
X24583333Y6114010D02*
X24535714Y6066391D01*
X24535714Y6066391D02*
X24488095Y5971153D01*
X24488095Y5971153D02*
X24488095Y5733058D01*
X24488095Y5733058D02*
X24535714Y5637820D01*
X24535714Y5637820D02*
X24583333Y5590200D01*
X24583333Y5590200D02*
X24678571Y5542581D01*
X24678571Y5542581D02*
X24964285Y5542581D01*
X24964285Y5542581D02*
X25059523Y5590200D01*
X25059523Y5590200D02*
X25107142Y5637820D01*
X-12637820Y-24833333D02*
X-12590200Y-24785714D01*
X-12590200Y-24785714D02*
X-12542581Y-24642857D01*
X-12542581Y-24642857D02*
X-12542581Y-24547619D01*
X-12542581Y-24547619D02*
X-12590200Y-24404762D01*
X-12590200Y-24404762D02*
X-12685439Y-24309524D01*
X-12685439Y-24309524D02*
X-12780677Y-24261905D01*
X-12780677Y-24261905D02*
X-12971153Y-24214286D01*
X-12971153Y-24214286D02*
X-13114010Y-24214286D01*
X-13114010Y-24214286D02*
X-13304486Y-24261905D01*
X-13304486Y-24261905D02*
X-13399724Y-24309524D01*
X-13399724Y-24309524D02*
X-13494962Y-24404762D01*
X-13494962Y-24404762D02*
X-13542581Y-24547619D01*
X-13542581Y-24547619D02*
X-13542581Y-24642857D01*
X-13542581Y-24642857D02*
X-13494962Y-24785714D01*
X-13494962Y-24785714D02*
X-13447343Y-24833333D01*
X-12542581Y-25785714D02*
X-12542581Y-25214286D01*
X-12542581Y-25500000D02*
X-13542581Y-25500000D01*
X-13542581Y-25500000D02*
X-13399724Y-25404762D01*
X-13399724Y-25404762D02*
X-13304486Y-25309524D01*
X-13304486Y-25309524D02*
X-13256867Y-25214286D01*
X26392857Y-4457419D02*
X26726190Y-3981228D01*
X26964285Y-4457419D02*
X26964285Y-3457419D01*
X26964285Y-3457419D02*
X26583333Y-3457419D01*
X26583333Y-3457419D02*
X26488095Y-3505038D01*
X26488095Y-3505038D02*
X26440476Y-3552657D01*
X26440476Y-3552657D02*
X26392857Y-3647895D01*
X26392857Y-3647895D02*
X26392857Y-3790752D01*
X26392857Y-3790752D02*
X26440476Y-3885990D01*
X26440476Y-3885990D02*
X26488095Y-3933609D01*
X26488095Y-3933609D02*
X26583333Y-3981228D01*
X26583333Y-3981228D02*
X26964285Y-3981228D01*
X25440476Y-4457419D02*
X26011904Y-4457419D01*
X25726190Y-4457419D02*
X25726190Y-3457419D01*
X25726190Y-3457419D02*
X25821428Y-3600276D01*
X25821428Y-3600276D02*
X25916666Y-3695514D01*
X25916666Y-3695514D02*
X26011904Y-3743133D01*
X24869047Y-3885990D02*
X24964285Y-3838371D01*
X24964285Y-3838371D02*
X25011904Y-3790752D01*
X25011904Y-3790752D02*
X25059523Y-3695514D01*
X25059523Y-3695514D02*
X25059523Y-3647895D01*
X25059523Y-3647895D02*
X25011904Y-3552657D01*
X25011904Y-3552657D02*
X24964285Y-3505038D01*
X24964285Y-3505038D02*
X24869047Y-3457419D01*
X24869047Y-3457419D02*
X24678571Y-3457419D01*
X24678571Y-3457419D02*
X24583333Y-3505038D01*
X24583333Y-3505038D02*
X24535714Y-3552657D01*
X24535714Y-3552657D02*
X24488095Y-3647895D01*
X24488095Y-3647895D02*
X24488095Y-3695514D01*
X24488095Y-3695514D02*
X24535714Y-3790752D01*
X24535714Y-3790752D02*
X24583333Y-3838371D01*
X24583333Y-3838371D02*
X24678571Y-3885990D01*
X24678571Y-3885990D02*
X24869047Y-3885990D01*
X24869047Y-3885990D02*
X24964285Y-3933609D01*
X24964285Y-3933609D02*
X25011904Y-3981228D01*
X25011904Y-3981228D02*
X25059523Y-4076466D01*
X25059523Y-4076466D02*
X25059523Y-4266942D01*
X25059523Y-4266942D02*
X25011904Y-4362180D01*
X25011904Y-4362180D02*
X24964285Y-4409800D01*
X24964285Y-4409800D02*
X24869047Y-4457419D01*
X24869047Y-4457419D02*
X24678571Y-4457419D01*
X24678571Y-4457419D02*
X24583333Y-4409800D01*
X24583333Y-4409800D02*
X24535714Y-4362180D01*
X24535714Y-4362180D02*
X24488095Y-4266942D01*
X24488095Y-4266942D02*
X24488095Y-4076466D01*
X24488095Y-4076466D02*
X24535714Y-3981228D01*
X24535714Y-3981228D02*
X24583333Y-3933609D01*
X24583333Y-3933609D02*
X24678571Y-3885990D01*
X1892857Y-12612180D02*
X1940476Y-12659800D01*
X1940476Y-12659800D02*
X2083333Y-12707419D01*
X2083333Y-12707419D02*
X2178571Y-12707419D01*
X2178571Y-12707419D02*
X2321428Y-12659800D01*
X2321428Y-12659800D02*
X2416666Y-12564561D01*
X2416666Y-12564561D02*
X2464285Y-12469323D01*
X2464285Y-12469323D02*
X2511904Y-12278847D01*
X2511904Y-12278847D02*
X2511904Y-12135990D01*
X2511904Y-12135990D02*
X2464285Y-11945514D01*
X2464285Y-11945514D02*
X2416666Y-11850276D01*
X2416666Y-11850276D02*
X2321428Y-11755038D01*
X2321428Y-11755038D02*
X2178571Y-11707419D01*
X2178571Y-11707419D02*
X2083333Y-11707419D01*
X2083333Y-11707419D02*
X1940476Y-11755038D01*
X1940476Y-11755038D02*
X1892857Y-11802657D01*
X1511904Y-11802657D02*
X1464285Y-11755038D01*
X1464285Y-11755038D02*
X1369047Y-11707419D01*
X1369047Y-11707419D02*
X1130952Y-11707419D01*
X1130952Y-11707419D02*
X1035714Y-11755038D01*
X1035714Y-11755038D02*
X988095Y-11802657D01*
X988095Y-11802657D02*
X940476Y-11897895D01*
X940476Y-11897895D02*
X940476Y-11993133D01*
X940476Y-11993133D02*
X988095Y-12135990D01*
X988095Y-12135990D02*
X1559523Y-12707419D01*
X1559523Y-12707419D02*
X940476Y-12707419D01*
X559523Y-11802657D02*
X511904Y-11755038D01*
X511904Y-11755038D02*
X416666Y-11707419D01*
X416666Y-11707419D02*
X178571Y-11707419D01*
X178571Y-11707419D02*
X83333Y-11755038D01*
X83333Y-11755038D02*
X35714Y-11802657D01*
X35714Y-11802657D02*
X-11905Y-11897895D01*
X-11905Y-11897895D02*
X-11905Y-11993133D01*
X-11905Y-11993133D02*
X35714Y-12135990D01*
X35714Y-12135990D02*
X607142Y-12707419D01*
X607142Y-12707419D02*
X-11905Y-12707419D01*
X15612180Y-10807142D02*
X15659800Y-10759523D01*
X15659800Y-10759523D02*
X15707419Y-10616666D01*
X15707419Y-10616666D02*
X15707419Y-10521428D01*
X15707419Y-10521428D02*
X15659800Y-10378571D01*
X15659800Y-10378571D02*
X15564561Y-10283333D01*
X15564561Y-10283333D02*
X15469323Y-10235714D01*
X15469323Y-10235714D02*
X15278847Y-10188095D01*
X15278847Y-10188095D02*
X15135990Y-10188095D01*
X15135990Y-10188095D02*
X14945514Y-10235714D01*
X14945514Y-10235714D02*
X14850276Y-10283333D01*
X14850276Y-10283333D02*
X14755038Y-10378571D01*
X14755038Y-10378571D02*
X14707419Y-10521428D01*
X14707419Y-10521428D02*
X14707419Y-10616666D01*
X14707419Y-10616666D02*
X14755038Y-10759523D01*
X14755038Y-10759523D02*
X14802657Y-10807142D01*
X15707419Y-11759523D02*
X15707419Y-11188095D01*
X15707419Y-11473809D02*
X14707419Y-11473809D01*
X14707419Y-11473809D02*
X14850276Y-11378571D01*
X14850276Y-11378571D02*
X14945514Y-11283333D01*
X14945514Y-11283333D02*
X14993133Y-11188095D01*
X15135990Y-12330952D02*
X15088371Y-12235714D01*
X15088371Y-12235714D02*
X15040752Y-12188095D01*
X15040752Y-12188095D02*
X14945514Y-12140476D01*
X14945514Y-12140476D02*
X14897895Y-12140476D01*
X14897895Y-12140476D02*
X14802657Y-12188095D01*
X14802657Y-12188095D02*
X14755038Y-12235714D01*
X14755038Y-12235714D02*
X14707419Y-12330952D01*
X14707419Y-12330952D02*
X14707419Y-12521428D01*
X14707419Y-12521428D02*
X14755038Y-12616666D01*
X14755038Y-12616666D02*
X14802657Y-12664285D01*
X14802657Y-12664285D02*
X14897895Y-12711904D01*
X14897895Y-12711904D02*
X14945514Y-12711904D01*
X14945514Y-12711904D02*
X15040752Y-12664285D01*
X15040752Y-12664285D02*
X15088371Y-12616666D01*
X15088371Y-12616666D02*
X15135990Y-12521428D01*
X15135990Y-12521428D02*
X15135990Y-12330952D01*
X15135990Y-12330952D02*
X15183609Y-12235714D01*
X15183609Y-12235714D02*
X15231228Y-12188095D01*
X15231228Y-12188095D02*
X15326466Y-12140476D01*
X15326466Y-12140476D02*
X15516942Y-12140476D01*
X15516942Y-12140476D02*
X15612180Y-12188095D01*
X15612180Y-12188095D02*
X15659800Y-12235714D01*
X15659800Y-12235714D02*
X15707419Y-12330952D01*
X15707419Y-12330952D02*
X15707419Y-12521428D01*
X15707419Y-12521428D02*
X15659800Y-12616666D01*
X15659800Y-12616666D02*
X15612180Y-12664285D01*
X15612180Y-12664285D02*
X15516942Y-12711904D01*
X15516942Y-12711904D02*
X15326466Y-12711904D01*
X15326466Y-12711904D02*
X15231228Y-12664285D01*
X15231228Y-12664285D02*
X15183609Y-12616666D01*
X15183609Y-12616666D02*
X15135990Y-12521428D01*
X25392857Y16042581D02*
X25726190Y16518772D01*
X25964285Y16042581D02*
X25964285Y17042581D01*
X25964285Y17042581D02*
X25583333Y17042581D01*
X25583333Y17042581D02*
X25488095Y16994962D01*
X25488095Y16994962D02*
X25440476Y16947343D01*
X25440476Y16947343D02*
X25392857Y16852105D01*
X25392857Y16852105D02*
X25392857Y16709248D01*
X25392857Y16709248D02*
X25440476Y16614010D01*
X25440476Y16614010D02*
X25488095Y16566391D01*
X25488095Y16566391D02*
X25583333Y16518772D01*
X25583333Y16518772D02*
X25964285Y16518772D01*
X25011904Y16947343D02*
X24964285Y16994962D01*
X24964285Y16994962D02*
X24869047Y17042581D01*
X24869047Y17042581D02*
X24630952Y17042581D01*
X24630952Y17042581D02*
X24535714Y16994962D01*
X24535714Y16994962D02*
X24488095Y16947343D01*
X24488095Y16947343D02*
X24440476Y16852105D01*
X24440476Y16852105D02*
X24440476Y16756867D01*
X24440476Y16756867D02*
X24488095Y16614010D01*
X24488095Y16614010D02*
X25059523Y16042581D01*
X25059523Y16042581D02*
X24440476Y16042581D01*
X23583333Y16709248D02*
X23583333Y16042581D01*
X23821428Y17090200D02*
X24059523Y16375915D01*
X24059523Y16375915D02*
X23440476Y16375915D01*
X26392857Y-2457419D02*
X26726190Y-1981228D01*
X26964285Y-2457419D02*
X26964285Y-1457419D01*
X26964285Y-1457419D02*
X26583333Y-1457419D01*
X26583333Y-1457419D02*
X26488095Y-1505038D01*
X26488095Y-1505038D02*
X26440476Y-1552657D01*
X26440476Y-1552657D02*
X26392857Y-1647895D01*
X26392857Y-1647895D02*
X26392857Y-1790752D01*
X26392857Y-1790752D02*
X26440476Y-1885990D01*
X26440476Y-1885990D02*
X26488095Y-1933609D01*
X26488095Y-1933609D02*
X26583333Y-1981228D01*
X26583333Y-1981228D02*
X26964285Y-1981228D01*
X25440476Y-2457419D02*
X26011904Y-2457419D01*
X25726190Y-2457419D02*
X25726190Y-1457419D01*
X25726190Y-1457419D02*
X25821428Y-1600276D01*
X25821428Y-1600276D02*
X25916666Y-1695514D01*
X25916666Y-1695514D02*
X26011904Y-1743133D01*
X24964285Y-2457419D02*
X24773809Y-2457419D01*
X24773809Y-2457419D02*
X24678571Y-2409800D01*
X24678571Y-2409800D02*
X24630952Y-2362180D01*
X24630952Y-2362180D02*
X24535714Y-2219323D01*
X24535714Y-2219323D02*
X24488095Y-2028847D01*
X24488095Y-2028847D02*
X24488095Y-1647895D01*
X24488095Y-1647895D02*
X24535714Y-1552657D01*
X24535714Y-1552657D02*
X24583333Y-1505038D01*
X24583333Y-1505038D02*
X24678571Y-1457419D01*
X24678571Y-1457419D02*
X24869047Y-1457419D01*
X24869047Y-1457419D02*
X24964285Y-1505038D01*
X24964285Y-1505038D02*
X25011904Y-1552657D01*
X25011904Y-1552657D02*
X25059523Y-1647895D01*
X25059523Y-1647895D02*
X25059523Y-1885990D01*
X25059523Y-1885990D02*
X25011904Y-1981228D01*
X25011904Y-1981228D02*
X24964285Y-2028847D01*
X24964285Y-2028847D02*
X24869047Y-2076466D01*
X24869047Y-2076466D02*
X24678571Y-2076466D01*
X24678571Y-2076466D02*
X24583333Y-2028847D01*
X24583333Y-2028847D02*
X24535714Y-1981228D01*
X24535714Y-1981228D02*
X24488095Y-1885990D01*
X1892857Y-16707419D02*
X2226190Y-16231228D01*
X2464285Y-16707419D02*
X2464285Y-15707419D01*
X2464285Y-15707419D02*
X2083333Y-15707419D01*
X2083333Y-15707419D02*
X1988095Y-15755038D01*
X1988095Y-15755038D02*
X1940476Y-15802657D01*
X1940476Y-15802657D02*
X1892857Y-15897895D01*
X1892857Y-15897895D02*
X1892857Y-16040752D01*
X1892857Y-16040752D02*
X1940476Y-16135990D01*
X1940476Y-16135990D02*
X1988095Y-16183609D01*
X1988095Y-16183609D02*
X2083333Y-16231228D01*
X2083333Y-16231228D02*
X2464285Y-16231228D01*
X940476Y-16707419D02*
X1511904Y-16707419D01*
X1226190Y-16707419D02*
X1226190Y-15707419D01*
X1226190Y-15707419D02*
X1321428Y-15850276D01*
X1321428Y-15850276D02*
X1416666Y-15945514D01*
X1416666Y-15945514D02*
X1511904Y-15993133D01*
X607142Y-15707419D02*
X-11905Y-15707419D01*
X-11905Y-15707419D02*
X321428Y-16088371D01*
X321428Y-16088371D02*
X178571Y-16088371D01*
X178571Y-16088371D02*
X83333Y-16135990D01*
X83333Y-16135990D02*
X35714Y-16183609D01*
X35714Y-16183609D02*
X-11905Y-16278847D01*
X-11905Y-16278847D02*
X-11905Y-16516942D01*
X-11905Y-16516942D02*
X35714Y-16612180D01*
X35714Y-16612180D02*
X83333Y-16659800D01*
X83333Y-16659800D02*
X178571Y-16707419D01*
X178571Y-16707419D02*
X464285Y-16707419D01*
X464285Y-16707419D02*
X559523Y-16659800D01*
X559523Y-16659800D02*
X607142Y-16612180D01*
X12142857Y-3862180D02*
X12190476Y-3909800D01*
X12190476Y-3909800D02*
X12333333Y-3957419D01*
X12333333Y-3957419D02*
X12428571Y-3957419D01*
X12428571Y-3957419D02*
X12571428Y-3909800D01*
X12571428Y-3909800D02*
X12666666Y-3814561D01*
X12666666Y-3814561D02*
X12714285Y-3719323D01*
X12714285Y-3719323D02*
X12761904Y-3528847D01*
X12761904Y-3528847D02*
X12761904Y-3385990D01*
X12761904Y-3385990D02*
X12714285Y-3195514D01*
X12714285Y-3195514D02*
X12666666Y-3100276D01*
X12666666Y-3100276D02*
X12571428Y-3005038D01*
X12571428Y-3005038D02*
X12428571Y-2957419D01*
X12428571Y-2957419D02*
X12333333Y-2957419D01*
X12333333Y-2957419D02*
X12190476Y-3005038D01*
X12190476Y-3005038D02*
X12142857Y-3052657D01*
X11761904Y-3052657D02*
X11714285Y-3005038D01*
X11714285Y-3005038D02*
X11619047Y-2957419D01*
X11619047Y-2957419D02*
X11380952Y-2957419D01*
X11380952Y-2957419D02*
X11285714Y-3005038D01*
X11285714Y-3005038D02*
X11238095Y-3052657D01*
X11238095Y-3052657D02*
X11190476Y-3147895D01*
X11190476Y-3147895D02*
X11190476Y-3243133D01*
X11190476Y-3243133D02*
X11238095Y-3385990D01*
X11238095Y-3385990D02*
X11809523Y-3957419D01*
X11809523Y-3957419D02*
X11190476Y-3957419D01*
X10285714Y-2957419D02*
X10761904Y-2957419D01*
X10761904Y-2957419D02*
X10809523Y-3433609D01*
X10809523Y-3433609D02*
X10761904Y-3385990D01*
X10761904Y-3385990D02*
X10666666Y-3338371D01*
X10666666Y-3338371D02*
X10428571Y-3338371D01*
X10428571Y-3338371D02*
X10333333Y-3385990D01*
X10333333Y-3385990D02*
X10285714Y-3433609D01*
X10285714Y-3433609D02*
X10238095Y-3528847D01*
X10238095Y-3528847D02*
X10238095Y-3766942D01*
X10238095Y-3766942D02*
X10285714Y-3862180D01*
X10285714Y-3862180D02*
X10333333Y-3909800D01*
X10333333Y-3909800D02*
X10428571Y-3957419D01*
X10428571Y-3957419D02*
X10666666Y-3957419D01*
X10666666Y-3957419D02*
X10761904Y-3909800D01*
X10761904Y-3909800D02*
X10809523Y-3862180D01*
X26392857Y3542581D02*
X26726190Y4018772D01*
X26964285Y3542581D02*
X26964285Y4542581D01*
X26964285Y4542581D02*
X26583333Y4542581D01*
X26583333Y4542581D02*
X26488095Y4494962D01*
X26488095Y4494962D02*
X26440476Y4447343D01*
X26440476Y4447343D02*
X26392857Y4352105D01*
X26392857Y4352105D02*
X26392857Y4209248D01*
X26392857Y4209248D02*
X26440476Y4114010D01*
X26440476Y4114010D02*
X26488095Y4066391D01*
X26488095Y4066391D02*
X26583333Y4018772D01*
X26583333Y4018772D02*
X26964285Y4018772D01*
X26011904Y4447343D02*
X25964285Y4494962D01*
X25964285Y4494962D02*
X25869047Y4542581D01*
X25869047Y4542581D02*
X25630952Y4542581D01*
X25630952Y4542581D02*
X25535714Y4494962D01*
X25535714Y4494962D02*
X25488095Y4447343D01*
X25488095Y4447343D02*
X25440476Y4352105D01*
X25440476Y4352105D02*
X25440476Y4256867D01*
X25440476Y4256867D02*
X25488095Y4114010D01*
X25488095Y4114010D02*
X26059523Y3542581D01*
X26059523Y3542581D02*
X25440476Y3542581D01*
X25059523Y4447343D02*
X25011904Y4494962D01*
X25011904Y4494962D02*
X24916666Y4542581D01*
X24916666Y4542581D02*
X24678571Y4542581D01*
X24678571Y4542581D02*
X24583333Y4494962D01*
X24583333Y4494962D02*
X24535714Y4447343D01*
X24535714Y4447343D02*
X24488095Y4352105D01*
X24488095Y4352105D02*
X24488095Y4256867D01*
X24488095Y4256867D02*
X24535714Y4114010D01*
X24535714Y4114010D02*
X25107142Y3542581D01*
X25107142Y3542581D02*
X24488095Y3542581D01*
X26392857Y-12457419D02*
X26726190Y-11981228D01*
X26964285Y-12457419D02*
X26964285Y-11457419D01*
X26964285Y-11457419D02*
X26583333Y-11457419D01*
X26583333Y-11457419D02*
X26488095Y-11505038D01*
X26488095Y-11505038D02*
X26440476Y-11552657D01*
X26440476Y-11552657D02*
X26392857Y-11647895D01*
X26392857Y-11647895D02*
X26392857Y-11790752D01*
X26392857Y-11790752D02*
X26440476Y-11885990D01*
X26440476Y-11885990D02*
X26488095Y-11933609D01*
X26488095Y-11933609D02*
X26583333Y-11981228D01*
X26583333Y-11981228D02*
X26964285Y-11981228D01*
X25440476Y-12457419D02*
X26011904Y-12457419D01*
X25726190Y-12457419D02*
X25726190Y-11457419D01*
X25726190Y-11457419D02*
X25821428Y-11600276D01*
X25821428Y-11600276D02*
X25916666Y-11695514D01*
X25916666Y-11695514D02*
X26011904Y-11743133D01*
X24583333Y-11790752D02*
X24583333Y-12457419D01*
X24821428Y-11409800D02*
X25059523Y-12124085D01*
X25059523Y-12124085D02*
X24440476Y-12124085D01*
X25392857Y12042581D02*
X25726190Y12518772D01*
X25964285Y12042581D02*
X25964285Y13042581D01*
X25964285Y13042581D02*
X25583333Y13042581D01*
X25583333Y13042581D02*
X25488095Y12994962D01*
X25488095Y12994962D02*
X25440476Y12947343D01*
X25440476Y12947343D02*
X25392857Y12852105D01*
X25392857Y12852105D02*
X25392857Y12709248D01*
X25392857Y12709248D02*
X25440476Y12614010D01*
X25440476Y12614010D02*
X25488095Y12566391D01*
X25488095Y12566391D02*
X25583333Y12518772D01*
X25583333Y12518772D02*
X25964285Y12518772D01*
X25011904Y12947343D02*
X24964285Y12994962D01*
X24964285Y12994962D02*
X24869047Y13042581D01*
X24869047Y13042581D02*
X24630952Y13042581D01*
X24630952Y13042581D02*
X24535714Y12994962D01*
X24535714Y12994962D02*
X24488095Y12947343D01*
X24488095Y12947343D02*
X24440476Y12852105D01*
X24440476Y12852105D02*
X24440476Y12756867D01*
X24440476Y12756867D02*
X24488095Y12614010D01*
X24488095Y12614010D02*
X25059523Y12042581D01*
X25059523Y12042581D02*
X24440476Y12042581D01*
X23583333Y13042581D02*
X23773809Y13042581D01*
X23773809Y13042581D02*
X23869047Y12994962D01*
X23869047Y12994962D02*
X23916666Y12947343D01*
X23916666Y12947343D02*
X24011904Y12804486D01*
X24011904Y12804486D02*
X24059523Y12614010D01*
X24059523Y12614010D02*
X24059523Y12233058D01*
X24059523Y12233058D02*
X24011904Y12137820D01*
X24011904Y12137820D02*
X23964285Y12090200D01*
X23964285Y12090200D02*
X23869047Y12042581D01*
X23869047Y12042581D02*
X23678571Y12042581D01*
X23678571Y12042581D02*
X23583333Y12090200D01*
X23583333Y12090200D02*
X23535714Y12137820D01*
X23535714Y12137820D02*
X23488095Y12233058D01*
X23488095Y12233058D02*
X23488095Y12471153D01*
X23488095Y12471153D02*
X23535714Y12566391D01*
X23535714Y12566391D02*
X23583333Y12614010D01*
X23583333Y12614010D02*
X23678571Y12661629D01*
X23678571Y12661629D02*
X23869047Y12661629D01*
X23869047Y12661629D02*
X23964285Y12614010D01*
X23964285Y12614010D02*
X24011904Y12566391D01*
X24011904Y12566391D02*
X24059523Y12471153D01*
X26392857Y-10457419D02*
X26726190Y-9981228D01*
X26964285Y-10457419D02*
X26964285Y-9457419D01*
X26964285Y-9457419D02*
X26583333Y-9457419D01*
X26583333Y-9457419D02*
X26488095Y-9505038D01*
X26488095Y-9505038D02*
X26440476Y-9552657D01*
X26440476Y-9552657D02*
X26392857Y-9647895D01*
X26392857Y-9647895D02*
X26392857Y-9790752D01*
X26392857Y-9790752D02*
X26440476Y-9885990D01*
X26440476Y-9885990D02*
X26488095Y-9933609D01*
X26488095Y-9933609D02*
X26583333Y-9981228D01*
X26583333Y-9981228D02*
X26964285Y-9981228D01*
X25440476Y-10457419D02*
X26011904Y-10457419D01*
X25726190Y-10457419D02*
X25726190Y-9457419D01*
X25726190Y-9457419D02*
X25821428Y-9600276D01*
X25821428Y-9600276D02*
X25916666Y-9695514D01*
X25916666Y-9695514D02*
X26011904Y-9743133D01*
X24535714Y-9457419D02*
X25011904Y-9457419D01*
X25011904Y-9457419D02*
X25059523Y-9933609D01*
X25059523Y-9933609D02*
X25011904Y-9885990D01*
X25011904Y-9885990D02*
X24916666Y-9838371D01*
X24916666Y-9838371D02*
X24678571Y-9838371D01*
X24678571Y-9838371D02*
X24583333Y-9885990D01*
X24583333Y-9885990D02*
X24535714Y-9933609D01*
X24535714Y-9933609D02*
X24488095Y-10028847D01*
X24488095Y-10028847D02*
X24488095Y-10266942D01*
X24488095Y-10266942D02*
X24535714Y-10362180D01*
X24535714Y-10362180D02*
X24583333Y-10409800D01*
X24583333Y-10409800D02*
X24678571Y-10457419D01*
X24678571Y-10457419D02*
X24916666Y-10457419D01*
X24916666Y-10457419D02*
X25011904Y-10409800D01*
X25011904Y-10409800D02*
X25059523Y-10362180D01*
X22707419Y-10057142D02*
X22231228Y-9723809D01*
X22707419Y-9485714D02*
X21707419Y-9485714D01*
X21707419Y-9485714D02*
X21707419Y-9866666D01*
X21707419Y-9866666D02*
X21755038Y-9961904D01*
X21755038Y-9961904D02*
X21802657Y-10009523D01*
X21802657Y-10009523D02*
X21897895Y-10057142D01*
X21897895Y-10057142D02*
X22040752Y-10057142D01*
X22040752Y-10057142D02*
X22135990Y-10009523D01*
X22135990Y-10009523D02*
X22183609Y-9961904D01*
X22183609Y-9961904D02*
X22231228Y-9866666D01*
X22231228Y-9866666D02*
X22231228Y-9485714D01*
X22707419Y-11009523D02*
X22707419Y-10438095D01*
X22707419Y-10723809D02*
X21707419Y-10723809D01*
X21707419Y-10723809D02*
X21850276Y-10628571D01*
X21850276Y-10628571D02*
X21945514Y-10533333D01*
X21945514Y-10533333D02*
X21993133Y-10438095D01*
X22707419Y-11961904D02*
X22707419Y-11390476D01*
X22707419Y-11676190D02*
X21707419Y-11676190D01*
X21707419Y-11676190D02*
X21850276Y-11580952D01*
X21850276Y-11580952D02*
X21945514Y-11485714D01*
X21945514Y-11485714D02*
X21993133Y-11390476D01*
X26392857Y-457419D02*
X26726190Y18772D01*
X26964285Y-457419D02*
X26964285Y542581D01*
X26964285Y542581D02*
X26583333Y542581D01*
X26583333Y542581D02*
X26488095Y494962D01*
X26488095Y494962D02*
X26440476Y447343D01*
X26440476Y447343D02*
X26392857Y352105D01*
X26392857Y352105D02*
X26392857Y209248D01*
X26392857Y209248D02*
X26440476Y114010D01*
X26440476Y114010D02*
X26488095Y66391D01*
X26488095Y66391D02*
X26583333Y18772D01*
X26583333Y18772D02*
X26964285Y18772D01*
X26011904Y447343D02*
X25964285Y494962D01*
X25964285Y494962D02*
X25869047Y542581D01*
X25869047Y542581D02*
X25630952Y542581D01*
X25630952Y542581D02*
X25535714Y494962D01*
X25535714Y494962D02*
X25488095Y447343D01*
X25488095Y447343D02*
X25440476Y352105D01*
X25440476Y352105D02*
X25440476Y256867D01*
X25440476Y256867D02*
X25488095Y114010D01*
X25488095Y114010D02*
X26059523Y-457419D01*
X26059523Y-457419D02*
X25440476Y-457419D01*
X24821428Y542581D02*
X24726190Y542581D01*
X24726190Y542581D02*
X24630952Y494962D01*
X24630952Y494962D02*
X24583333Y447343D01*
X24583333Y447343D02*
X24535714Y352105D01*
X24535714Y352105D02*
X24488095Y161629D01*
X24488095Y161629D02*
X24488095Y-76466D01*
X24488095Y-76466D02*
X24535714Y-266942D01*
X24535714Y-266942D02*
X24583333Y-362180D01*
X24583333Y-362180D02*
X24630952Y-409800D01*
X24630952Y-409800D02*
X24726190Y-457419D01*
X24726190Y-457419D02*
X24821428Y-457419D01*
X24821428Y-457419D02*
X24916666Y-409800D01*
X24916666Y-409800D02*
X24964285Y-362180D01*
X24964285Y-362180D02*
X25011904Y-266942D01*
X25011904Y-266942D02*
X25059523Y-76466D01*
X25059523Y-76466D02*
X25059523Y161629D01*
X25059523Y161629D02*
X25011904Y352105D01*
X25011904Y352105D02*
X24964285Y447343D01*
X24964285Y447343D02*
X24916666Y494962D01*
X24916666Y494962D02*
X24821428Y542581D01*
X22707419Y-19807142D02*
X22231228Y-19473809D01*
X22707419Y-19235714D02*
X21707419Y-19235714D01*
X21707419Y-19235714D02*
X21707419Y-19616666D01*
X21707419Y-19616666D02*
X21755038Y-19711904D01*
X21755038Y-19711904D02*
X21802657Y-19759523D01*
X21802657Y-19759523D02*
X21897895Y-19807142D01*
X21897895Y-19807142D02*
X22040752Y-19807142D01*
X22040752Y-19807142D02*
X22135990Y-19759523D01*
X22135990Y-19759523D02*
X22183609Y-19711904D01*
X22183609Y-19711904D02*
X22231228Y-19616666D01*
X22231228Y-19616666D02*
X22231228Y-19235714D01*
X22707419Y-20759523D02*
X22707419Y-20188095D01*
X22707419Y-20473809D02*
X21707419Y-20473809D01*
X21707419Y-20473809D02*
X21850276Y-20378571D01*
X21850276Y-20378571D02*
X21945514Y-20283333D01*
X21945514Y-20283333D02*
X21993133Y-20188095D01*
X21802657Y-21140476D02*
X21755038Y-21188095D01*
X21755038Y-21188095D02*
X21707419Y-21283333D01*
X21707419Y-21283333D02*
X21707419Y-21521428D01*
X21707419Y-21521428D02*
X21755038Y-21616666D01*
X21755038Y-21616666D02*
X21802657Y-21664285D01*
X21802657Y-21664285D02*
X21897895Y-21711904D01*
X21897895Y-21711904D02*
X21993133Y-21711904D01*
X21993133Y-21711904D02*
X22135990Y-21664285D01*
X22135990Y-21664285D02*
X22707419Y-21092857D01*
X22707419Y-21092857D02*
X22707419Y-21711904D01*
X24583333Y21292581D02*
X24583333Y20578296D01*
X24583333Y20578296D02*
X24630952Y20435439D01*
X24630952Y20435439D02*
X24726190Y20340200D01*
X24726190Y20340200D02*
X24869047Y20292581D01*
X24869047Y20292581D02*
X24964285Y20292581D01*
X23678571Y20959248D02*
X23678571Y20292581D01*
X23916666Y21340200D02*
X24154761Y20625915D01*
X24154761Y20625915D02*
X23535714Y20625915D01*
X26392857Y1542581D02*
X26726190Y2018772D01*
X26964285Y1542581D02*
X26964285Y2542581D01*
X26964285Y2542581D02*
X26583333Y2542581D01*
X26583333Y2542581D02*
X26488095Y2494962D01*
X26488095Y2494962D02*
X26440476Y2447343D01*
X26440476Y2447343D02*
X26392857Y2352105D01*
X26392857Y2352105D02*
X26392857Y2209248D01*
X26392857Y2209248D02*
X26440476Y2114010D01*
X26440476Y2114010D02*
X26488095Y2066391D01*
X26488095Y2066391D02*
X26583333Y2018772D01*
X26583333Y2018772D02*
X26964285Y2018772D01*
X26011904Y2447343D02*
X25964285Y2494962D01*
X25964285Y2494962D02*
X25869047Y2542581D01*
X25869047Y2542581D02*
X25630952Y2542581D01*
X25630952Y2542581D02*
X25535714Y2494962D01*
X25535714Y2494962D02*
X25488095Y2447343D01*
X25488095Y2447343D02*
X25440476Y2352105D01*
X25440476Y2352105D02*
X25440476Y2256867D01*
X25440476Y2256867D02*
X25488095Y2114010D01*
X25488095Y2114010D02*
X26059523Y1542581D01*
X26059523Y1542581D02*
X25440476Y1542581D01*
X24488095Y1542581D02*
X25059523Y1542581D01*
X24773809Y1542581D02*
X24773809Y2542581D01*
X24773809Y2542581D02*
X24869047Y2399724D01*
X24869047Y2399724D02*
X24964285Y2304486D01*
X24964285Y2304486D02*
X25059523Y2256867D01*
X17612180Y-10807142D02*
X17659800Y-10759523D01*
X17659800Y-10759523D02*
X17707419Y-10616666D01*
X17707419Y-10616666D02*
X17707419Y-10521428D01*
X17707419Y-10521428D02*
X17659800Y-10378571D01*
X17659800Y-10378571D02*
X17564561Y-10283333D01*
X17564561Y-10283333D02*
X17469323Y-10235714D01*
X17469323Y-10235714D02*
X17278847Y-10188095D01*
X17278847Y-10188095D02*
X17135990Y-10188095D01*
X17135990Y-10188095D02*
X16945514Y-10235714D01*
X16945514Y-10235714D02*
X16850276Y-10283333D01*
X16850276Y-10283333D02*
X16755038Y-10378571D01*
X16755038Y-10378571D02*
X16707419Y-10521428D01*
X16707419Y-10521428D02*
X16707419Y-10616666D01*
X16707419Y-10616666D02*
X16755038Y-10759523D01*
X16755038Y-10759523D02*
X16802657Y-10807142D01*
X17707419Y-11759523D02*
X17707419Y-11188095D01*
X17707419Y-11473809D02*
X16707419Y-11473809D01*
X16707419Y-11473809D02*
X16850276Y-11378571D01*
X16850276Y-11378571D02*
X16945514Y-11283333D01*
X16945514Y-11283333D02*
X16993133Y-11188095D01*
X17707419Y-12235714D02*
X17707419Y-12426190D01*
X17707419Y-12426190D02*
X17659800Y-12521428D01*
X17659800Y-12521428D02*
X17612180Y-12569047D01*
X17612180Y-12569047D02*
X17469323Y-12664285D01*
X17469323Y-12664285D02*
X17278847Y-12711904D01*
X17278847Y-12711904D02*
X16897895Y-12711904D01*
X16897895Y-12711904D02*
X16802657Y-12664285D01*
X16802657Y-12664285D02*
X16755038Y-12616666D01*
X16755038Y-12616666D02*
X16707419Y-12521428D01*
X16707419Y-12521428D02*
X16707419Y-12330952D01*
X16707419Y-12330952D02*
X16755038Y-12235714D01*
X16755038Y-12235714D02*
X16802657Y-12188095D01*
X16802657Y-12188095D02*
X16897895Y-12140476D01*
X16897895Y-12140476D02*
X17135990Y-12140476D01*
X17135990Y-12140476D02*
X17231228Y-12188095D01*
X17231228Y-12188095D02*
X17278847Y-12235714D01*
X17278847Y-12235714D02*
X17326466Y-12330952D01*
X17326466Y-12330952D02*
X17326466Y-12521428D01*
X17326466Y-12521428D02*
X17278847Y-12616666D01*
X17278847Y-12616666D02*
X17231228Y-12664285D01*
X17231228Y-12664285D02*
X17135990Y-12711904D01*
X26392857Y-6457419D02*
X26726190Y-5981228D01*
X26964285Y-6457419D02*
X26964285Y-5457419D01*
X26964285Y-5457419D02*
X26583333Y-5457419D01*
X26583333Y-5457419D02*
X26488095Y-5505038D01*
X26488095Y-5505038D02*
X26440476Y-5552657D01*
X26440476Y-5552657D02*
X26392857Y-5647895D01*
X26392857Y-5647895D02*
X26392857Y-5790752D01*
X26392857Y-5790752D02*
X26440476Y-5885990D01*
X26440476Y-5885990D02*
X26488095Y-5933609D01*
X26488095Y-5933609D02*
X26583333Y-5981228D01*
X26583333Y-5981228D02*
X26964285Y-5981228D01*
X25440476Y-6457419D02*
X26011904Y-6457419D01*
X25726190Y-6457419D02*
X25726190Y-5457419D01*
X25726190Y-5457419D02*
X25821428Y-5600276D01*
X25821428Y-5600276D02*
X25916666Y-5695514D01*
X25916666Y-5695514D02*
X26011904Y-5743133D01*
X25107142Y-5457419D02*
X24440476Y-5457419D01*
X24440476Y-5457419D02*
X24869047Y-6457419D01*
X2642857Y-3862180D02*
X2690476Y-3909800D01*
X2690476Y-3909800D02*
X2833333Y-3957419D01*
X2833333Y-3957419D02*
X2928571Y-3957419D01*
X2928571Y-3957419D02*
X3071428Y-3909800D01*
X3071428Y-3909800D02*
X3166666Y-3814561D01*
X3166666Y-3814561D02*
X3214285Y-3719323D01*
X3214285Y-3719323D02*
X3261904Y-3528847D01*
X3261904Y-3528847D02*
X3261904Y-3385990D01*
X3261904Y-3385990D02*
X3214285Y-3195514D01*
X3214285Y-3195514D02*
X3166666Y-3100276D01*
X3166666Y-3100276D02*
X3071428Y-3005038D01*
X3071428Y-3005038D02*
X2928571Y-2957419D01*
X2928571Y-2957419D02*
X2833333Y-2957419D01*
X2833333Y-2957419D02*
X2690476Y-3005038D01*
X2690476Y-3005038D02*
X2642857Y-3052657D01*
X2261904Y-3052657D02*
X2214285Y-3005038D01*
X2214285Y-3005038D02*
X2119047Y-2957419D01*
X2119047Y-2957419D02*
X1880952Y-2957419D01*
X1880952Y-2957419D02*
X1785714Y-3005038D01*
X1785714Y-3005038D02*
X1738095Y-3052657D01*
X1738095Y-3052657D02*
X1690476Y-3147895D01*
X1690476Y-3147895D02*
X1690476Y-3243133D01*
X1690476Y-3243133D02*
X1738095Y-3385990D01*
X1738095Y-3385990D02*
X2309523Y-3957419D01*
X2309523Y-3957419D02*
X1690476Y-3957419D01*
X833333Y-3290752D02*
X833333Y-3957419D01*
X1071428Y-2909800D02*
X1309523Y-3624085D01*
X1309523Y-3624085D02*
X690476Y-3624085D01*
X16612180Y-20307142D02*
X16659800Y-20259523D01*
X16659800Y-20259523D02*
X16707419Y-20116666D01*
X16707419Y-20116666D02*
X16707419Y-20021428D01*
X16707419Y-20021428D02*
X16659800Y-19878571D01*
X16659800Y-19878571D02*
X16564561Y-19783333D01*
X16564561Y-19783333D02*
X16469323Y-19735714D01*
X16469323Y-19735714D02*
X16278847Y-19688095D01*
X16278847Y-19688095D02*
X16135990Y-19688095D01*
X16135990Y-19688095D02*
X15945514Y-19735714D01*
X15945514Y-19735714D02*
X15850276Y-19783333D01*
X15850276Y-19783333D02*
X15755038Y-19878571D01*
X15755038Y-19878571D02*
X15707419Y-20021428D01*
X15707419Y-20021428D02*
X15707419Y-20116666D01*
X15707419Y-20116666D02*
X15755038Y-20259523D01*
X15755038Y-20259523D02*
X15802657Y-20307142D01*
X15802657Y-20688095D02*
X15755038Y-20735714D01*
X15755038Y-20735714D02*
X15707419Y-20830952D01*
X15707419Y-20830952D02*
X15707419Y-21069047D01*
X15707419Y-21069047D02*
X15755038Y-21164285D01*
X15755038Y-21164285D02*
X15802657Y-21211904D01*
X15802657Y-21211904D02*
X15897895Y-21259523D01*
X15897895Y-21259523D02*
X15993133Y-21259523D01*
X15993133Y-21259523D02*
X16135990Y-21211904D01*
X16135990Y-21211904D02*
X16707419Y-20640476D01*
X16707419Y-20640476D02*
X16707419Y-21259523D01*
X15707419Y-21878571D02*
X15707419Y-21973809D01*
X15707419Y-21973809D02*
X15755038Y-22069047D01*
X15755038Y-22069047D02*
X15802657Y-22116666D01*
X15802657Y-22116666D02*
X15897895Y-22164285D01*
X15897895Y-22164285D02*
X16088371Y-22211904D01*
X16088371Y-22211904D02*
X16326466Y-22211904D01*
X16326466Y-22211904D02*
X16516942Y-22164285D01*
X16516942Y-22164285D02*
X16612180Y-22116666D01*
X16612180Y-22116666D02*
X16659800Y-22069047D01*
X16659800Y-22069047D02*
X16707419Y-21973809D01*
X16707419Y-21973809D02*
X16707419Y-21878571D01*
X16707419Y-21878571D02*
X16659800Y-21783333D01*
X16659800Y-21783333D02*
X16612180Y-21735714D01*
X16612180Y-21735714D02*
X16516942Y-21688095D01*
X16516942Y-21688095D02*
X16326466Y-21640476D01*
X16326466Y-21640476D02*
X16088371Y-21640476D01*
X16088371Y-21640476D02*
X15897895Y-21688095D01*
X15897895Y-21688095D02*
X15802657Y-21735714D01*
X15802657Y-21735714D02*
X15755038Y-21783333D01*
X15755038Y-21783333D02*
X15707419Y-21878571D01*
%TO.C,R16*%
X29550000Y-8700000D02*
X27950000Y-8700000D01*
X29550000Y-7300000D02*
X27950000Y-7300000D01*
%TO.C,R1*%
X-18700000Y-23300000D02*
X-18700000Y-21700000D01*
X-17300000Y-23300000D02*
X-17300000Y-21700000D01*
%TO.C,R2*%
X-14800000Y-21700000D02*
X-14800000Y-23300000D01*
X-16200000Y-21700000D02*
X-16200000Y-23300000D01*
%TO.C,C21*%
X5050000Y-14950000D02*
X3450000Y-14950000D01*
X5050000Y-13550000D02*
X3450000Y-13550000D01*
%TO.C,C23*%
X3450000Y-9550000D02*
X5050000Y-9550000D01*
X3450000Y-10950000D02*
X5050000Y-10950000D01*
%TO.C,R27*%
X26950000Y11200000D02*
X28550000Y11200000D01*
X26950000Y9800000D02*
X28550000Y9800000D01*
%TO.C,R25*%
X26950000Y15200000D02*
X28550000Y15200000D01*
X26950000Y13800000D02*
X28550000Y13800000D01*
%TO.C,R23*%
X29550000Y5300000D02*
X27950000Y5300000D01*
X29550000Y6700000D02*
X27950000Y6700000D01*
%TO.C,C1*%
X-12300000Y-21700000D02*
X-12300000Y-23300000D01*
X-13700000Y-21700000D02*
X-13700000Y-23300000D01*
%TO.C,R18*%
X29550000Y-4700000D02*
X27950000Y-4700000D01*
X29550000Y-3300000D02*
X27950000Y-3300000D01*
%TO.C,C22*%
X5050000Y-12950000D02*
X3450000Y-12950000D01*
X5050000Y-11550000D02*
X3450000Y-11550000D01*
%TO.C,C18*%
X15950000Y-13650000D02*
X15950000Y-15250000D01*
X14550000Y-13650000D02*
X14550000Y-15250000D01*
%TO.C,R24*%
X26950000Y17200000D02*
X28550000Y17200000D01*
X26950000Y15800000D02*
X28550000Y15800000D01*
%TO.C,R19*%
X29550000Y-2700000D02*
X27950000Y-2700000D01*
X29550000Y-1300000D02*
X27950000Y-1300000D01*
%TO.C,R13*%
X5050000Y-16950000D02*
X3450000Y-16950000D01*
X5050000Y-15550000D02*
X3450000Y-15550000D01*
%TO.C,C25*%
X7700000Y-2800000D02*
X9300000Y-2800000D01*
X7700000Y-4200000D02*
X9300000Y-4200000D01*
%TO.C,R22*%
X29550000Y3300000D02*
X27950000Y3300000D01*
X29550000Y4700000D02*
X27950000Y4700000D01*
%TO.C,R14*%
X29550000Y-12700000D02*
X27950000Y-12700000D01*
X29550000Y-11300000D02*
X27950000Y-11300000D01*
%TO.C,R26*%
X26950000Y13200000D02*
X28550000Y13200000D01*
X26950000Y11800000D02*
X28550000Y11800000D01*
%TO.C,R15*%
X29550000Y-10700000D02*
X27950000Y-10700000D01*
X29550000Y-9300000D02*
X27950000Y-9300000D01*
%TO.C,R11*%
X22950000Y-12900000D02*
X22950000Y-14500000D01*
X21550000Y-12900000D02*
X21550000Y-14500000D01*
%TO.C,R20*%
X29550000Y-700000D02*
X27950000Y-700000D01*
X29550000Y700000D02*
X27950000Y700000D01*
%TO.C,R12*%
X21550000Y-18250000D02*
X21550000Y-16650000D01*
X22950000Y-18250000D02*
X22950000Y-16650000D01*
%TO.C,J4*%
X-25800000Y27400000D02*
X-24100000Y27400000D01*
X-25800000Y25700000D02*
X-25800000Y27400000D01*
X-25600000Y21800000D02*
X25600000Y21800000D01*
X25600000Y27200000D01*
X-25600000Y27200000D01*
X-25600000Y21800000D01*
%TO.C,R21*%
X29550000Y1300000D02*
X27950000Y1300000D01*
X29550000Y2700000D02*
X27950000Y2700000D01*
%TO.C,C19*%
X17950000Y-13650000D02*
X17950000Y-15250000D01*
X16550000Y-13650000D02*
X16550000Y-15250000D01*
%TO.C,R17*%
X29550000Y-6700000D02*
X27950000Y-6700000D01*
X29550000Y-5300000D02*
X27950000Y-5300000D01*
%TO.C,C24*%
X5800000Y-4200000D02*
X4200000Y-4200000D01*
X5800000Y-2800000D02*
X4200000Y-2800000D01*
%TO.C,C20*%
X15550000Y-18750000D02*
X15550000Y-17150000D01*
X16950000Y-18750000D02*
X16950000Y-17150000D01*
%TD*%
M02*
